<svg width="1920" height="1080" viewBox="0 0 1920 1080" fill="none" xmlns="http://www.w3.org/2000/svg">
    <g clip-path="url(#clip0_93_147)">
        <path d="M1064.9 1079.12L1182.97 1078.75L1183.72 1068.96C1185.22 1050.78 1187.96 1042.88 1196.56 1030.72C1198.93 1027.33 1200.55 1024.32 1200.18 1023.94C1199.93 1023.57 1193.32 1021.81 1185.72 1019.81C1178.11 1017.8 1171.5 1015.92 1171.13 1015.54C1169.13 1013.54 1193.2 985.571 1208.28 972.529C1214.27 967.262 1219.01 962.496 1218.76 961.995C1218.38 961.493 1213.77 958.734 1208.41 955.725C1192.2 946.821 1159.41 927.007 1150.81 920.988C1130.98 906.942 1123.75 896.283 1125 883.366C1126.24 870.951 1137.47 851.263 1165.77 811.384C1171.25 803.735 1175.62 797.214 1175.37 797.088C1174.99 796.712 1138.71 785.676 1082.86 768.998C1061.66 762.728 1034.48 754.576 1022.76 751.065L1001.19 744.669V740.656C1001.19 728.241 1005.55 705.794 1012.04 684.601C1014.53 676.575 1016.28 669.678 1016.03 669.552C1015.78 669.301 991.963 663.031 963.161 655.632C934.36 648.234 910.297 641.713 909.673 641.085C907.304 638.828 912.167 604.467 918.276 580.766C919.024 577.506 918.9 577.506 913.912 577.631C907.803 577.756 905.434 575.499 902.691 567.222C901.195 562.457 901.195 561.203 903.065 556.187C904.312 552.926 904.935 550.167 904.686 549.791C904.312 549.54 901.943 549.29 899.325 549.29C896.706 549.29 892.093 548.036 888.976 546.405C885.859 544.775 880.872 542.518 877.755 541.264C874.638 540.01 871.645 538.63 871.147 538.254C870.648 537.752 884.488 522.453 901.943 504.27C924.261 480.944 933.363 470.787 932.49 469.783C931.742 468.906 931.617 466.899 931.991 465.269C932.739 462.385 931.991 461.883 923.887 458.121C906.182 450.22 892.966 448.966 882.742 454.233C877.256 457.118 868.902 465.896 859.925 478.185C846.46 496.871 840.6 497.498 823.519 482.449C819.529 479.063 811.05 470.034 804.442 462.635L792.473 448.841L833.618 408.21C856.185 385.763 875.885 366.576 877.505 365.573C879.002 364.444 880.124 363.441 879.874 363.064C879.5 362.814 866.783 364.318 851.447 366.45C804.318 372.721 713.425 382.502 670.161 385.763C616.299 389.901 580.764 391.782 579.642 390.653C579.144 390.026 578.396 385.136 578.022 379.618C576.65 362.814 573.533 326.196 570.416 291.459C568.421 269.011 567.798 257.349 568.67 255.342C569.294 253.587 569.793 251.956 569.793 251.831C569.793 251.329 559.569 248.32 559.195 248.821C559.07 249.072 556.576 256.22 553.584 264.873C546.851 285.188 539.62 300.237 533.386 307.134C523.91 317.292 516.928 314.784 485.633 289.327C456.083 265.5 441.246 262.49 418.056 275.658C412.819 278.667 408.455 281.05 408.331 280.799C407.458 279.42 382.272 174.833 382.522 173.704C382.771 172.325 381.275 171.698 373.919 170.318C372.298 169.942 371.425 172.199 369.679 182.608C368.557 189.505 365.69 202.798 363.321 212.078C359.082 229.133 358.333 231.139 339.507 267.506C329.033 287.697 326.166 298.732 323.921 325.819L322.425 343.878L306.092 305.379C297.115 284.06 288.761 264.748 287.639 262.365C283.026 251.956 271.805 225.998 271.805 225.371C271.805 224.869 269.561 219.602 263.077 205.306C261.955 202.547 259.586 197.28 258.09 193.769C255.347 187.248 255.222 187.122 249.861 187.122H244.375L244.998 228.13C245.372 250.828 245.871 278.793 246.245 290.33C246.744 306.883 246.495 311.147 245.248 310.52C239.762 307.26 192.009 272.523 189.017 269.638C187.146 267.632 183.655 264.622 181.536 262.992L177.421 259.857L171.436 269.011C168.07 273.902 165.202 278.291 165.078 278.417C164.579 279.169 126.427 259.731 110.218 250.452C96.0044 242.426 82.1648 232.895 81.2921 230.763C81.0427 230.261 80.4193 230.011 79.7959 230.387C78.6738 231.014 79.1725 241.799 81.2921 265.5C85.0325 307.887 82.6636 315.035 64.2108 315.035C53.8622 315.035 44.0124 312.903 25.809 306.633C18.4528 304.124 12.2187 302.369 11.9694 302.62C11.72 302.87 11.2213 323.186 10.8473 347.64C10.3485 386.39 9.97449 392.911 8.10427 397.551C6.23405 402.191 3.24171 405.326 0.748087 405.326C0.374043 405.326 0 312.777 0 199.663V-6H754.071H1508.14L1509.51 -2.61409C1526.97 40.1487 1535.7 66.8598 1544.18 103.352C1545.8 110.375 1548.04 119.404 1549.04 123.166C1550.04 126.928 1550.78 130.189 1550.53 130.44C1550.28 130.691 1547.04 129.311 1543.3 127.43C1537.82 124.546 1535.32 124.044 1528.34 124.295C1523.6 124.42 1517.74 124.671 1515.25 124.671C1512.63 124.797 1508.02 124.42 1505.03 123.793L1499.66 122.79L1501.16 125.8C1502.03 127.43 1504.4 131.067 1506.4 133.826C1510.89 140.096 1531.58 172.074 1542.55 189.63C1550.66 202.547 1563.5 225.998 1563.5 227.628C1563.5 228.13 1542.93 228.506 1517.74 228.506C1464.88 228.506 1459.27 228.882 1458.27 232.644C1456.9 237.911 1472.98 260.86 1490.31 278.417C1511.88 300.362 1528.84 307.636 1548.91 303.372C1555.02 302.118 1557.27 301.993 1556.77 303.121C1556.52 303.874 1544.55 323.938 1530.21 347.765C1515.75 371.467 1499.41 398.554 1493.93 407.834L1483.7 424.638L1486.95 426.394C1489.69 427.773 1495.8 427.898 1524.6 426.644C1543.68 425.767 1560.13 425.265 1561.26 425.516C1563.13 425.892 1562.75 427.271 1558.39 434.67C1555.65 439.436 1552.4 447.211 1551.03 451.976C1548.17 462.635 1544.92 468.153 1532.58 484.581C1523.48 496.494 1519.61 502.138 1515.62 509.537L1513.75 512.797L1525.22 511.041C1531.58 510.038 1539.19 508.282 1542.31 507.028C1552.78 502.639 1571.61 500.006 1591.8 500.006C1608.88 500.006 1611 500.257 1614.12 502.639C1620.48 507.405 1620.6 510.54 1614.5 528.473L1609.13 544.524L1611.88 547.409C1614.12 549.54 1616.61 550.293 1623.72 550.794L1632.7 551.422L1626.22 582.146C1622.6 599.075 1619.73 613.497 1619.98 614.374C1620.11 615.252 1625.84 612.619 1634.19 607.853C1646.54 600.58 1650.78 598.699 1650.78 600.078C1650.78 600.329 1649.66 603.84 1648.28 607.728L1645.92 614.876L1649.9 611.992C1652.15 610.487 1654.02 608.731 1654.27 608.23C1654.52 607.728 1656.01 607.226 1657.64 607.226C1659.13 607.226 1661.13 606.349 1662 605.345C1662.87 604.342 1664.62 603.464 1665.74 603.464C1666.99 603.464 1669.6 602.712 1671.6 601.709C1690.05 592.178 1733.19 572.113 1735.81 571.862C1737.68 571.612 1739.55 570.985 1740.05 570.483C1741.92 568.602 1749.28 569.605 1751.77 572.113C1755.14 575.499 1755.26 576.753 1756.76 605.345C1758.38 636.822 1759.25 647.481 1760.5 649.864C1761 650.867 1761.87 655.131 1762.37 659.269C1762.87 663.407 1763.99 668.674 1764.99 671.057C1766.11 673.816 1766.73 680.212 1766.73 689.993C1766.73 701.029 1767.11 704.916 1768.35 705.418C1771.97 706.797 1776.95 704.415 1783.81 698.144C1798.28 684.852 1807.13 676.951 1824.71 662.153C1830.94 656.886 1842.66 645.6 1850.77 636.822C1864.98 621.648 1865.73 621.021 1870.59 621.021C1874.33 621.021 1876.33 621.773 1878.45 624.281C1880.07 626.037 1881.44 627.793 1881.44 628.294C1881.44 630.677 1847.27 734.762 1845.9 736.393C1844.41 738.274 1844.78 741.409 1846.53 742.663C1847.03 743.039 1848.4 745.171 1849.52 747.428C1850.77 749.685 1852.01 751.441 1852.51 751.19C1859.49 747.93 1889.17 732.129 1891.66 730.373C1897.65 726.36 1913.61 710.434 1914.35 707.801C1915.85 703.286 1971.46 655.382 1973.7 656.761C1974.32 657.137 1983.05 671.308 1993.15 688.237L2011.6 719.087L2016.09 714.322C2018.46 711.563 2024.45 704.916 2029.43 699.398L2038.41 689.366L2040.03 693.755C2043.27 703.286 2053.62 722.473 2058.73 728.116C2067.09 737.898 2074.82 739.528 2092.15 735.766C2105.86 732.756 2122.82 734.261 2134.91 739.402C2136.91 740.406 2137.03 739.152 2137.03 724.479V708.678L2139.9 709.556C2152.12 713.318 2176.31 723.978 2187.78 730.749C2195.51 735.264 2202.37 738.901 2202.87 738.901C2203.49 738.901 2204.49 736.518 2205.23 733.634C2208.85 718.711 2218.58 683.723 2221.94 673.44C2228.8 652.873 2235.66 640.96 2244.26 634.815L2248 632.182V856.028V1080L1597.54 1079.75C1239.7 1079.5 1000.07 1079.25 1064.9 1079.12Z" fill="#1E1E1E"/>
        <path d="M0 982.059V958.734L12.2187 956.226C18.8268 954.847 24.5622 953.843 24.9362 954.22C25.4349 954.721 8.72768 989.584 2.86766 1000.37L0 1005.38V982.059Z" fill="#1E1E1E"/>
        <path d="M0 836.089C0 832.578 0.872768 832.327 4.11448 834.709C6.35874 836.465 6.10937 836.967 2.24426 838.346C0.498724 838.973 0 838.472 0 836.089Z" fill="#1E1E1E"/>
    </g>
    <defs>
        <clipPath id="clip0_93_147">
            <rect width="2248" height="1086" fill="white" transform="matrix(1 0 0 -1 0 1080)"/>
        </clipPath>
    </defs>
</svg>
