<svg width="873" height="944" viewBox="0 0 873 944" fill="none" xmlns="http://www.w3.org/2000/svg">
    <path d="M759.94 733.84C686.45 706.41 604.3 675.77 568.99 633.1C561.77 624.37 557.89 613.36 557.9 602.03L557.95 548.24C557.97 543.23 559.62 538.38 562.59 534.34C584.62 504.35 591.34 460.9 591.34 460.9C607.81 462.82 631.91 407.5 632.61 351.37C632.61 326.75 619.79 323.54 611.68 329.03C618.38 294.66 653.87 94.2702 571.53 90.5902C572.88 76.5002 562.58 68.6902 556.64 65.3902C554.16 64.0202 552.66 61.4102 552.71 58.5702V58.4102C552.79 53.3902 548.31 49.5302 543.36 50.3402L543.17 50.3702C540.81 50.7602 538.47 49.2602 538.03 46.9102C537.97 46.6202 537.91 46.3202 537.83 46.0202C536.92 42.6702 534.17 40.1202 530.88 39.0202C520.47 35.5402 513.38 38.8102 513.38 38.8102C513.38 38.8102 496.35 26.1802 490.7 16.2602C470.97 18.6902 466.52 26.9102 466.52 26.9102C466.52 26.9102 460.07 8.65021 454.86 7.32021C450.67 15.8902 446.04 20.5102 442.69 22.9402C440.08 24.8302 436.46 24.0602 434.85 21.2602C432.2 16.6302 429.67 8.72021 435.85 0.220215C410.19 4.08021 377.94 25.3602 377.94 25.3602C377.94 25.3602 371.46 8.94021 367.21 5.79021C364.37 27.8202 343.73 50.7102 335.47 59.0802C332.81 61.7802 329.08 63.1902 325.31 62.7302C320.61 62.1602 315 59.5702 313.94 50.7302C293.54 84.0502 288.76 111.49 288.76 111.49C277.58 99.6002 277.98 94.6902 277.98 94.6902C277.98 94.6902 273.52 98.2402 271.47 119.7C271.17 122.88 269.25 125.66 266.38 127.08C265.18 127.68 263.95 128.45 262.8 129.25C259.12 131.83 255.89 135.05 253.4 138.79C224.02 182.84 248.96 286.07 261.25 329.02C253.14 323.5 240.29 326.69 240.29 351.34C240.99 407.47 265.09 462.79 281.56 460.87C281.56 460.87 288.27 504.32 310.31 534.31C313.28 538.35 314.93 543.2 314.95 548.21C314.95 548.21 314.97 581.38 314.99 602.01C315 613.34 311.13 624.34 303.91 633.07C268.6 675.74 186.44 706.38 112.95 733.81C45.2902 759.06 0.450195 823.68 0.450195 895.9V943.44H872.51V895.91C872.51 823.69 827.66 759.07 760 733.81L759.94 733.84Z" fill="black"/>
</svg>
