<svg width="873" height="834" viewBox="0 0 873 834" fill="none" xmlns="http://www.w3.org/2000/svg">
    <path d="M760.38 623.85C683.77 595.26 597.73 563.17 565.17 517.61C560.68 511.33 558.31 503.8 558.31 496.09L558.34 440.48C558.34 437.95 559.17 435.51 560.65 433.45C577.38 410.21 589.73 380.6 596.38 352.69C613.51 353.97 636.51 295.88 635.29 237.75C634.46 212.9 621.73 209.54 613.48 214.91C627.52 161.89 628.87 120.49 625.85 69.6201C624.78 51.5901 618.77 34.1401 608.28 19.4301C513 19.4299 354.56 -47.1599 277.29 69.6201C222.64 95.3401 225.24 114.75 259.65 214.57C251.4 209.7 239.2 213.44 238.38 237.76C237.16 295.88 260.16 353.97 277.29 352.7C283.94 380.61 296.3 410.22 313.03 433.46C314.51 435.52 315.34 437.96 315.34 440.49C315.34 451.21 315.35 481.33 315.36 496.1C315.36 503.82 312.99 511.34 308.5 517.62C275.94 563.18 189.9 595.26 113.29 623.86C45.64 649.11 0.799805 713.73 0.799805 785.94V833.48H872.86V785.95C872.86 713.74 828.02 649.11 760.37 623.86L760.38 623.85Z" fill="black"/>
</svg>
