<svg xmlns="http://www.w3.org/2000/svg" width="180" height="180" viewBox="0 0 180 180" fill="none">
    <path d="M94.9526 59.3534C83.7448 48.8051 66.6035 46.8273 52.7586 52.7607C42.8693 56.7164 34.9579 63.3091 28.3651 72.5389C8.58666 101.547 15.8388 137.807 36.2765 162.859C28.3651 156.926 23.0909 147.696 19.1352 138.466C12.5424 122.643 10.5645 105.502 15.1795 88.3614C19.7945 71.8796 29.0244 58.0349 44.1879 48.1458C61.9885 37.5975 83.7448 36.279 100.886 48.8051C108.138 54.0793 113.413 61.9905 114.731 71.2203C115.39 58.0349 106.82 46.8273 95.6119 40.2346C83.7448 33.6419 71.2185 31.6641 58.0328 34.3011C41.5508 37.5975 29.0244 46.8273 18.4759 59.3534C12.5424 66.6054 8.58666 74.5167 5.29025 83.0872C2.65312 90.3392 1.99384 97.5911 0.0159921 104.843C-0.64329 73.1981 19.1352 42.2124 49.4621 31.0048C75.8334 21.1157 108.138 28.3677 121.983 54.0793C128.576 66.6054 129.235 82.4279 120.665 94.2948C135.169 80.4501 133.191 57.3756 121.324 41.5531C96.2712 7.93032 48.1436 10.5674 17.8166 35.6197C17.1573 36.279 17.1573 35.6197 17.1573 34.9604C40.2322 12.5452 75.8334 5.9525 104.842 19.7972C129.895 31.6641 145.717 60.0127 137.806 87.7021C133.85 101.547 122.642 111.436 108.798 114.732C128.576 114.732 143.739 96.2726 146.377 77.1537C149.014 52.7607 137.147 29.6863 116.709 15.1823C103.523 5.9525 89.6784 2.65615 75.1741 0.0190646C104.842 -0.640206 133.191 15.8416 146.377 42.8717C154.288 58.6942 155.607 76.4945 149.673 92.9762C144.399 107.48 133.85 119.347 119.346 124.621C112.094 126.599 104.842 127.918 97.5897 125.94C93.6341 124.621 89.6784 122.643 85.7227 120.666C93.6341 128.577 104.842 131.873 115.39 130.555C137.147 127.918 153.629 110.777 160.222 90.3392C164.177 75.8352 164.177 61.3312 160.222 46.8273C157.584 39.5753 154.288 32.9826 150.992 26.3899C149.014 23.0935 146.377 20.4565 144.399 16.5008C168.792 40.2346 175.385 80.4501 156.925 110.777C147.036 126.599 132.532 135.829 114.731 139.125C92.9748 143.081 69.8999 129.895 65.2849 108.139C65.2849 133.851 92.3155 149.014 116.05 146.377C132.532 144.399 147.036 137.147 158.244 124.621C171.429 110.777 177.363 92.9762 180 75.1759C180 81.1094 180 86.3835 178.681 92.317C178.022 94.9541 177.363 96.9319 176.704 99.569C167.474 131.873 135.828 155.607 101.545 152.97C81.1077 150.992 62.6478 137.807 55.3957 118.688C52.0993 107.48 52.0993 94.9541 60.0107 85.7243C48.1436 95.6133 46.825 113.414 52.7586 127.258C58.0328 139.125 66.6035 149.014 78.4706 154.948C89.0191 160.222 100.886 162.859 112.753 162.859C131.213 162.859 148.354 154.288 163.518 144.399C144.399 163.518 115.39 171.429 88.3598 164.837C63.9664 158.244 45.5065 139.784 40.8915 114.732C37.5951 93.6355 49.4621 68.5832 71.8777 65.2869C49.4621 64.6276 33.6394 87.7021 33.6394 108.799C33.6394 129.895 43.5286 148.355 59.3514 161.54C72.537 172.089 88.3598 177.363 104.842 180C91.6562 180 79.1298 176.704 67.2628 170.77C58.6921 166.155 51.44 160.222 44.8472 153.629C33.6394 141.103 27.0466 125.281 27.0466 108.799C26.3873 83.7465 42.21 57.3756 68.5813 53.42C77.8113 52.1015 87.0412 54.0793 94.9526 59.3534Z" fill="#D32DB1"/>
</svg>