<svg xmlns="http://www.w3.org/2000/svg" width="155" height="155" viewBox="0 0 155 155" fill="none">
    <path d="M155 77.5C155 75.369 153.275 73.6444 151.144 73.6444H106.734C104.971 73.6444 103.403 72.4773 102.954 70.7716C102.339 68.4468 101.423 66.2497 100.237 64.2274C99.3579 62.7296 99.632 60.8206 100.861 59.5921L132.301 28.1517C133.808 26.6444 133.808 24.2016 132.301 22.6991C130.794 21.1918 128.351 21.1918 126.848 22.6991L95.4078 54.1394C94.1793 55.3679 92.2705 55.6373 90.7727 54.7631C88.7456 53.5772 86.5484 52.6605 84.2284 52.0463C82.5227 51.5974 81.3556 50.0287 81.3556 48.2662V3.85564C81.3556 1.72465 79.631 0 77.5 0C75.369 0 73.6444 1.72465 73.6444 3.85564V48.2662C73.6444 50.0287 72.4773 51.5974 70.7716 52.0463C68.4468 52.6605 66.2497 53.5772 64.2273 54.7631C62.7295 55.642 60.8207 55.3679 59.5922 54.1394L28.1518 22.6991C26.6445 21.1918 24.2016 21.1918 22.6991 22.6991C21.1918 24.2064 21.1918 26.6492 22.6991 28.1517L54.1395 59.5921C55.368 60.8206 55.6372 62.7296 54.7631 64.2274C53.5771 66.2544 52.6604 68.4516 52.0462 70.7716C51.5973 72.4773 50.0286 73.6444 48.2662 73.6444H3.85559C1.7246 73.6444 0 75.369 0 77.5C0 79.631 1.7246 81.3556 3.85559 81.3556H48.2662C50.0286 81.3556 51.5973 82.5227 52.0462 84.2284C52.6557 86.5532 53.5771 88.7503 54.7631 90.7726C55.6419 92.2704 55.368 94.1794 54.1395 95.4079L22.6991 126.848C21.1918 128.356 21.1918 130.798 22.6991 132.301C24.2064 133.808 26.6492 133.808 28.1518 132.301L59.5922 100.861C60.8207 99.632 62.7295 99.3627 64.2273 100.237C66.2544 101.423 68.4516 102.339 70.7716 102.954C72.4773 103.403 73.6444 104.971 73.6444 106.734V151.144C73.6444 153.275 75.369 155 77.5 155C79.631 155 81.3556 153.275 81.3556 151.144V106.734C81.3556 104.971 82.5227 103.403 84.2284 102.954C86.5532 102.344 88.7503 101.423 90.7727 100.237C92.2705 99.358 94.1793 99.632 95.4078 100.861L126.848 132.301C128.356 133.808 130.798 133.808 132.301 132.301C133.808 130.794 133.808 128.351 132.301 126.848L100.861 95.4079C99.632 94.1794 99.3627 92.2704 100.237 90.7726C101.423 88.7456 102.339 86.5484 102.954 84.2284C103.403 82.5227 104.971 81.3556 106.734 81.3556H151.144C153.275 81.3556 155 79.631 155 77.5Z" fill="#13C7D1"/>
</svg>