<svg width="473" height="761" viewBox="0 0 473 761" fill="none" xmlns="http://www.w3.org/2000/svg">
    <path d="M467.235 15.4188C463.75 15.4696 460.257 15.0046 456.78 15.07C454.492 15.1136 452.227 15.7966 449.926 16.0509C447.755 16.2907 445.722 17.1989 443.34 16.5159C441.728 16.0509 439.79 16.8357 438.011 16.7557C436.261 16.6685 434.526 16.2035 432.783 15.8911C430.213 15.4333 427.599 15.2952 425.116 16.0654C424.23 16.3416 423.889 17.802 422.524 17.7076C420.847 17.5913 419.025 18.0055 417.529 17.4678C415.728 16.8211 414.218 16.6104 412.337 17.1408C410.646 17.6131 408.758 17.5259 406.95 17.4823C405.215 17.4387 403.458 17.228 401.752 16.9083C399.559 16.4941 397.381 16.0073 395.253 15.3388C393.743 14.8666 392.247 14.2054 390.926 13.3552C389.031 12.1273 387.071 12.7013 385.604 13.5369C382.823 15.1209 379.97 15.1499 376.985 15.0046C374.655 14.8883 372.317 14.852 369.986 14.743C367.38 14.6195 364.766 14.5251 362.174 14.2635C361.6 14.1981 361.099 13.4642 360.548 13.0573C358.457 11.4806 356.249 12.5341 354.412 13.2825C351.319 14.5468 348.067 14.0237 344.959 14.7503C343.667 15.0555 342.41 15.397 341.198 14.2708C340.842 13.9438 339.652 14.0818 339.129 14.4306C337.938 15.2226 337.459 14.3652 336.827 13.7476C335.614 12.5632 334.533 11.2045 333.16 10.2454C331.774 9.27898 330.111 8.68318 328.543 7.98564C325.777 6.75042 323.068 6.85213 320.418 8.38526C320.033 8.61051 319.467 8.87208 319.104 8.74856C316.752 7.96383 314.29 8.69044 311.8 7.93477C309.876 7.35349 307.45 6.07469 304.866 7.913C303.421 8.9375 300.793 8.34166 298.694 8.42886C297.91 8.46519 297.003 8.06556 296.356 8.34167C294.367 9.18452 293.198 8.42159 292.029 6.88119C291.594 6.31444 290.345 5.72591 289.807 5.94389C286.714 7.22271 283.905 5.76222 281.029 5.23906C277.719 4.63598 274.364 4.01114 271.199 2.91397C266.007 1.11927 260.888 2.43441 255.726 2.63059C253.824 2.70325 251.914 2.47074 250.012 2.45621C249.293 2.45621 248.567 2.63783 247.855 2.79042C245.837 3.21911 244.015 2.81951 242.061 2.09291C240.275 1.4317 238.199 1.2573 236.26 1.3009C234.46 1.34449 232.644 2.35445 230.895 2.2382C228.629 2.08561 226.415 1.22825 224.179 0.676029C223.177 0.428985 222.131 -0.115984 221.18 0.02207C217.644 0.516159 214.079 1.00299 210.645 1.94031C207.958 2.66691 205.519 4.25817 202.84 5.07196C201.293 5.53698 200.596 7.72407 198.541 6.99747C198.382 6.93934 198.026 7.50609 197.721 7.72407C197.365 7.99292 196.871 8.47245 196.603 8.38526C194.635 7.75312 193.132 8.63231 191.775 9.79487C190.184 11.1536 188.58 11.466 186.75 10.3325C185.574 9.59868 184.434 8.68317 183.134 8.25448C181.799 7.80399 180.288 7.81853 178.858 7.67321C177.979 7.58601 176.912 7.23725 176.244 7.58602C173.398 9.09735 170.377 8.21815 167.531 8.16729C163.843 8.10916 160.307 8.28352 156.822 9.41702C156.539 9.51148 156.067 9.46789 155.849 9.28624C153.17 7.08464 151.376 9.33709 149.503 10.5941C148.16 11.5024 147.093 12.7958 145.815 13.813C145.329 14.1981 144.617 14.3797 143.978 14.4815C141.705 14.8302 139.433 15.1281 137.146 15.397C136.027 15.5278 134.721 15.9492 133.806 15.5495C131.192 14.4088 128.963 14.852 126.756 16.3633C126.603 16.4723 126.364 16.5305 126.182 16.4942C123.51 16.0146 120.853 15.4914 118.181 15.0555C117.419 14.9247 116.504 14.8302 115.843 15.1281C114.18 15.862 112.576 16.0582 110.739 15.8838C108.205 15.644 105.598 15.6149 103.086 15.9564C101.678 16.1454 100.392 17.2353 99.0493 17.9183C98.7007 18.0999 98.3523 18.4269 98.0038 18.4196C95.4698 18.4051 92.9357 18.3179 90.4018 18.2671C90.0968 18.2671 89.7339 18.2671 89.4871 18.3979C88.0132 19.1971 86.873 18.5068 85.6242 17.7729C84.2883 16.9809 82.8655 16.1672 81.377 15.8547C80.2589 15.615 78.9663 16.1526 77.7538 16.3343C75.2271 16.7121 73.0564 15.5132 70.8491 14.6631C68.6129 13.7985 66.2314 13.0355 65.0261 10.6378C64.8882 10.3616 64.3798 10.2163 64.0168 10.1C62.8333 9.70767 61.6499 9.30803 60.4446 9.01013C59.7186 8.83574 58.949 8.84301 57.947 8.74129L27.0529 5.87848C25.775 3.65508 23.5606 7.61507 21.6656 7.57147C19.4801 7.52061 18.6379 6.07469 17.8392 4.68688C16.0749 1.61336 13.3378 0.501641 9.99788 0.0366162C8.97413 -0.101438 7.91397 2.68143 7.15887 1.88217C6.33116 1.01751 2.78065 0.312707 0.914667 0.83586C0.638764 0.915786 0.326728 0.908542 0 0.85768V740.509C2.36696 740.429 4.74103 740.32 7.10073 740.407C9.45317 740.494 11.7765 741.381 14.1362 740.371C17.0332 739.128 19.7416 739.492 22.3119 741.032C22.5878 741.199 22.9361 741.374 23.2556 741.374C26.2107 741.41 29.1659 741.395 32.1282 741.425C33.2536 741.439 34.3715 741.519 35.4969 741.548C36.6223 741.577 37.8206 741.788 38.8588 741.548C44.0937 740.335 49.1326 741.054 54.1352 742.355C55.3405 742.667 56.5455 743.401 57.6999 743.336C60.7203 743.176 62.6011 744.316 64.3291 746.147C64.8519 746.7 66.6377 747.179 67.1532 746.874C69.7671 745.37 72.7222 745.544 75.5902 745.421C78.4799 745.297 81.3914 745.363 84.2884 745.472C85.5082 745.515 86.7279 745.806 87.9041 746.096C90.2275 746.678 92.3188 747.768 94.9907 747.506C96.4791 747.354 98.0762 748.044 99.6445 748.218C100.501 748.313 101.605 748.378 102.244 748.022C105.01 746.496 107.813 744.963 110.289 743.147C112.743 741.345 114.95 739.368 118.595 739.55C121.622 739.702 124.643 739.899 127.671 740.095C129.544 740.218 131.25 740.066 132.884 739.063C133.813 738.489 135.287 738.075 136.383 738.227C138.881 738.569 141.473 739.041 143.804 739.652C148.603 740.909 153.272 741.664 158.31 741.425C160.975 741.294 163.865 740.814 166.145 742.878C167.604 744.2 168.838 746.089 171.677 745.784C171.851 745.762 172.062 746.242 172.331 746.409C173.993 747.441 175.336 748.93 177.805 748.792C178.945 748.727 180.121 748.879 181.261 749.039C182.06 749.148 182.815 749.562 183.606 749.599C187.237 749.78 190.976 749.57 193.546 752.36C193.764 752.592 194.439 752.651 194.875 752.607C196.356 752.433 197.823 752.171 199.304 751.953C201.264 751.662 203.079 751.873 204.691 752.934C205.228 753.29 205.824 753.668 206.463 753.813C211.015 754.83 215.655 755.056 220.36 754.874C224.208 754.729 228.041 754.656 231.454 756.618C232.369 757.141 233.501 757.577 234.946 756.988C235.803 756.647 237.168 757.163 238.301 757.279C240.515 757.504 242.737 757.911 244.944 757.875C248.974 757.802 253.003 757.344 256.873 758.674C257.984 759.059 259.073 759.611 260.227 759.749C263.328 760.127 266.552 760.011 269.543 760.665C272.6 761.333 275.097 761.021 277.566 759.553C279.163 758.601 280.761 758.485 282.678 759.204C284.827 760.011 287.078 760.839 289.561 760.701C291.1 760.614 292.857 759.989 294.135 760.396C298.397 761.777 301.78 758.899 305.723 759.074C305.904 759.088 306.136 758.965 306.282 758.856C307.719 757.882 309.121 756.879 310.573 755.927C311.872 755.07 313.085 754.009 314.573 753.508C317.448 752.542 320.215 751.175 323.497 751.175C323.925 751.175 324.332 750.769 324.782 750.689C326.408 750.383 328.042 750.071 329.69 749.911C330.402 749.846 331.193 750.333 331.904 750.274C335.782 749.933 339.506 749.359 342.621 747.077C344.422 745.755 346.665 744.89 349.286 745.937C349.962 746.206 351.348 746.322 351.631 746.024C353.142 744.433 355.313 745.384 357.07 744.869C357.709 744.68 358.58 744.76 359.248 744.956C362.464 745.879 365.136 745.566 366.915 743.365C368.338 741.606 369.805 741.817 371.598 742.42C373.217 742.958 374.749 743.968 376.405 744.077C379.926 744.324 383.527 744.484 387.005 743.481C389.735 742.689 392.494 741.969 395.558 741.127C398.295 741.701 401.584 742.565 404.953 743.045C407.313 743.386 409.796 743.154 412.214 743.27C414.443 743.379 416.781 744.04 418.865 743.662C421.413 743.205 423.744 742.485 426.518 742.74C429.538 743.016 432.427 743.241 435.223 744.389C436.697 744.992 438.759 745.472 440.218 745.101C442.956 744.404 445.453 743.067 448.038 741.962C448.677 741.686 449.272 741.337 449.839 740.967C451.196 740.073 452.365 738.91 453.883 738.3C456.765 737.152 459.836 730.111 462.828 729.145C464.759 728.52 466.712 727.91 468.629 727.249C469.05 727.103 469.348 726.711 469.754 726.522C470.843 726.021 471.911 725.497 473 724.996V14.7648C471.061 15.0264 469.13 15.397 467.184 15.4188H467.235Z" fill="#EBEBEB"/>
    <path d="M470.502 15.8214C469.74 16.0539 468.956 16.1993 468.52 16.3083C467.242 16.7881 466.27 17.166 465.282 17.5149C464.404 17.8202 463.496 18.0455 462.625 18.3726C460.773 19.0631 458.987 20.197 457.092 20.3788C455.56 20.5314 453.912 19.5719 452.322 19.0849C452.039 18.9977 451.712 18.6707 451.523 18.7506C449.345 19.6083 447.414 18.5616 445.41 18.0528C444.815 17.9002 444.052 17.7548 443.544 17.9874C441.693 18.8305 439.987 18.4744 438.055 18.14C436.269 17.8275 434.192 18.3799 432.406 19.005C429.524 20.0226 426.823 21.5127 423.963 22.6029C422.765 23.0609 421.363 23.1917 420.064 23.1408C418.06 23.0609 415.969 22.9955 414.096 22.3922C411.779 21.6435 409.674 21.2292 407.416 22.4285C405.622 23.3807 403.771 24.2529 401.891 25.0306C400.867 25.4522 399.669 25.4595 398.66 25.9101C397.28 26.528 396.068 27.5092 394.681 28.1053C392.532 29.0211 390.303 29.7407 387.9 30.6201C387.537 30.2422 387.028 29.7116 386.295 28.9411C382.251 30.2567 378.033 31.7977 373.705 32.9461C372.348 33.3023 370.576 32.9025 369.218 32.3283C365.051 30.5548 360.992 28.4614 356.44 27.8363C353.231 27.4002 349.964 27.3493 346.74 26.9786C345.237 26.8042 343.64 26.5352 342.325 25.852C340.561 24.9361 338.804 24.6963 337.809 26.339C336.626 28.287 334.869 27.9308 333.395 27.8581C328.581 27.6328 323.789 26.9205 318.976 26.7169C317.015 26.637 315.302 26.1355 313.545 25.4813C313.08 25.3069 312.507 25.4522 311.991 25.3795C310.663 25.1978 309.341 24.987 308.02 24.7617C307.344 24.6454 306.676 24.4709 306.001 24.3546C305.508 24.2747 304.774 24.4419 304.535 24.1657C303.213 22.6683 302.015 23.6714 300.65 24.0639C297.303 25.0306 293.92 25.8956 290.5 26.5861C287.792 27.1385 285.026 27.5747 282.274 27.7055C279.203 27.8509 276.102 27.3856 273.038 27.5746C271.201 27.6909 269.459 27.7854 267.615 27.4729C266.548 27.2912 265.233 27.829 264.181 28.3451C261.509 29.6462 258.619 29.6317 255.954 29.1156C253.217 28.585 250.712 28.505 248.091 29.3336C247.372 29.559 246.523 29.3918 245.732 29.3773C244.381 29.3554 242.994 29.4717 241.68 29.2319C239.974 28.9193 238.341 28.2215 236.634 27.8654C235.509 27.6328 234.311 27.611 233.157 27.6764C230.325 27.8363 227.639 28.7158 224.655 27.6037C222.382 26.7533 220.051 28.316 218.127 29.7189C217.024 30.5257 216.072 31.0563 214.693 30.4457C214.257 30.2567 213.582 30.3003 213.132 30.4966C209.858 31.9503 206.503 32.3138 202.96 31.645C201.98 31.4633 200.687 31.6232 199.874 32.1393C198.763 32.8444 197.747 32.997 196.578 32.6917C194.335 32.103 191.96 32.4518 189.811 30.8964C187.931 29.5371 185.949 30.9909 184.112 32.0594C181.512 33.5712 178.761 34.836 175.646 36.4278V43.3838C175.646 43.3838 175.624 43.3838 175.61 43.3838C173.751 43.0058 172.996 42.388 171.05 42.8023C169.983 43.0203 169.01 44.0016 167.979 44.3069C166.912 44.634 166.338 44.5031 165.459 44.9756C163.143 46.2258 161.103 47.774 158.489 48.6244C154.917 49.8019 150.525 51.3138 147.541 53.5816C145.755 54.9408 144.723 56.9397 142.313 57.2668C140.563 57.4993 138.705 56.5254 137.035 56.271C134.566 55.9293 132.272 55.3115 129.716 55.3624C127.712 55.4133 127.69 55.108 126.296 54.2358C125.374 53.6543 124.401 53.349 123.334 53.0728C122.615 52.8765 120.887 52.9637 120.394 52.6948C118.92 51.8807 119.842 50.7541 119.421 49.155C116.168 48.559 113.866 46.611 110.519 46.1386C110.41 45.6443 110.338 45.1428 110.265 44.634C108.479 44.0161 106.569 44.9029 104.762 44.5249C103.789 44.3069 103.07 43.7472 102.148 43.3474C99.222 42.0391 95.7658 41.8574 93.0068 40.1493C90.0808 38.3321 87.6923 33.7893 83.7571 34.6251C80.6496 35.2793 77.905 36.9147 74.6886 37.2564C72.22 37.5326 69.519 37.22 67.036 37.22C64.7562 37.22 61.4817 37.8161 59.2745 37.2346C58.425 37.0165 57.9314 36.3478 57.14 36.1806C54.047 35.5628 51.1065 39.4151 48.9574 40.9052C47.4327 41.9737 45.2401 42.8314 43.5847 43.4492C40.6442 44.554 36.1716 45.7533 32.9552 45.2445C29.717 44.7139 30.3779 42.2499 28.0618 40.8689C25.1721 39.1607 20.7213 43.064 17.3742 40.8543C15.8277 39.8367 15.7405 37.2418 13.8237 36.4423C12.8871 36.0425 11.3988 36.8057 10.6437 36.2606C9.91035 35.7518 10.1136 34.8795 9.28586 34.2254C7.57238 32.8443 4.94412 33.9201 2.97652 33.3895C2.18513 33.1932 1.04551 32.6117 0 31.8485V370.746V730.925C1.53197 730.649 3.05662 730.242 4.66119 730.925C5.23477 731.172 6.12785 730.627 6.88295 730.562C9.17727 730.358 11.6892 729.58 13.7148 730.235C15.6026 730.845 17.4034 731.579 19.3928 731.601C20.8376 731.623 22.297 731.441 23.7346 731.223C25.6078 730.94 27.4517 730.474 29.3249 730.191C32.7955 729.675 36.2226 732.989 39.5116 731.369C41.0291 730.62 43.0766 729.297 45.1676 730.554C45.3201 730.649 45.5304 730.685 45.7047 730.678C51.789 730.315 57.2561 739.546 62.1642 735.708C63.7252 734.487 66.5205 734.479 68.7422 734.508C70.3541 734.53 71.3051 734.101 72.2998 733.004C72.9242 732.321 73.8173 731.616 74.6886 731.47C77.0773 731.07 79.5603 738.477 81.92 737.976C83.8585 737.569 85.6448 736.5 87.5543 735.89C88.6289 735.548 89.8121 735.504 90.952 735.41C91.5256 735.359 92.1283 735.446 92.7019 735.548C95.5698 736.064 97.5593 734.203 99.9117 733.164C102.366 732.081 105.081 732.015 107.884 732.212C111.659 732.473 115.282 731.834 118.411 729.028C120.234 727.393 122.935 726.724 125.207 725.554C125.744 725.277 126.137 724.725 126.594 724.303C126.899 724.02 127.175 723.707 127.516 723.46C127.865 723.206 128.504 726.76 128.62 726.448C130.028 722.632 133.782 724.042 136.417 723.09C137.935 722.537 139.554 722.254 141.173 721.985C141.311 722.065 141.456 722.145 141.616 722.21C142.756 722.661 144.027 722.559 145.167 723.06C145.718 723.315 146.473 724.238 147.076 724.311C147.846 724.093 148.622 723.824 149.377 723.511C150.408 723.293 151.476 723.22 152.521 723.279C153.77 723.264 154.968 723.264 156.144 723.511C156.732 723.642 157.357 724.107 158.134 724.238C159.201 724.434 160.725 723.751 161.742 724.405C162.7 725.038 162.33 726.15 162.955 726.767C163.303 727.116 165.162 727.545 165.568 727.654C167.797 728.163 171.638 728.454 173.715 727.691C173.736 726.586 174.484 725.51 175.428 724.892C177.047 723.838 176.975 724.652 178.906 725.052C183.596 726.033 181.52 720.349 184.845 719.622C186.13 719.332 187.626 720.022 188.889 719.637C190.232 719.223 191.743 717.674 192.97 716.933C193.892 716.388 193.449 716.352 194.48 716.01C195.032 715.836 195.736 716.003 196.382 715.945C197.275 716.192 198.132 716.57 198.901 717.318C199.729 718.118 201.305 718.452 202.554 718.481C206.046 718.583 209.553 718.35 213.052 718.372C215.005 718.387 216.915 718.714 218.142 720.516C218.301 720.749 218.628 721.062 218.846 721.04C220.661 720.844 221.51 722.29 222.788 723.046C223.87 723.686 225.17 725.081 226.76 723.656C227.043 723.402 227.609 723.359 228.045 723.351C230.978 723.344 233.912 723.402 236.845 723.38C238.326 723.366 239.807 723.104 241.281 723.191C243.045 723.293 245.02 723.206 246.494 723.976C248.52 725.038 250.531 724.187 252.506 724.703C253.856 725.052 255.403 725.067 256.789 724.827C259.185 724.405 260.899 725.612 262.721 726.702C263.295 727.044 263.861 727.531 264.486 727.632C266.94 728.047 269.43 728.25 271.869 728.715C272.595 728.854 273.213 729.573 273.881 730.024C273.91 729.849 273.939 729.675 273.96 729.493C275.79 729.406 277.62 729.319 279.609 729.224C279.682 729.573 279.754 729.958 279.841 730.365C281.475 730.845 283.29 731.15 284.888 731.914C286.543 732.699 288.039 732.611 289.665 732.117C290.645 731.819 291.647 731.587 292.649 731.405C293.048 731.325 293.738 731.303 293.876 731.521C295.125 733.476 297.107 733.505 298.995 733.28C302.269 732.895 305.297 733.869 308.426 734.436C312.122 735.097 315.788 735.991 319.658 735.461C321.502 735.206 323.455 735.781 325.358 735.904C328.073 736.086 330.818 736.049 333.504 736.406C334.913 736.595 336.183 737.707 337.584 737.896C338.637 738.041 339.799 737.343 340.924 737.103C341.977 736.885 343.059 736.609 344.126 736.653C346.428 736.74 348.954 737.183 350.791 735.788C352.113 734.792 353.361 734.022 354.922 733.796C357.478 733.433 360.056 733.178 362.626 732.938C364.245 732.786 366.016 733.135 367.454 732.582C369.952 731.623 371.999 732.742 374.221 733.236C374.991 733.411 375.847 733.607 376.581 733.44C379.521 732.764 382.425 732.059 384.792 729.915C385.831 728.977 387.355 728.577 388.633 727.887C389.577 727.378 390.492 726.804 391.414 726.251C391.631 726.128 391.842 725.917 392.067 725.903C394.543 725.714 396.205 723.918 398.267 722.951C400.809 721.759 403.655 721.207 406.646 720.291C406.675 720.131 406.719 719.993 406.777 719.87C410.683 718.99 414.618 718.169 418.474 718.808C420.623 719.15 423.44 718.627 425.371 717.863C427.673 716.955 426.918 716.468 428.297 714.396C429.619 712.434 429.844 713.597 431.274 714.92C432.632 716.17 434.163 716.7 435.855 716.955C437.089 717.137 438.6 716.504 439.478 717.791C440.088 718.699 439.202 719.659 440.437 720.458C441.322 721.018 442.368 720.349 443.268 720.516C444.299 720.713 444.299 721.062 445.105 721.498C447.697 722.893 448.728 722.37 451.473 721.011C454.065 719.702 454.616 720.778 457.252 721.323C459.757 721.847 461.761 720.378 464.208 720.793C464.338 720.829 465.457 721.411 465.732 721.498C466.524 721.774 467.998 721.985 468.825 722.188C470.611 722.603 471.57 723.388 473 724.187V15C472.18 15.2762 471.359 15.5597 470.531 15.8141L470.502 15.8214Z" fill="#D4D4D4"/>
    <path opacity="0.1" d="M143.481 274.029C143.478 274.029 143.475 274.03 143.473 274.031C141.862 275.071 140.192 276.157 138.487 277.266C136.809 278.358 134.792 276.599 135.685 274.807C152.355 241.363 176.449 216.672 212.763 200.7C214.506 199.933 214.441 197.118 212.744 196.253C210.584 195.151 208.758 194.008 207.098 193.298C206.337 192.972 205.757 192.287 205.787 191.46C205.793 191.3 205.8 191.14 205.808 190.98C205.854 189.957 206.569 189.028 207.572 188.821C227.013 184.822 246.321 179.484 265.945 177.418C299.448 173.855 332.726 176.835 364.775 188.307C385.862 195.859 404.449 206.785 415.826 227.587C416.6 229.004 419.581 230.379 421.113 230.889C421.755 231.103 422.418 231.341 423.05 231.517C424.518 231.924 427.143 232.565 427.858 233.91C428.564 235.238 428.184 235.05 429.61 238.315C436.677 254.559 427.552 268.92 409.079 269.973C381.622 271.551 354.145 272.545 326.606 273.779C325.167 273.844 324.268 275.363 324.912 276.652C329.194 285.219 333.874 294.002 337.714 303.133C342.858 315.411 342.79 326.86 333.979 338.645C323.199 353.096 326.822 369.811 331.34 385.786C332.87 391.189 335.202 396.347 337.985 403.207C338.599 404.72 337.224 406.275 335.641 405.875C326.311 403.518 318.194 401.651 310.339 398.982C307.991 398.176 305.844 394.367 305.128 391.544C301.975 379.333 299.403 366.988 296.607 354.687C292.358 336.046 281.422 331.565 265.856 342.342C249.083 353.97 241.971 370.953 246.779 389.998C252.37 412.112 260.824 433.621 269.412 454.838C278.201 476.482 289.652 497.027 298.128 518.76C306.56 540.426 300.566 559.986 283.099 575.131C255.978 598.609 224.068 605.903 189.301 603.384C187.471 603.252 186.828 600.933 188.309 599.849C194.086 595.622 199.766 591.471 205.441 587.324C205.932 586.965 205.988 586.258 205.57 585.818V585.818C205.288 585.521 204.862 585.415 204.478 585.554C189.358 590.993 174.591 598.098 159.02 601.368C128.917 607.686 99.8432 602.6 73.3858 586.424C49.2767 571.704 42.5897 548.156 55.3599 522.972C59.4973 514.794 64.3728 506.124 71.1269 500.253C100.536 474.667 113.933 441.082 120.732 404.18C128.692 360.899 135.938 317.462 143.496 274.046C143.497 274.037 143.49 274.029 143.481 274.029V274.029Z" fill="#222222"/>
</svg>
