<svg width="374" height="119" viewBox="0 0 374 119" fill="none" xmlns="http://www.w3.org/2000/svg">
    <path d="M372.473 40.5573C372.405 42.7191 372.506 44.8739 372.69 47.0287C372.759 47.8208 373.017 48.5187 373.693 49.0845C373.795 49.1694 373.847 49.299 373.916 49.4075C374.064 49.6409 374.026 50.1171 373.732 50.2797C373.168 50.5909 373.015 51.0177 372.932 51.5528C372.726 52.8778 372.636 54.1932 372.762 55.5323C372.886 56.8596 372.858 58.1964 372.88 59.5284C372.886 59.8561 372.748 60.1696 372.421 60.3535C372.086 60.5421 371.91 60.7873 371.812 61.1079C371.523 62.0392 371.372 62.9774 371.655 63.9252C371.952 64.9295 371.976 65.9291 371.707 66.9381C371.616 67.2776 371.388 67.4521 371.015 67.5982C370.372 67.8481 370.268 68.3715 370.724 68.8123C370.867 68.9514 371.119 69.0198 371.232 69.1683C371.336 69.3074 371.427 69.5856 371.342 69.6752C370.792 70.2433 370.713 70.9459 370.537 71.6155C370.452 71.9408 370.562 72.3345 370.924 72.4335C371.625 72.6245 371.79 73.0252 371.847 73.5769C371.908 74.1451 372.056 74.7039 372.155 75.2697C372.221 75.6563 372.32 76.0193 372.751 76.2386C373.309 77.1981 373.504 78.2236 372.842 79.1478C372.383 79.7891 372.235 80.4303 372.213 81.1258C372.18 82.1419 372.204 83.1579 372.196 84.174C372.196 84.3037 372.191 84.4334 372.191 84.5607L368.556 84.6338C368.6 84.7045 368.663 84.7729 368.757 84.8436C368.367 86.2628 369.534 85.9564 369.617 87.7457C364.93 89.5327 368.776 90.0278 367.675 90.5583C367.543 90.7021 365.576 91.3103 366.864 91.2584C366.787 91.3551 366.57 91.4895 366.304 91.6451C366.867 92.2227 367.548 94.467 364.807 94.3114C365.936 94.3751 373.135 100.804 364.021 108.615C366.021 112.149 363.557 110.354 365.809 113.827C365.694 113.91 363.42 113.794 361.013 113.702C360.977 113.874 360.947 114.049 360.909 114.221C360.796 114.728 360.453 114.954 359.796 114.933C358.835 114.902 357.876 114.829 356.917 114.791C356.178 114.761 355.44 114.751 354.701 114.747C354.684 114.747 354.665 114.747 354.648 114.747C354.55 114.765 354.44 114.775 354.319 114.78C354.159 114.813 354.014 114.881 353.909 115.011C353.569 115.426 353.094 115.527 352.55 115.47C351.303 115.338 350.047 115.244 348.811 115.051C348.295 114.971 347.775 114.923 347.256 114.895C346.949 115.008 346.641 115.143 346.333 115.305C345.902 115.157 345.452 115.018 344.985 114.888C344.636 114.923 344.29 115.022 344.078 115.282C343.724 115.716 343.268 115.779 342.721 115.727C341.397 115.602 340.073 115.482 338.749 115.36C338.353 115.322 338.007 115.409 337.768 115.683C337.477 116.017 337.073 116.121 336.623 116.18C335.719 116.295 334.851 116.126 333.991 115.942C333.813 115.904 333.582 115.725 333.541 115.576C333.365 114.959 332.785 114.862 332.211 114.735C331.541 114.586 331.049 114.737 330.772 115.31C330.747 115.36 330.667 115.388 330.566 115.461C329.802 115.539 328.992 115.48 328.184 115.414C327.006 115.317 325.827 115.22 324.649 115.112C323.879 115.041 323.19 115.176 322.569 115.584C322.338 115.734 322.067 115.954 321.822 115.947C320.981 115.916 320.734 116.512 320.284 116.913C319.715 117.076 319.119 117.017 318.542 116.982C316.699 116.864 314.858 116.708 313.015 116.555C312.411 116.505 312.216 116.317 312.045 115.706C312.013 115.584 311.977 115.461 311.944 115.338C310.757 114.817 310.573 114.718 309.678 114.798C308.617 114.895 307.628 114.74 306.626 114.473C305.997 114.306 305.326 114.242 304.67 114.155C304.2 114.091 303.983 114.24 303.706 114.747C303.379 115.341 303.258 115.404 302.541 115.35C302.024 115.312 301.511 115.253 300.994 115.22C300.626 115.197 300.258 115.202 299.915 115.192C299.346 115.518 298.951 115.994 298.168 115.954C297.302 115.909 296.66 116.383 296.116 116.892C295.259 116.965 294.459 116.819 293.652 116.743C292.844 116.666 292.034 116.604 291.223 116.552C290.905 116.531 290.646 116.661 290.523 116.918C290.366 117.239 290.133 117.432 289.699 117.425C289.108 117.415 288.518 117.427 287.927 117.434C287.254 117.441 286.611 117.493 286.045 117.882C285.834 118.026 285.501 118.094 285.221 118.101C282.919 118.158 280.639 117.967 278.384 117.559C278.005 117.491 277.706 117.316 277.585 116.977C277.464 116.64 277.192 116.446 276.796 116.392C276.148 116.305 275.503 116.222 274.854 116.138L274.95 115.456C271.135 114.961 266.41 114.994 264.366 114.299C266.726 114.433 261.6 111.654 260.998 111.618C259.229 110.755 255.356 107.848 254.392 110.748C254.392 110.711 250.126 113.749 250.178 111.967C247.36 114.728 243.863 111.786 241.588 110.661C241.613 109.838 240.877 110.036 239.973 110.545C239.965 110.689 239.932 110.833 239.913 110.977C239.885 111.17 239.61 111.406 239.377 111.427C239.11 111.453 238.844 111.481 238.578 111.486C238.556 111.486 238.534 111.486 238.512 111.486C237.547 112.156 236.734 112.762 236.743 112.49C235.517 113.867 234.059 112.884 232.641 111.639C232.342 111.663 232.04 111.689 231.74 111.722C231.279 111.774 230.801 111.727 230.331 111.717C229.123 111.691 227.917 111.644 226.708 111.639C225.936 111.639 225.247 111.491 224.683 111.019C224.422 110.8 224.101 110.746 223.763 110.736C221.884 110.689 220.005 110.652 218.126 110.604C217.387 110.586 216.651 110.569 215.915 110.52C215.478 110.491 214.951 110.621 214.712 110.112C214.682 110.05 214.47 110.024 214.344 110.027C212.935 110.048 211.528 110.076 210.119 110.112C209.85 110.119 209.602 110.164 209.487 110.435C209.451 110.517 209.292 110.602 209.179 110.614C208.05 110.736 206.919 110.852 205.784 110.953C205.507 110.979 205.224 110.868 205.084 110.675C204.803 110.289 204.383 110.185 203.914 110.1C203.172 109.968 202.441 110.024 201.713 110.145C201.54 110.173 201.326 110.293 201.243 110.425C200.991 110.831 200.554 110.967 200.095 111.057C199.507 111.17 198.908 111.255 198.31 111.302C197.788 111.342 197.458 111.547 197.214 111.936C197.079 112.149 196.769 112.224 196.505 112.167C196.082 112.076 195.546 112.144 195.365 111.623C195.329 111.524 195.041 111.458 194.857 111.434C194.055 111.328 193.261 111.399 192.483 111.5C192.346 111.677 192.233 111.819 192.121 111.96C191.956 112.165 191.72 112.259 191.439 112.271C190.887 112.297 190.346 112.257 189.967 111.866C189.684 111.576 189.349 111.467 188.923 111.437C188.525 111.408 188.132 111.314 187.742 111.239C187.47 111.187 187.281 111.036 187.113 110.843C187 110.713 186.83 110.609 186.662 110.529C186.553 110.475 186.404 110.468 186.27 110.463C184.058 110.39 181.855 110.126 179.636 110.258C178.432 110.329 177.224 110.385 176.032 110.194C175.892 110.043 175.76 109.914 175.644 109.777C175.485 109.586 175.32 109.402 175.012 109.409C174.441 109.423 173.999 109.246 173.598 108.876C173.175 108.487 172.603 108.311 171.955 108.351C170.952 108.414 169.944 108.454 168.942 108.513C168.395 108.546 167.89 108.655 167.511 109.051C167.291 109.282 166.936 109.348 166.599 109.367C165.928 109.404 165.258 109.435 164.588 109.442C162.841 109.459 161.099 109.567 159.374 109.812C159.05 109.857 158.627 109.909 158.451 110.098C157.957 110.626 157.308 110.637 156.635 110.659C155.965 110.682 155.292 110.703 154.622 110.722C154.207 110.734 153.847 110.656 153.534 110.38C153.028 109.942 152.336 109.9 151.669 109.838C151.237 109.8 150.938 109.645 150.691 109.327C150.559 109.159 150.273 109.058 150.031 108.982C149.452 108.801 148.839 108.855 148.235 108.86C145.84 108.881 143.444 108.898 141.049 108.912C139.143 110.284 135.992 109.1 133.808 108.195C130.97 108.212 128.133 108.223 125.295 108.247C124.018 108.702 122.718 109.188 122.224 109.789C121.858 109.876 121.479 109.937 121.092 109.984C121.037 110.067 120.985 110.152 120.93 110.239C120.282 110.425 119.568 110.494 118.829 110.456C117.617 110.392 116.417 110.487 115.31 110.647C114.936 110.767 114.917 111.024 114.777 111.21C114.678 111.345 114.527 111.488 114.359 111.543C113.593 111.795 112.791 111.811 111.978 111.795C111.107 111.776 110.239 111.795 109.398 112.068C109.066 112.177 108.816 112.292 108.684 112.599C108.558 112.898 108.234 113 107.885 113.04C107.604 113.073 107.352 113.169 107.267 113.412C107.107 113.853 106.78 114.065 106.247 114.103C105.915 114.127 105.58 114.178 105.259 114.261C105.08 114.306 104.844 114.412 104.789 114.539C104.605 114.98 104.272 115.173 103.739 115.187C103.069 115.206 102.399 115.244 101.729 115.296C101.33 115.327 100.935 115.395 100.539 115.461C100.264 115.506 100.034 115.631 99.9431 115.869C99.803 116.239 99.5174 116.43 99.0778 116.491C98.3362 116.593 97.6604 116.8 97.1686 117.338C97.0588 117.46 96.8418 117.536 96.6577 117.578C96.2045 117.679 95.7403 117.738 95.2843 117.833C95.092 117.873 94.8392 117.908 94.7404 118.024C94.2404 118.615 93.4822 118.62 92.7625 118.707C92.4191 118.75 92.0758 118.66 91.9 118.38C91.7242 118.101 91.4742 117.974 91.1253 117.903C88.9222 117.458 86.7219 117.578 84.538 117.962C84.1342 118.033 83.5986 118.116 83.4804 118.611C82.953 118.872 82.4146 119.094 81.7746 118.96C81.2005 118.839 80.5468 118.858 80.2309 118.295C79.6485 118.174 79.0661 118.054 78.4837 117.934C78.2282 117.88 77.8903 117.894 77.7283 117.755C76.8685 117.026 75.7944 117.069 74.7231 117.059C73.3826 117.045 72.0393 117.024 70.6988 117.007C70.3417 117.003 70.0506 116.887 69.85 116.626C69.5204 116.196 68.9957 116.076 68.46 116.022C67.7953 115.954 67.125 115.935 66.4712 115.895C66.3091 115.749 66.1525 115.635 66.0371 115.499C65.8723 115.303 65.6828 115.159 65.3944 115.133C65.2598 115.121 65.1252 115.105 64.9933 115.11C63.5182 115.147 62.0431 115.187 60.568 115.228C60.2164 115.237 59.9086 115.334 59.7136 115.6C59.4773 115.918 59.134 116.053 58.711 116.1C58.1808 116.161 57.6479 116.232 57.1233 116.321C56.725 116.39 56.3431 116.51 56.0958 116.814C55.8926 117.066 55.6262 117.215 55.2636 117.224C54.5246 117.246 53.7856 117.253 53.0522 117.295C52.4066 117.333 52.0633 117.026 51.8215 116.581C51.5386 116.378 51.1898 116.39 50.8684 116.378C50.1322 116.347 49.3877 116.298 48.657 116.35C45.5062 116.569 42.3473 116.47 39.1937 116.555C38.5922 116.571 37.9878 116.517 37.3862 116.486C37.0923 116.472 36.8753 116.324 36.7846 116.095C36.639 115.732 36.3809 115.515 35.9304 115.466C35.6364 115.433 35.4496 115.275 35.3535 115.044C35.2271 114.74 34.9826 114.567 34.6145 114.553C33.9443 114.53 33.2713 114.534 32.601 114.513C31.9994 114.492 31.395 114.466 30.7961 114.409C30.5379 114.386 30.2111 114.351 30.049 114.207C29.5271 113.745 28.8624 113.709 28.2003 113.655C27.6674 113.61 27.1263 113.591 26.5906 113.598C24.0414 113.629 21.4867 113.622 18.9485 113.884C17.8716 113.995 16.8031 113.947 15.7538 113.728C15.4351 113.662 15.1 113.565 14.8473 113.398C14.6578 113.273 14.5863 113.011 14.4353 112.766C13.9188 112.688 13.3996 112.594 12.8749 112.54C12.4519 112.498 12.1113 112.389 11.8723 112.059C11.7762 111.927 11.5756 111.793 11.4026 111.769C10.7021 111.675 10.5922 111.267 10.5812 110.767C10.5702 110.192 10.5262 109.617 10.5125 109.039C10.5015 108.688 10.4933 108.336 10.4823 107.988C9.2764 107.134 8.3369 106.467 8.18307 106.439C8.249 104.505 9.71595 104.791 9.7599 103.379C9.68299 101.052 11.1196 98.0435 9.25718 96.3673C6.93873 95.0848 7.88361 93.4368 7.86438 91.2278C8.82033 88.4671 3.88402 88.3375 6.57056 85.7842C7.82868 84.7257 7.24364 83.5092 6.91675 82.3705C6.36186 81.3379 7.80404 80.7509 7.3453 79.7678C7.91667 79.2256 6.15853 78.5891 7.68035 78.094C7.52378 77.5706 8.42488 77.2476 8.59794 76.7549C7.2217 76.3399 9.11987 76.0453 8.87813 75.6257C9.06493 74.4657 11.1444 73.7349 10.6307 72.608C13.5315 72.1294 13.9215 71.8536 13.5562 69.3122C12.32 67.4851 19.833 66.535 19.1023 64.3401C18.0145 63.7908 21.201 63.4866 18.9018 62.9586C20.0006 62.2419 17.0475 62.0886 18.4457 61.3154C18.6573 60.8321 17.1162 60.3771 18.215 59.9221C18.2837 59.5119 18.2646 59.1252 18.2179 58.7527L6.05698 59.0003C6.05698 58.5217 6.03766 58.0408 6.03217 57.5622C6.02667 57.251 6.18877 57.0176 6.47171 56.829C6.81508 56.6026 6.93599 56.2679 6.99643 55.9237C7.07609 55.4687 7.13375 55.0113 7.18045 54.5516C7.21616 54.1885 7.35618 53.8844 7.71603 53.6699C8.01545 53.4883 8.11439 53.222 8.1089 52.9202C8.08692 51.7202 8.06495 50.5179 8.04022 49.3179C4.05436 47.6982 0.623342 46.055 1.40348 44.2562C3.08738 42.1934 -0.101748 40.5478 2.61776 39.619C2.47492 39.4657 1.82928 39.2653 3.41154 39.0626C2.69458 38.6052 4.83174 37.8367 3.49121 37.3204C3.60933 37.1435 3.71094 36.9644 3.80159 36.7876C3.73566 36.5942 3.66974 36.4033 3.60656 36.21C2.9363 35.9648 2.92817 35.406 2.76061 34.918C2.57381 34.3758 2.80447 33.9043 3.08467 33.4375C3.65604 33.3126 3.7248 32.8505 3.79072 32.4992C4.1341 30.6084 4.16977 28.7153 3.54621 26.8482C3.44731 26.5511 3.28802 26.346 2.95563 26.2069C2.62325 26.0678 2.50231 25.7802 2.53527 25.4832C2.6012 24.8631 2.57106 24.2124 3.23583 23.7551C3.36768 23.6655 3.39514 23.4462 3.43085 23.2812C3.51876 22.8852 3.56541 22.4844 3.66156 22.0907C3.70002 21.9304 3.77973 21.7418 3.91707 21.6404C4.51866 21.1948 4.72743 20.6054 4.80984 19.9642C4.85929 19.5846 5.07074 19.33 5.49377 19.1933C5.76572 19.106 5.90036 18.9009 5.93881 18.6628C5.9965 18.321 6.05686 17.9791 6.07335 17.6349C6.07335 17.5996 6.07341 17.5642 6.07616 17.5288C6.00749 17.4392 5.93061 17.3544 5.83996 17.2742C5.87292 16.9182 5.96631 16.5599 6.10366 16.2016C6.10366 16.1025 6.10366 16.0059 6.10366 15.9069C6.09542 15.4801 6.28214 15.1949 6.71891 15.0133C6.85077 14.8106 6.99369 14.6078 7.14477 14.4074C7.19971 14.1764 7.23807 13.9407 7.24631 13.7073C7.26279 13.2499 7.49628 12.9576 8.00173 12.802C8.27917 12.7171 8.38087 12.4955 8.40559 12.2527C8.43581 11.9533 8.54019 11.668 8.88082 11.5478C9.23243 11.4228 9.35333 11.2012 9.46321 10.9112C9.7434 10.178 9.72141 9.43304 9.65823 8.68806C9.60054 7.99258 9.58411 7.30419 9.83957 6.63465C9.89451 6.49084 10.0565 6.35411 10.2076 6.26217C10.4191 6.13251 10.7158 6.1042 10.8394 5.77886C10.8668 5.58555 10.8888 5.38751 10.9081 5.18948L18.5117 5.03387C20.0583 4.39498 21.7943 4.00128 24.1045 3.54156C24.8325 3.51563 25.3709 4.15218 25.7939 4.88538L33.3536 4.73213C36.3258 4.2229 39.2432 3.66887 42.0561 2.71879C42.5807 3.36475 43.6603 4.05788 44.7399 4.5011L47.6846 4.44216C47.7834 4.18519 47.7643 3.82211 47.594 3.3341C48.3275 4.33134 52.4396 2.83903 52.8626 3.23274C53.7169 1.54474 62.6694 4.40208 63.5347 2.05397C63.5017 3.13372 64.3231 4.42093 64.3396 3.84098C64.3835 2.32508 69.4462 -1.45641 69.383 0.597002C70.9378 1.74984 85.9198 5.76708 88.0239 3.13135C88.0349 2.72586 94.1305 1.74042 94.0508 4.3785C95.7567 7.22876 103.292 6.10186 105.805 7.65076C105.822 7.09438 111.489 5.18476 111.453 6.39418C111.456 6.28337 116.683 6.3942 116.735 4.64962C116.757 3.87164 122.152 6.04057 122.199 4.5011C122.205 4.32192 123.089 4.23704 124.141 4.13567C124.144 4.11209 124.149 4.09087 124.152 4.06729C124.18 3.87397 124.454 3.63824 124.688 3.61702C124.954 3.59109 125.221 3.5628 125.487 3.55572C126.133 3.54393 126.778 3.5392 127.427 3.53212C127.553 3.45197 127.63 3.36004 127.633 3.25395C127.63 3.35061 127.657 3.44021 127.707 3.52979C129.248 3.51565 130.789 3.48499 132.324 3.31525C132.786 3.26338 133.264 3.31054 133.734 3.31997C134.201 3.3294 134.665 3.34352 135.132 3.35531C136.472 2.39108 137.555 2.76592 138.629 3.59106C138.898 3.68772 139.151 3.82447 139.379 4.01543C139.64 4.23468 139.961 4.28889 140.299 4.29832C142.178 4.34547 144.057 4.38321 145.936 4.43036C146.675 4.44922 147.411 4.46572 148.147 4.51523C148.584 4.54352 149.111 4.41385 149.35 4.92308C149.38 4.98437 149.592 5.0103 149.718 5.00794C151.128 4.98673 152.534 4.95844 153.943 4.92308C154.212 4.916 154.46 4.87121 154.575 4.6001C154.611 4.51758 154.77 4.43271 154.883 4.42092C156.012 4.29833 157.143 4.18282 158.278 4.08145C158.555 4.05552 158.838 4.1663 158.978 4.35962C159.259 4.74626 159.676 4.85 160.149 4.93488C160.89 5.0669 161.621 5.0103 162.349 4.89007C162.525 4.86178 162.736 4.74156 162.819 4.60953C163.071 4.20404 163.508 4.06729 163.967 3.9777C164.555 3.86454 165.154 3.77969 165.752 3.73254C166.274 3.69246 166.604 3.48734 166.849 3.09835C166.983 2.88617 167.294 2.81073 167.557 2.86731C167.98 2.95926 168.516 2.8909 168.697 3.41192C168.733 3.51093 169.021 3.57693 169.205 3.6005C170.008 3.70659 170.801 3.63586 171.579 3.53448C171.716 3.35767 171.829 3.21623 171.941 3.07478C172.106 2.86967 172.342 2.77538 172.623 2.76359C173.175 2.73766 173.716 2.77773 174.095 3.16908C174.378 3.45906 174.713 3.56749 175.139 3.59814C175.537 3.62643 175.93 3.72073 176.32 3.79617C176.592 3.84803 176.782 3.99893 176.949 4.19225C177.062 4.32191 177.232 4.42563 177.4 4.50579C177.51 4.56001 177.658 4.56709 177.792 4.57181C180.004 4.64489 182.207 4.90893 184.426 4.77691C185.63 4.70618 186.838 4.64961 188.03 4.84057C188.171 4.99145 188.302 5.12112 188.418 5.25786C188.577 5.44882 188.742 5.63269 189.05 5.62562C189.621 5.61147 190.063 5.78829 190.464 6.15842C190.887 6.54742 191.459 6.72423 192.107 6.68415C193.11 6.6205 194.118 6.58043 195.12 6.52149C195.667 6.48849 196.172 6.38003 196.552 5.98397C196.771 5.75293 197.126 5.68693 197.464 5.66807C198.134 5.63035 198.804 5.59971 199.474 5.59264C201.224 5.57614 202.963 5.46767 204.688 5.22249C205.012 5.1777 205.433 5.12584 205.611 4.93724C206.106 4.40915 206.754 4.39736 207.427 4.37614C208.097 4.35257 208.77 4.33134 209.44 4.31248C209.855 4.3007 210.215 4.37848 210.528 4.65431C210.874 4.95608 211.311 5.06925 211.764 5.13054C213.146 4.6331 214.412 4.03665 215.272 3.48498C215.231 4.90422 220.502 1.86299 220.472 2.85787C220.445 3.74666 225.661 4.0178 225.708 2.43589C225.7 2.67165 231.142 2.66927 231.111 3.65C231.136 2.82486 236.295 3.71603 236.309 3.2233C238.676 2.01153 243.918 1.12746 246.731 0.903493C246.794 -1.18529 251.942 4.39028 251.991 2.69286C251.969 3.4402 257.296 1.50701 257.309 1.03314C257.331 0.255153 262.38 5.55962 262.452 3.10306C265.729 0.908198 268.517 7.53288 274.145 1.95731C277.107 4.51759 281.384 2.89796 285.07 2.77772C292.509 5.67278 293.078 4.05786 301.195 4.07201C307.922 3.57928 311.702 4.79813 317.311 5.59969C321.347 5.53368 329.079 7.95017 333.793 4.9726C336.266 5.90383 342.842 2.71409 346.031 3.29404L352.668 3.22566C353.522 2.9569 354.294 2.55139 354.942 1.9738C357.104 0.0476874 358.101 1.07087 358.989 3.16436C358.989 3.16436 364.977 4.95845 364.969 6.17258C364.963 7.18868 364.961 8.20476 364.985 9.22086C364.988 9.39296 365.076 9.61929 365.221 9.72302C365.595 9.98942 366.23 9.93757 366.372 10.501C366.488 10.9607 365.216 17.5312 365.73 17.708C366.114 17.84 366.106 18.2172 366.169 18.5284C366.224 18.7972 366.381 18.9905 366.716 19.0495C367.12 19.1202 367.375 19.3158 367.408 19.6813C367.479 20.4404 367.545 21.1995 367.617 21.9586C367.65 22.2911 367.784 22.5858 368.161 22.7296C368.614 22.904 368.834 23.2199 368.916 23.6089C369.037 24.17 369.152 24.7311 369.218 25.2969C369.273 25.7637 369.405 26.1574 369.916 26.412C370.191 26.5488 370.243 26.8128 370.303 27.0651C370.476 27.8101 370.647 28.5574 370.853 29.2977C370.899 29.4627 371.067 29.6914 371.226 29.7267C371.825 29.8588 372.034 30.1817 372.122 30.6721C372.199 31.1059 372.394 31.5255 372.539 31.9522C372.864 32.0984 373.185 32.2422 373.55 32.4073C373.602 32.834 373.696 33.2725 373.707 33.7133C373.74 35.0477 373.754 36.3821 373.751 37.7141C373.751 38.0276 373.696 38.3483 373.611 38.6524C373.561 38.8292 373.449 39.0673 373.287 39.1309C372.534 39.4209 372.468 39.9749 372.451 40.562L372.473 40.5573ZM338.801 5.71993C338.859 5.71285 338.892 5.70816 338.889 5.70816C338.743 5.69873 338.721 5.70578 338.801 5.71993ZM269.552 115.187C269.654 115.192 269.704 115.192 269.72 115.187C269.599 115.187 269.536 115.187 269.552 115.187Z" fill="white"/>
    <path d="M364.813 86.6392C364.786 88.6699 365.706 90.1818 363.426 91.3634C361.591 92.9059 362.989 95.6678 362.907 97.8046C362.948 99.1018 364.387 98.8376 364.445 100.614C364.011 100.687 357.259 105.588 356.034 105.543C351.356 105.324 345.706 104.531 341.127 105.635C339.778 103.357 338.856 102.729 336.076 103.187C333.983 103.566 329.722 103.571 327.604 103.328C324.091 102.394 319.455 103.784 315.944 102.866C312.827 105.147 311.772 105.076 308.349 103.291C302.369 105.321 295.027 107.649 289.314 103.682C287.333 104.024 283.487 104.956 281.565 105.538C279.576 105.187 275.805 105.309 273.832 105.762C270.808 104.1 266.309 104.814 263.092 103.743C259.892 103.701 255.679 104.628 252.498 103.925C251.564 102.861 247.666 102.194 246.71 101.357C246.735 102.279 242.389 101.47 242.403 101.993C240.293 102.765 235.742 104.967 233.588 102.798C233.608 103.529 229.413 100.227 229.427 100.748C229.408 100.099 225.095 100.958 225.087 100.63C225.038 98.8707 220.942 100.807 220.906 99.5877C219.189 102.753 214.413 97.9933 211.877 100.576C209.823 98.3471 205.807 99.123 203.343 99.1985C203.324 98.5192 198.954 98.4391 198.97 99.057C198.959 98.6112 194.792 100.137 194.732 97.9886C194.743 98.3754 190.356 99.0476 190.328 98.0475C190.298 96.9862 185.964 99.6348 185.936 98.6607C185.939 98.7645 181.582 97.5475 181.626 99.1089C181.624 98.9745 177.067 96.8517 177.094 97.7716C177.034 95.6253 172.872 96.8918 172.924 98.8282C172.886 97.4579 168.796 99.3848 168.807 99.7787C168.796 99.4107 164.794 100.088 164.819 101.019C164.813 100.772 160.575 102.133 160.555 101.472C160.555 101.387 156.342 103.894 156.29 101.967C156.29 101.993 152.557 103.878 152.554 103.828C152.57 104.446 148.046 104.038 148.038 103.677C145.992 102.71 142.536 109.213 140.086 106.63C140.102 107.239 135.282 103.015 135.337 104.956C133.098 105.993 129.656 108.706 126.901 106.173C126.945 107.81 122.77 105.029 122.77 105.062C121.833 102.399 118.021 105.076 116.282 105.873C115.689 105.906 110.648 108.47 112.966 108.343C109.928 109.312 100.88 108.769 97.9852 110.668C94.5461 111.239 86.6545 111.529 87.9565 109.968C89.1706 109.902 86.6462 109.281 85.0009 108.873C70.58 108.052 44.4933 105.557 32.5061 109.435C28.1606 107.269 23.5431 110.352 23.7353 108.095C23.642 107.578 13.638 108.281 13.3935 108.119C15.6185 104.925 13.1902 106.576 15.168 103.326C14.3659 102.274 16.5552 101.637 16.5332 101.533C16.8134 101.574 15.9865 100.939 16.6952 99.8258L16.6129 96.8022C14.1462 95.7692 12.7645 94.1559 15.2036 92.7762C13.9511 92.8446 13.3414 90.2455 14.4511 90.1841C11.7592 90.3327 12.4349 88.269 12.9925 87.7383C12.7315 87.5968 12.52 87.4718 12.4431 87.3845C13.7094 87.4317 11.7784 86.8751 11.6493 86.743C10.5725 86.2571 14.3494 85.7949 9.75396 84.1628C9.84461 82.5189 10.9873 82.7971 10.611 81.4952C11.4872 80.8749 9.87484 80.2641 10.5945 79.6556C12.3497 77.6603 9.17989 78.8443 10.7374 78.165C9.0865 77.7287 11.2125 77.6461 10.4187 75.6201C9.45453 75.0706 11.1439 74.6625 11.9488 73.4715C12.0504 72.9455 11.2483 72.3394 11.9433 71.7804C11.1961 71.2474 12.7591 71.1696 12.1438 70.7497C11.5807 70.1271 7.6829 68.9832 7.41097 68.1459C9.46835 66.6883 5.54576 64.1906 6.75712 62.8108C-0.0110945 61.3745 4.55967 60.4381 1.77163 58.6197C4.18061 57.2895 0.486191 50.886 0 50.912C0.508165 50.8837 2.76596 48.2917 2.15616 48.327C0.944805 48.3931 1.84853 45.4661 0.79374 45.5251C6.34236 41.0887 5.30954 45.7916 4.02128 40.808C5.44139 40.7302 5.86991 38.3292 4.79315 38.3881C3.10934 38.4801 5.01292 35.8763 4.60914 35.8998C4.0323 35.9329 6.24077 33.4753 5.71887 33.5059C5.08435 33.5413 10.0588 31.2535 9.1441 31.303C7.496 31.395 9.41888 29.0271 10.5423 28.9634C12.2701 28.8667 8.7514 26.7086 11.2345 26.5718C7.47412 25.6072 9.08098 24.001 11.6026 22.8831C11.1246 22.0764 10.1605 20.8901 11.2482 21.3004C11.5339 20.0811 11.6136 19.2745 10.5067 18.107C15.4839 14.2862 23.1338 11.2578 27.6771 9.3285C33.4674 9.23887 40.1368 9.82848 45.2047 8.03363C49.8194 10.7601 57.4199 8.52186 61.3809 8.57611C66.8883 7.82845 70.602 6.69871 77.2054 7.13976C85.1739 7.11146 85.7261 8.59497 93.0382 5.91802C96.6558 6.0218 100.85 7.50062 103.765 5.14208C109.269 10.2554 112.03 4.16328 115.238 6.17276C115.301 8.42989 120.273 3.54532 120.295 4.25996C120.306 4.69393 125.528 6.46049 125.509 5.77415C125.553 7.33551 130.626 2.20331 130.678 4.12081C133.439 4.31893 138.581 5.12085 140.899 6.22937C140.913 6.68221 145.978 5.852 146 6.61145C145.975 5.71048 151.315 5.7034 151.31 5.48642C151.351 6.93928 156.471 6.67984 156.449 5.86378C156.424 4.94866 161.586 7.73411 161.55 6.42984C163.824 7.79543 169.032 9.47235 171.425 8.74828C171.463 10.1776 176.273 10.6398 176.267 10.437C176.276 10.7436 181.484 10.0667 181.503 10.779C181.459 9.16338 187.027 11.6776 186.991 10.4323C187.013 11.2766 191.633 11.7837 191.655 12.5573C191.6 10.5738 197.605 11.8451 197.58 10.9795C197.588 11.2366 202.717 9.86152 202.763 11.5314C202.719 9.9653 204.458 10.9087 205.777 12.1634C205.62 9.55489 211.004 11.8734 211.004 11.4512C210.993 11.0384 216.726 14.3734 216.66 12.0361C216.638 11.2318 221.359 8.46526 221.403 10.1398C221.403 10.1092 226.548 8.74357 226.567 9.40632C226.633 11.8144 231.902 7.74589 231.957 9.68697C236.124 8.59261 237.766 2.00521 242.288 8.3497C242.277 7.90629 247.608 7.26004 247.575 6.04067C247.6 6.89211 252.893 6.76948 252.904 7.17751C252.943 8.59263 258.247 6.58785 258.266 7.30249C258.31 8.9063 263.441 8.79309 263.444 8.8945C263.414 7.78363 268.97 9.52895 268.984 10.0384C271.454 8.61147 278.848 9.63273 280.532 7.01003C280.466 4.58544 286.443 5.47933 286.454 5.85198C288.509 8.26948 292.558 -0.115116 294.931 3.58072C294.95 8.09734 303.232 4.54772 304.762 3.48402C304.71 1.59718 309.662 5.06188 309.701 6.45578C309.714 6.98881 315.301 4.99583 315.274 4.00288C316.114 6.15859 324.913 3.51467 325.745 5.06423C326.162 4.70101 330.192 6.06425 330.914 5.14677C329.821 8.03363 346.475 6.50532 351.749 7.55959C352.23 6.60909 357.611 8.04308 356.314 12.4111C356.542 14.9748 357.199 15.1706 357.487 18.2815C355.641 19.8264 358.314 23.034 357.902 24.8807C357.603 26.152 359.506 26.0294 358.476 27.7204C360.078 30.3455 357.589 33.6781 359.715 36.6947C358.396 37.1711 360.492 37.874 359.786 38.2961C361.338 38.4801 360.704 38.6641 360.564 38.8056C363.228 39.6547 360.094 41.1712 361.739 43.0627C363.489 46.8576 357.726 49.5464 359.427 53.2894C360.229 54.5724 359.298 55.681 359.545 57.0843C360.624 57.4994 359.108 57.9193 359.314 58.365C360.682 59.0726 357.784 59.2188 358.861 59.8745C356.603 60.3627 359.729 60.6363 358.658 61.1434C357.932 63.1599 360.525 64.8298 359.308 66.5091C358.94 68.8464 359.319 69.0987 362.168 69.5327C361.66 70.5705 363.698 71.2356 363.877 72.3016C363.64 72.6861 365.5 72.955 364.148 73.3371C364.313 73.7899 365.198 74.0847 365.044 74.5659C366.535 75.0163 364.808 75.606 365.365 76.1036C364.912 77.0093 366.327 77.5447 365.777 78.4952C365.453 79.5424 364.874 80.6603 366.104 81.632C368.733 83.9741 363.885 84.1038 364.813 86.6369V86.6392ZM27.6771 9.32614C27.5645 9.31199 27.3914 9.31199 27.1497 9.32614C27.2266 9.32142 27.4134 9.32378 27.6771 9.32614ZM107.874 109.175C107.89 109.175 107.827 109.175 107.709 109.175C107.725 109.18 107.775 109.18 107.874 109.175ZM40.2219 8.71997C40.2219 8.71997 40.2521 8.7247 40.307 8.73178C40.384 8.71763 40.3647 8.7129 40.2219 8.71997Z" fill="#A4A4A4"/>
</svg>
