<svg width="482" height="780" viewBox="0 0 482 780" fill="none" xmlns="http://www.w3.org/2000/svg">
    <path d="M481.344 97.2873C480.831 96.5744 479.337 96.4935 478.661 96.7213C478.005 96.9419 477.636 97.6916 476.93 97.8974C475.898 98.1988 475.473 97.9562 474.71 97.405C473.591 96.5964 472.122 96.9933 470.89 97.0668C470.109 97.1109 469.365 97.2065 468.746 96.6699C468.114 96.1113 467.514 95.7217 466.739 95.4204C465.351 94.8764 461.812 94.7662 461.606 94.3398C461.231 93.5681 455.498 89.5989 455.41 88.9006C455.273 87.8348 453.259 87.5628 452.509 87.4232C451.64 87.2615 451.128 87.5334 450.296 87.6363C449.114 87.776 447.976 86.894 446.738 87.2468C445.701 87.5481 445.507 88.9815 444.457 89.2534C443.731 89.4372 442.75 89.1505 442.337 88.4228C442.112 88.0186 442.081 87.2541 441.868 86.7764C441.224 85.343 439.905 85.0858 438.567 84.7256C438.555 84.3214 438.48 83.9023 438.536 83.4907C438.573 83.1673 438.836 82.7484 438.711 82.4029C438.411 81.6017 436.835 81.8884 436.329 82.1309C435.722 82.4176 435.372 83.1306 434.616 82.9542C433.584 82.7043 433.578 81.5796 432.54 81.3885C431.327 81.1607 430.208 81.7561 429.064 81.6311C428.158 81.5356 427.551 80.9402 426.526 81.5649C425.525 82.1824 425.275 83.2555 423.944 83.3584C423.062 83.4319 420.661 83.1673 420.861 81.4841C420.986 80.433 421.418 79.8817 420.374 79.5951C419.492 79.3525 413.778 78.1103 412.465 77.8016C410.983 77.4414 408.814 75.4715 408.564 75.1114C407.907 74.1779 406.788 74.7953 406.038 74.3984C405.238 73.9794 405.844 72.2521 405.344 71.4877C404.937 70.8776 402.718 70.9511 402.28 71.4068C401.405 72.3256 399.761 71.811 398.936 71.0099C398.498 70.5909 398.323 70.2969 397.741 70.1131C396.735 69.7971 395.572 70.0837 394.603 69.628C393.884 69.2899 389.107 65.5927 388.251 65.1884C386.969 64.5857 386.056 65.2178 384.856 65.5412C383.412 65.9308 382.499 65.3134 381.536 64.3652C380.53 63.3729 379.21 63.1964 377.941 63.1964C376.878 63.1964 376.066 63.3214 375.203 62.5423C374.671 62.0571 374.109 61.675 373.471 61.3883C372.258 60.8444 370.883 61.3074 369.676 60.9031C368.863 60.6312 368.457 59.6609 367.569 59.5213C366.469 59.3522 365.193 60.2196 364.506 59.0803C364.337 58.801 359.141 57.3235 358.835 57.4264C358.06 57.6837 356.997 57.1104 356.484 56.3974C356.228 56.0372 352.327 55.1993 351.551 54.8906C351.051 54.6921 350.62 54.06 350.226 53.6484C349.645 53.0456 349.282 52.8692 348.519 52.6487C348.113 52.5311 347.525 52.4429 347.175 52.2224C346.875 52.0533 347.025 52.0313 346.837 51.7814C346.45 51.2522 346.35 50.5539 345.931 50.0908C345.343 49.444 344.068 48.8265 343.249 48.7751C342.161 48.7089 340.917 49.7894 340.079 50.4951C339.029 51.3845 337.416 52.759 336.146 51.3477C335.621 50.7523 336.015 49.9952 335.69 49.466C335.409 49.025 334.465 49.0985 334.071 49.1793C332.714 49.4366 331.901 50.8993 330.588 51.1492C329.494 51.355 327.769 50.5392 327.15 49.4219C326.85 48.878 325.062 47.0551 324.518 47.1948C324.167 47.283 323.724 47.6725 323.392 47.8489C322.498 48.3194 322.042 47.9886 321.135 47.5476C319.641 46.842 318.328 47.5035 316.765 47.5182C315.377 47.5329 314.077 47.6652 312.883 46.9449C312.076 46.4597 311.751 45.7688 311.157 44.997C310.626 44.3061 309.65 43.7328 308.844 43.6078C308.212 43.5123 307.718 44.0194 307.043 44.0562C306.255 44.0929 305.443 43.5123 304.955 42.9536C304.492 42.4171 304.217 42.0201 303.455 42.101C302.854 42.1671 302.679 42.689 302.142 42.7846C301.266 42.9463 301.385 41.8363 300.723 41.5497C300.035 41.2483 298.959 41.9834 298.684 42.6596C298.39 43.3726 297.315 43.1962 296.646 43.2109C296.24 43.2109 295.677 43.0124 295.333 43.2403C294.783 43.6078 294.827 44.578 294.302 44.9235C293.958 45.1514 293.464 45.0558 293.089 45.0705C292.163 45.1073 290.788 45.4969 289.919 45.2175C289.519 45.0926 289.144 44.6736 288.718 44.6148C288.275 44.5487 287.762 44.8574 287.287 44.8721C286.612 44.9088 286.499 44.6368 285.911 44.2179C285.011 43.5784 284.192 43.696 283.173 44.0268C282.485 44.262 282.198 44.3428 281.729 44.8868C281.46 45.1955 281.397 45.3425 280.985 45.4527C280.241 45.6512 278.597 44.6663 278.19 44.7618C277.771 44.8574 265.855 24.5557 264.811 24.8571C264.342 24.9967 264.398 25.2834 264.029 25.548C263.71 25.7759 262.91 25.6215 262.585 25.6215C261.966 25.6215 260.81 25.2908 260.222 25.5921C259.759 25.8273 239.759 8.47318 239.165 8.12771C238.252 7.60583 238.083 7.40738 237.664 6.47388C236.608 4.10707 235.139 5.96671 233.426 5.64329C232.363 5.44483 232.469 4.2688 231.825 3.41616C231.137 2.51207 229.956 2.65907 229.03 2.44591C228.005 2.2107 226.373 2.44589 225.479 1.777C225.098 1.49034 225.104 1.09341 224.823 0.755296C224.448 0.314275 223.866 0.343702 223.341 0.321651C222.991 0.2996 222.503 0.196699 222.197 0.417209C221.828 0.681821 221.828 1.4242 221.522 1.69616C221.203 1.97547 219.052 1.93873 218.702 1.74762C218.489 1.63001 218.408 1.45361 218.296 1.19634C218.146 0.872928 218.196 0.60832 217.946 0.373109C217.345 -0.207568 215.464 -0.0458625 214.882 0.417209C213.844 1.24045 213.607 2.18128 212.113 2.10778C210.906 2.04898 209.962 1.52711 208.724 1.74762C207.498 1.97548 206.198 2.45324 205.004 1.96076C203.904 1.51239 202.966 1.88726 201.853 2.32828C201.396 2.51204 200.946 2.9898 200.452 3.0045C199.808 3.02655 199.415 2.30626 198.839 2.17395C198.127 2.00489 197.251 1.73292 196.57 1.61532C195.838 1.49036 195.051 1.65206 194.325 1.74762C193.475 1.85787 192.787 1.76968 192.031 1.48302C190.918 1.0567 185.466 2.83547 184.616 2.35035C183.841 1.90933 182.584 1.6594 181.721 1.8211C180.996 1.96076 177.007 2.11512 175.513 2.37238C174.569 2.53409 174.081 3.20299 173.412 3.82042C172.6 4.5628 170.887 4.60689 169.824 4.40108C168.792 4.20262 159.445 15.331 158.814 12.1483C158.176 8.96563 156.232 13.5816 154.281 13.7654C152.337 13.9492 153.525 10.8106 150.943 9.37728C148.361 7.94396 148.561 6.74584 146.291 7.25302C144.028 7.76019 135.244 15.4928 133.218 14.7504C131.192 14.0153 119.708 27.6576 117.163 27.246C114.618 26.827 113.268 27.8487 112.993 26.136C112.718 24.4308 113.512 22.674 110.886 21.8434C108.26 21.0128 106.635 22.4903 105.359 20.8291C104.09 19.1679 105.04 18.2932 103.29 17.9698C101.539 17.6464 101.539 16.0808 100.307 15.8015C99.0758 15.5222 95.4622 17.7861 93.6304 16.3527C91.7985 14.9194 90.6918 14.0888 89.1413 14.7871C87.5908 15.478 87.9096 17.5067 85.5276 16.588C83.1456 15.6618 81.9514 14.8312 80.5197 15.6177C79.088 16.4042 79.8821 17.9698 77.3375 17.4626C74.793 16.9555 74.2365 15.3825 72.8048 16.1249C71.3731 16.8599 71.2543 17.6464 70.2602 18.1095C69.2661 18.5726 69.7038 21.2922 67.0029 21.4318C64.3021 21.5715 62.8703 24.7983 60.8822 24.4749C58.894 24.1514 56.0743 23.8721 55.3991 24.8938C54.7239 25.9082 53.8862 24.0632 51.9793 24.8938C50.0724 25.7244 51.1853 28.4 48.7596 27.8928C46.3338 27.3856 41.4072 28.5837 40.7694 30.1052C40.1317 31.6268 38.4625 28.7675 36.7181 29.1791C34.9676 29.5981 35.1301 32.6411 32.4667 32.4132C29.8034 32.1854 28.1778 31.3989 27.2587 32.2295C26.346 33.06 25.2707 35.0887 23.5639 34.1185C21.8571 33.1483 20.4253 35.8752 18.3559 34.5816C16.2864 33.2879 16.7242 31.7223 14.5422 32.2736C12.354 32.8248 12.4727 35.0887 9.77185 33.7069C7.07097 32.325 3.41356 34.5816 2.1444 33.751C0.875241 32.9204 0 34.6257 0 34.6257V737.987C0.175057 738.318 0.981458 738.48 1.29406 738.494C1.45036 738.502 1.61293 738.494 1.77548 738.494C2.09433 738.494 2.25063 738.311 2.55072 738.252C3.27596 738.105 3.9012 738.818 4.62018 738.59C4.9953 738.472 5.17658 737.987 5.52669 737.914C5.9956 737.818 6.53336 738.075 7.02101 738.053C7.67748 738.024 8.30892 737.583 8.88411 737.237C9.44054 736.907 9.82813 736.576 10.4096 736.936C11.0723 737.348 11.91 738.303 11.8038 739.244C11.7412 739.81 11.5037 740.317 11.7226 740.883C11.9914 741.574 12.6353 742.206 13.1979 742.559C13.7294 742.897 14.4609 743.11 14.7985 743.765C15.1986 744.544 14.8485 745.345 15.7613 745.646C16.6241 745.933 17.6994 745.859 18.187 746.815C18.5059 747.44 18.731 747.726 19.1436 748.197C19.6751 748.8 20.0439 749.505 20.7129 749.961C21.6007 750.571 22.6885 750.292 23.6388 750.203C24.1577 750.152 24.7392 750.299 25.2456 750.35C25.8958 750.424 26.5461 750.534 27.2026 750.549C27.3464 750.549 27.5527 750.549 27.6527 750.608C27.909 750.608 28.0653 750.666 28.2404 750.431C28.5655 750.005 28.4591 749.608 28.9718 749.314C29.3844 749.079 29.8721 749.064 30.2535 749.358C30.3473 749.432 30.5286 749.718 30.6349 749.762C30.7975 749.829 31.2288 749.784 31.3664 749.792C32.7731 749.858 34.3236 749.762 35.6303 750.453C36.6994 751.019 38.0373 750.534 39.1626 750.395C40.1505 750.277 41.0882 750.372 42.0698 750.372C43.0701 750.372 44.0892 750.321 45.0895 750.255C45.6022 750.218 48.3906 750.483 47.6029 748.91C47.334 748.373 47.0403 748.322 47.2028 747.572C47.3216 747.013 47.5091 746.558 48.0405 746.594C49.1033 746.668 49.6973 747.396 50.2725 748.307C50.5038 748.674 50.9164 748.969 51.1978 749.285C51.3416 749.446 51.5042 749.681 51.6917 749.792C51.9105 749.909 52.1793 749.865 52.4169 749.865C53.6736 749.851 54.974 749.351 56.2182 749.608C56.8184 749.733 57.3998 749.954 57.9312 750.299C58.5064 750.674 58.9753 751.137 59.6568 751.152C60.2132 751.166 60.901 751.24 61.4449 751.049C61.8263 750.916 62.1701 750.586 62.4952 750.336C62.7203 750.159 62.9079 749.939 63.158 749.858C63.6019 749.726 64.1519 750.093 64.5958 750.152C65.0335 750.211 65.4837 750.093 65.9213 750.071C66.2214 750.049 66.5215 750.042 66.784 749.843C67.2342 749.505 67.1154 748.946 67.7156 748.976C69.1098 749.035 69.9789 750.431 71.3731 750.541C71.9358 750.586 72.4047 750.395 72.9298 750.299C73.4613 750.211 73.9301 750.284 74.4428 750.431C75.243 750.666 76.306 750.255 77.0312 749.902C77.5376 749.659 78.0503 749.071 78.588 748.976C79.0569 748.888 79.4195 749.336 79.8509 749.454C80.2448 749.564 80.8949 749.299 81.2388 749.086C81.5764 748.873 81.8639 748.535 82.2641 748.55C82.7205 748.564 83.1019 748.888 83.5771 748.888C84.3773 748.888 85.4151 748.88 86.1528 748.491C87.1844 747.954 88.3974 748.351 89.4165 748.755C90.3981 749.145 91.4421 748.777 92.4361 749.108C92.7362 749.204 92.9488 749.38 93.1989 749.586C93.549 749.873 94.0179 750.218 94.4305 750.35C94.8744 750.49 95.3747 750.402 95.8311 750.35C96.1312 750.314 96.4187 750.248 96.6938 750.13C96.7251 750.159 96.7625 750.181 96.7938 750.211C99.032 752.085 101.433 753.776 104.265 754.422C105.54 754.716 106.741 755.576 107.922 756.311C110.692 758.053 113.443 758.583 116.575 757.385C118.295 756.723 120.095 755.819 122.246 757.157C124.04 758.274 126.46 757.936 128.479 758.693C128.642 758.752 128.804 758.818 128.967 758.891C131.218 759.788 133.368 761.06 135.556 762.177C135.938 762.376 136.232 762.831 136.613 762.971C138.357 763.603 140.114 764.169 141.871 764.757C144.584 765.654 147.348 766.381 149.986 767.521C151.368 768.116 152.512 769.454 153.781 770.417C154.313 770.821 154.869 771.196 155.45 771.475C157.814 772.585 160.139 773.996 162.596 774.584C163.909 774.9 165.666 774.114 166.898 773.217C168.917 771.755 171.068 771.137 173.312 770.586C173.337 770.586 173.362 770.578 173.387 770.586C174.669 770.696 174.944 771.63 175.838 772.416C176.326 772.85 176.826 772.49 177.414 772.321C178.408 772.034 179.02 772.181 179.965 772.666C180.784 773.092 181.321 773.857 181.947 774.555C182.409 775.062 182.778 775.415 183.178 775.988C183.391 776.297 183.541 776.459 183.841 776.657C184.56 777.113 185.454 776.944 186.242 776.937C187.467 776.929 188.961 776.848 190.099 777.48C190.755 777.848 191.568 778.377 192.118 778.906C192.581 779.355 192.719 779.759 193.363 779.899C194.419 780.119 195.788 779.803 196.764 779.443C198.202 778.906 199.083 777.966 200.202 776.9C201.121 776.025 202.122 775.79 203.241 775.408C203.785 775.217 204.347 775.077 204.86 774.812C205.279 774.599 205.623 774.29 206.067 774.151C207.298 773.761 208.455 774.092 209.243 772.762C209.906 771.644 210.556 770.601 211.75 770.248C213.257 769.799 214.763 770.358 215.601 768.542C215.801 768.109 215.989 767.771 216.214 767.506C216.908 767.388 217.608 767.249 218.296 767.102C219.727 766.793 220.972 765.404 222.335 764.581C222.916 764.228 223.466 763.948 223.998 763.86C224.298 763.926 224.604 763.985 224.904 763.993C224.967 763.993 225.035 763.985 225.098 763.978C225.567 764.176 226.036 764.581 226.523 765.286C228.299 767.837 230.662 767.954 233.382 766.506C233.951 766.205 234.707 766.021 235.276 766.19C236.87 766.668 238.671 765.272 240.147 767.094C240.434 767.44 241.635 767.161 242.191 766.764C244.385 765.205 246.424 766.058 248.13 767.521C251.088 770.042 254.401 770.38 257.821 770.424C258.452 770.424 259.096 769.748 259.722 769.763C261.185 769.792 262.641 770.027 264.092 770.248C264.498 770.314 264.892 770.77 265.267 770.733C268.131 770.409 270.688 771.828 273.307 772.747C274.651 773.217 275.827 774.415 277.04 775.341C278.409 776.378 279.728 777.48 281.085 778.554C281.235 778.664 281.441 778.796 281.598 778.759C285.03 778.164 288.268 781.391 291.863 779.267C292.932 778.627 294.539 779.237 295.89 779.193C298.084 779.112 299.966 777.87 301.767 776.657C303.367 775.584 304.78 775.577 306.268 776.598C308.575 778.171 310.795 778.318 313.402 777.194C315.946 776.091 318.785 775.915 321.454 775.158C322.454 774.871 323.349 774.077 324.286 773.497C327.537 771.475 331.107 771.644 334.64 771.35C336.572 771.181 338.472 770.454 340.385 769.961C341.373 769.704 342.511 768.932 343.292 769.277C344.624 769.851 345.562 769.204 346.306 768.469C349.101 765.713 352.464 765.433 355.834 765.235C359.967 764.992 363.999 764.272 367.875 762.567C368.426 762.317 368.907 761.795 369.339 761.302C370.639 759.84 372.208 759.391 373.952 759.56C375.272 759.693 376.578 759.876 377.891 759.943C378.273 759.965 378.86 759.818 379.023 759.509C380.992 755.819 384.293 755.709 387.444 755.128C388.132 754.996 388.757 754.415 389.445 754.202C390.427 753.893 391.433 753.599 392.44 753.555C394.615 753.482 395.635 751.512 396.991 750.071C397.204 749.843 397.341 749.24 397.504 749.24C400.023 749.329 400.905 746.881 402.049 745.102C403.837 742.324 406.419 742.647 408.751 742.544C413.184 742.346 417.191 740.949 421.261 738.928C423.243 737.943 425.463 737.112 427.614 736.444C428.564 736.15 429.889 736.524 430.758 737.134C432.29 738.222 433.791 738.244 435.416 737.906C438.042 737.362 440.668 736.833 443.3 736.341C446.47 735.753 448.589 737.994 450.921 739.979C453.272 741.978 455.867 743.603 458.436 745.22C459.036 745.595 459.993 745.411 460.737 745.205C462.094 744.838 463.419 743.831 464.732 743.867C467.095 743.934 468.815 742.375 470.79 741.434C471.79 740.957 472.822 740.479 473.885 740.303C476.354 739.898 478.836 739.531 481.331 739.406V462.82C481.569 462.761 481.8 462.71 482 462.71V462.518V98.4413C481.65 98.162 481.606 97.6696 481.325 97.2947L481.344 97.2873Z" fill="#EBEBEB"/>
    <path d="M482 207.604V696.035C481.65 696.315 481.606 696.808 481.325 697.183C480.812 697.896 479.318 697.977 478.643 697.749C477.986 697.528 477.617 696.778 476.911 696.572C475.879 696.271 475.454 696.513 474.691 697.065C473.572 697.874 472.103 697.477 470.871 697.404C470.09 697.359 469.346 697.264 468.727 697.801C468.095 698.36 467.495 698.75 466.72 699.051C465.332 699.595 463.356 697.845 462.105 698.926C461.68 699.294 461.793 699.698 461.587 700.132C461.211 700.905 460.261 700.875 459.586 700.92C458.479 701 457.741 701.258 456.891 702.06C456.478 702.442 455.672 702.891 455.422 703.354C455.016 704.112 455.478 704.87 455.391 705.568C455.253 706.635 453.24 706.907 452.49 707.047C451.621 707.209 451.108 706.937 450.276 706.834C449.095 706.694 447.957 707.576 446.719 707.223C445.681 706.922 445.487 705.487 444.437 705.215C443.712 705.031 442.73 705.318 442.317 706.047C442.092 706.451 442.061 707.216 441.848 707.694C441.205 709.129 439.885 709.386 438.547 709.746C438.535 710.151 438.46 710.57 438.516 710.982C438.554 711.306 438.816 711.725 438.691 712.071C438.391 712.873 436.815 712.586 436.309 712.343C435.702 712.056 435.352 711.343 434.596 711.519C433.564 711.769 433.558 712.895 432.52 713.086C431.307 713.314 430.188 712.718 429.044 712.843C428.137 712.939 427.531 713.535 426.506 712.909C425.505 712.292 425.255 711.218 423.923 711.115C423.042 711.041 420.641 711.306 420.841 712.99C420.966 714.042 421.397 714.594 420.353 714.881C419.472 715.124 418.059 715.219 417.14 714.998C416.533 714.859 416.202 714.175 415.577 714.175C413.97 714.16 413.757 716.374 412.444 716.683C410.963 717.043 409.768 716.043 408.987 717.911C408.812 718.331 408.799 719.015 408.543 719.368C407.887 720.302 406.767 719.684 406.017 720.081C405.217 720.501 405.823 722.229 405.323 722.994C404.917 723.605 403.966 723.825 403.341 723.818C402.635 723.803 402.697 723.531 402.253 723.075C401.378 722.156 399.734 722.671 398.908 723.472C398.471 723.892 398.296 724.186 397.714 724.37C396.708 724.686 395.545 724.399 394.576 724.855C393.857 725.194 393.369 726.135 392.594 726.584C391.875 726.996 391.043 727.121 390.349 727.636C389.599 728.202 389.074 728.901 388.217 729.305C386.935 729.909 386.023 729.276 384.822 728.952C383.378 728.563 382.465 729.18 381.502 730.129C380.496 731.122 379.177 731.299 377.907 731.299C376.844 731.299 376.032 731.174 375.169 731.954C374.637 732.439 374.075 732.822 373.437 733.108C372.224 733.653 370.849 733.189 369.642 733.594C368.829 733.866 368.423 734.837 367.535 734.977C366.435 735.146 365.159 734.278 364.471 735.418C364.303 735.698 364.184 736.279 364.009 736.47C363.54 737.014 362.352 737.11 361.745 737.485C361.045 737.912 360.47 737.772 359.657 737.515C359.357 737.419 359.107 737.176 358.807 737.073C358.032 736.816 356.969 737.389 356.456 738.103C356.2 738.463 356.143 738.905 355.831 739.214C355.274 739.751 354.462 739.758 353.811 739.626C353.074 739.479 352.298 739.309 351.523 739.611C351.023 739.81 350.591 740.442 350.198 740.854C349.616 741.457 349.254 741.634 348.491 741.854C348.084 741.972 347.497 742.06 347.147 742.281C346.847 742.45 346.997 742.472 346.809 742.722C346.421 743.252 346.321 743.951 345.902 744.414C345.315 745.062 344.039 745.679 343.22 745.731C342.132 745.797 340.888 744.716 340.05 744.01C339 743.12 337.387 741.744 336.118 743.156C335.592 743.752 335.986 744.51 335.661 745.039C335.38 745.481 334.436 745.407 334.042 745.326C332.685 745.069 331.872 743.605 330.56 743.355C329.465 743.149 327.74 743.965 327.121 745.084C326.821 745.628 326.877 746.202 326.339 746.65C325.889 747.025 325.033 747.452 324.482 747.312C324.132 747.224 323.688 746.834 323.357 746.658C322.463 746.187 322.006 746.518 321.1 746.959C319.606 747.666 318.293 747.003 316.73 746.989C315.342 746.974 314.041 746.842 312.847 747.562C312.041 748.048 311.715 748.739 311.121 749.512C310.59 750.203 309.615 750.777 308.808 750.902C308.177 750.998 307.683 750.49 307.007 750.453C306.22 750.417 305.407 750.998 304.919 751.557C304.457 752.094 304.181 752.491 303.419 752.41C302.818 752.344 302.644 751.822 302.106 751.726C301.231 751.564 301.349 752.675 300.687 752.962C299.999 753.263 298.923 752.528 298.648 751.851C298.354 751.137 297.279 751.314 296.61 751.299C296.204 751.299 295.641 751.498 295.297 751.27C294.747 750.902 294.791 749.931 294.266 749.585C293.922 749.357 293.428 749.453 293.053 749.438C292.127 749.401 290.752 749.012 289.883 749.291C289.483 749.416 289.108 749.835 288.682 749.894C288.238 749.96 287.726 749.652 287.251 749.637C286.575 749.6 286.463 749.872 285.875 750.292C284.975 750.931 284.156 750.814 283.137 750.483C282.449 750.247 282.161 750.166 281.692 749.622C281.424 749.313 281.361 749.166 280.948 749.056C280.204 748.857 279.529 748.982 278.916 749.409C278.566 749.651 278.566 749.843 278.16 749.747C277.741 749.652 277.672 749.313 277.391 748.967C277.078 748.585 276.616 748.269 276.24 747.982C275.546 747.437 274.809 746.834 274.046 746.466C273.521 746.216 273.039 745.878 272.545 745.554C272.239 745.356 271.489 745.135 271.132 745.415C270.576 745.834 270.92 746.496 270.007 746.533C269.251 746.562 268.744 745.893 268.025 745.849C267.456 745.812 265.999 746.297 265.562 745.893C265.262 745.613 265.393 743.863 265.199 743.326C264.73 742.06 264.142 741.273 263.105 740.972C262.636 740.832 262.692 740.545 262.323 740.28C262.004 740.052 261.204 740.207 260.879 740.207C260.26 740.207 259.103 740.538 258.516 740.236C258.053 740.001 257.759 739.052 257.459 738.552C256.671 737.25 255.927 737.993 254.608 737.772C253.458 737.581 252.032 736.345 251.213 735.418C250.925 735.094 250.925 735.146 250.838 734.712C250.713 734.138 251 734.094 251.057 733.653C251.2 732.594 250.263 733.219 249.656 732.829C249.062 732.446 249.531 731.667 249.356 731.005C249.15 730.247 248.393 730.475 247.793 730.232C247.58 730.144 247.468 730.004 247.249 729.931C246.855 729.798 246.461 729.931 246.055 729.688C245.411 729.305 245.105 728.489 244.348 728.334C243.81 728.224 243.235 728.526 242.729 728.474C242.016 728.393 241.835 727.577 241.353 727.18C240.715 726.643 239.74 727.378 239.146 727.724C238.233 728.246 238.065 728.445 237.646 729.379C236.589 731.748 235.12 729.887 233.407 730.21C232.344 730.409 232.45 731.586 231.806 732.439C231.118 733.344 229.937 733.197 229.011 733.41C227.986 733.645 226.354 733.41 225.46 734.079C225.079 734.366 225.085 734.763 224.804 735.102C224.429 735.543 223.847 735.514 223.322 735.536C222.972 735.558 222.484 735.661 222.178 735.44C221.809 735.175 221.809 734.432 221.503 734.16C221.184 733.881 219.033 733.918 218.683 734.109C218.47 734.227 218.389 734.403 218.276 734.661C218.126 734.984 218.176 735.249 217.926 735.484C217.326 736.065 215.444 735.904 214.863 735.44C213.825 734.616 213.587 733.675 212.093 733.748C210.886 733.807 209.942 734.329 208.704 734.109C207.479 733.881 206.178 733.403 204.984 733.895C203.884 734.344 202.946 733.969 201.833 733.528C201.377 733.344 200.927 732.866 200.433 732.851C199.789 732.829 199.395 733.55 198.82 733.682C198.107 733.851 197.232 734.123 196.55 734.241C195.819 734.366 195.031 734.204 194.305 734.109C193.455 733.998 192.768 734.087 192.011 734.374C190.898 734.8 190.123 734.418 189.06 733.932C188.429 733.631 187.809 733.263 187.128 733.138C186.109 732.947 185.446 733.02 184.596 733.506C183.821 733.947 182.564 734.197 181.701 734.035C180.976 733.895 180.363 733.27 179.657 733.042C178.162 732.564 176.987 733.741 175.499 733.476C174.555 733.314 174.067 732.645 173.398 732.027C172.585 731.284 170.872 731.24 169.809 731.446C168.778 731.645 167.515 732.373 166.427 732.005C166.333 731.976 166.239 731.917 166.158 731.858C165.695 732.969 165.245 733.601 163.801 733.69C161.419 733.829 159.431 733.55 158.793 736.742C158.155 739.927 156.211 741.17 154.26 740.994C152.31 740.803 153.504 743.943 150.922 745.378C148.339 746.812 148.54 748.011 146.276 747.504C144.013 746.996 140.793 748.982 139.405 747.879C138.011 746.768 135.704 746.584 135.829 749.034C135.948 751.483 135.229 752.962 133.203 753.697C131.171 754.44 131.89 756.61 130.102 757.53C129.57 757.802 129.22 758.309 128.939 758.898C128.264 760.295 127.964 762.164 126.482 762.517C124.375 763.024 121.993 762.84 120.436 764.179C118.885 765.518 119.686 766.857 117.141 767.276C114.596 767.695 113.246 766.673 112.971 768.387C112.69 770.101 113.483 771.851 110.864 772.69C108.238 773.514 106.606 772.035 105.343 773.698C104.068 775.367 105.024 776.235 103.274 776.566C101.523 776.89 101.523 778.464 100.291 778.736C99.066 779.016 95.446 776.75 93.6204 778.185C91.7885 779.619 90.6755 780.443 89.1312 779.751C87.5807 779.06 87.8995 777.03 85.5112 777.957C83.1291 778.876 81.9349 779.707 80.5032 778.92C79.0714 778.14 79.8718 776.566 77.3272 777.074C74.7888 777.581 74.2261 779.156 72.8006 778.413C71.3688 777.677 71.25 776.897 70.2559 776.434C69.2618 775.97 69.6995 773.249 66.9985 773.102C64.2976 772.962 62.8658 769.733 60.8839 770.049C58.8957 770.373 56.0759 770.652 55.3944 769.637C54.7192 768.622 53.8877 770.461 51.9808 769.637C50.0676 768.806 51.1868 766.128 48.761 766.636C46.3351 767.144 41.4084 765.945 40.7706 764.422C40.1329 762.899 38.4636 765.761 36.7192 765.341C34.9686 764.93 35.1249 761.884 32.4615 762.112C29.798 762.348 28.1724 763.127 27.2596 762.303C26.3468 761.472 25.2715 759.435 23.5584 760.406C21.8515 761.377 20.4197 758.655 18.3565 759.942C16.287 761.237 16.7246 762.811 14.5363 762.252C12.3481 761.7 12.4732 759.435 9.77225 760.825C7.0713 762.208 3.40755 759.942 2.14461 760.781C0.869164 761.605 0 759.898 0 759.898V56.024C0.175061 55.693 0.98163 55.5385 1.28799 55.5164C1.45054 55.5164 1.61311 55.5164 1.76942 55.5164C2.08828 55.5164 2.24458 55.7003 2.55094 55.7591C3.27619 55.9062 3.90144 55.1928 4.61419 55.4208C4.98933 55.5385 5.17061 56.0239 5.52073 56.0901C5.98339 56.1858 6.52742 55.9283 7.01509 55.9504C7.67157 55.9798 8.29677 56.4285 8.87823 56.7669C9.43467 57.0906 9.82852 57.4215 10.4037 57.0685C11.0665 56.6565 11.898 55.7003 11.798 54.7587C11.7354 54.1923 11.5042 53.6775 11.7167 53.1184C11.9856 52.427 12.6295 51.8018 13.1984 51.434C13.7299 51.0956 14.4552 50.8896 14.799 50.2276C15.1992 49.4479 14.8428 48.6535 15.7619 48.3445C16.6184 48.065 17.6937 48.1385 18.1814 47.1749C18.5003 46.5497 18.7191 46.2702 19.138 45.7847C19.6632 45.1889 20.0383 44.4827 20.7073 44.0267C21.5951 43.4235 22.683 43.6957 23.627 43.7839C24.1397 43.8354 24.7275 43.6957 25.2339 43.6368C25.8841 43.5633 26.5344 43.4529 27.1847 43.4382C27.3285 43.4382 27.5348 43.4382 27.641 43.3794C27.8974 43.3794 28.0537 43.3205 28.2287 43.5559C28.5538 43.9825 28.4537 44.3798 28.9602 44.6666C29.3666 44.9094 29.8543 44.9241 30.2356 44.6225C30.3294 44.549 30.5108 44.262 30.6171 44.2253C30.7797 44.1591 31.2173 44.2032 31.3486 44.1959C32.749 44.1297 34.3059 44.2253 35.6126 43.5338C36.6817 42.9674 38.0259 43.4529 39.145 43.5927C40.1329 43.7104 41.0706 43.6074 42.0522 43.6148C43.0526 43.6148 44.0717 43.6589 45.0721 43.7324C45.5848 43.7692 48.367 43.5044 47.5855 45.0786C47.3166 45.6155 47.0166 45.667 47.1791 46.4173C47.3042 46.9764 47.4854 47.4324 48.0231 47.403C49.0797 47.3221 49.68 46.5939 50.2552 45.6817C50.4927 45.3066 50.8991 45.0197 51.1805 44.7034C51.3243 44.5416 51.4869 44.2988 51.6807 44.1959C51.8995 44.0782 52.1683 44.115 52.4059 44.1223C53.6626 44.137 54.9631 44.6299 56.201 44.3798C56.8075 44.2547 57.3827 44.034 57.9141 43.6883C58.4893 43.3132 58.9582 42.8571 59.6397 42.8351C60.2024 42.813 60.8838 42.7468 61.4277 42.9307C61.8091 43.0704 62.1531 43.3941 62.4845 43.6442C62.7096 43.8207 62.8908 44.0488 63.1471 44.1223C63.591 44.2547 64.1412 43.8869 64.5851 43.8281C65.0228 43.7692 65.4793 43.8796 65.9169 43.909C66.217 43.931 66.5171 43.9384 66.7796 44.137C67.2298 44.468 67.111 45.0271 67.7112 45.0123C69.1055 44.9535 69.9746 43.5559 71.3688 43.4456C71.9378 43.4014 72.4067 43.5853 72.9256 43.6809C73.457 43.7692 73.9322 43.703 74.4386 43.5485C75.2389 43.3132 76.3018 43.7251 77.0271 44.0782C77.5397 44.3209 78.0462 44.902 78.5839 45.0123C79.0528 45.0933 79.4217 44.6519 79.8468 44.5342C80.2407 44.4239 80.8909 44.6814 81.2348 44.902C81.5724 45.108 81.8599 45.4537 82.2601 45.4464C82.7165 45.4316 83.0979 45.108 83.5668 45.108C84.3671 45.108 85.4049 45.1227 86.1427 45.5052C87.1743 46.0422 88.3934 45.6449 89.4063 45.2404C90.3879 44.8505 91.432 45.211 92.4261 44.8873C92.7262 44.799 92.9388 44.6225 93.1826 44.4092C93.5327 44.1223 94.0016 43.7766 94.4143 43.6442C94.8644 43.5044 95.3646 43.5927 95.8148 43.6442C96.4275 43.7177 96.984 43.9384 97.4717 44.3577C97.7468 44.5857 97.9281 44.9608 98.2282 45.1447C98.447 45.2771 98.6096 45.233 98.8722 45.2625C99.4411 45.3139 100.023 45.3434 100.592 45.3066C101.879 45.233 103.111 44.571 104.412 44.4239C106.331 44.2032 108.557 45.1374 110.364 44.1223C111.039 43.7472 111.639 43.1219 112.364 42.8865C113.371 42.5629 114.478 42.7468 115.497 42.5114C115.797 42.4452 115.928 42.2098 116.128 41.945C116.472 41.511 116.735 41.1947 117.235 40.9961C117.766 40.7828 118.329 40.8858 118.854 40.7092C119.098 40.6283 119.317 40.4444 119.542 40.2826C119.842 40.0546 120.105 39.7603 120.398 39.5176C120.792 39.1939 121.086 39.1866 121.543 39.113C122.024 39.0321 122.487 38.8556 122.899 38.554C123.481 38.1274 124.162 37.9214 124.856 37.892C125.288 37.8625 125.738 37.9802 126.132 37.8037C126.457 37.6639 126.719 37.3918 126.982 37.149C127.538 36.6341 128.27 36.9872 128.97 36.9872C129.67 36.9872 130.733 37.2299 131.402 36.9725C131.652 36.8769 131.865 36.6121 132.059 36.4429C132.459 36.0972 132.578 36.0162 133.109 35.8397C133.966 35.5528 134.472 35.2439 134.947 34.3318C135.272 33.6992 135.372 33.4491 135.96 33.1254C136.292 32.9489 136.604 32.7724 136.929 32.5811C138.092 31.8676 139.099 32.6399 140.368 32.3751C140.968 32.2501 141.637 31.897 142.037 31.3747C142.444 30.8378 142.319 30.3817 142.462 29.7638C142.8 28.3589 143.882 29.3961 144.669 29.499C146.039 29.6756 145.895 28.9032 146.77 28.1235C147.527 27.4541 147.783 28.0794 148.483 28.3957C149.446 28.837 149.146 27.8072 149.827 27.4541C150.359 27.1819 151.116 27.5571 151.766 27.3217C153.06 26.8362 153.423 26.8951 154.667 27.7336C156.036 28.6678 157.568 29.9404 158.899 28.3515C159.475 27.6601 159.643 27.1893 160.55 27.2555C161 27.2849 161.4 27.5571 161.832 27.5939C162.313 27.6306 163.195 27.5056 163.595 27.1819C163.945 26.8877 163.951 26.3434 164.208 25.9609C165.864 23.4452 169.109 25.983 171.066 24.4309C171.479 24.1072 171.635 23.3055 172.154 23.2025C172.454 23.151 172.992 23.4378 173.367 23.4011C174.642 23.2981 174.918 22.3566 175.818 21.5695C176.312 21.1429 176.812 21.4886 177.393 21.6578C178.388 21.9446 178.994 21.7975 179.944 21.3121C180.763 20.8854 181.295 20.1204 181.926 19.4216C182.389 18.9141 182.764 18.5683 183.158 17.9946C183.371 17.6783 183.514 17.5164 183.827 17.3252C184.546 16.8691 185.44 17.0384 186.221 17.0457C187.447 17.0604 188.947 17.1339 190.085 16.5013C190.742 16.1336 191.548 15.604 192.105 15.067C192.567 14.6257 192.711 14.2137 193.349 14.0739C194.412 13.8533 195.775 14.1622 196.744 14.53C198.182 15.0743 199.064 16.0085 200.189 17.0751C201.108 17.9578 202.108 18.1858 203.221 18.5683C203.771 18.7596 204.334 18.8993 204.84 19.1641C205.259 19.3775 205.597 19.6864 206.047 19.8262C207.279 20.2087 208.442 19.885 209.223 21.2164C209.886 22.3345 210.536 23.379 211.724 23.7394C213.237 24.1882 214.738 23.6291 215.582 25.446C216.044 26.4537 216.445 26.976 217.414 27.2482C218.627 27.5865 219.146 27.8808 219.883 28.9474C220.315 29.5799 220.927 30.2787 221.646 30.4111C222.765 30.6318 223.822 30.0286 224.879 29.9992C226.048 29.9698 227.229 30.7201 227.892 31.794C228.274 32.4046 228.442 32.8312 229.18 32.9636C229.912 33.1033 230.7 32.9268 231.437 32.9783C231.963 33.0077 232.275 33.4859 232.738 33.5815C233.588 33.758 233.888 34.3906 234.582 34.832C235.801 35.6043 237.12 35.1924 238.371 35.0159C239.703 34.8173 240.916 35.6043 242.097 36.1854C242.885 36.5753 243.454 36.6341 244.017 37.4065C244.504 38.0612 244.479 39.1939 245.042 39.7162C245.88 40.4885 247.587 40.3856 248.618 40.8564C249.256 41.1506 249.812 41.7317 250.488 42.0259C251.682 42.5702 252.97 42.6144 254.227 42.401C255.339 42.2172 256.371 41.9082 257.509 41.967C258.44 42.0185 259.322 42.2539 260.247 42.3201C262.773 42.504 264.918 43.0631 265.212 46.307C265.362 47.9252 265.368 49.6465 265.737 51.2206C266.068 52.6109 266.7 52.6403 267.888 52.8389C269.013 53.0228 270.001 53.214 270.876 54.0232C271.558 54.6558 272.283 55.6856 273.139 55.9872C274.19 56.3623 274.871 56.0607 275.828 56.8478C276.697 57.5613 277.885 58.1718 278.966 58.1792C281.367 58.1939 283.287 58.0835 285.544 59.3046C287.157 60.1873 288.063 62.4161 289.951 62.7913C291.708 63.137 293.928 62.0336 295.547 63.0414C297.029 63.9535 297.635 67.7491 299.642 67.2342C300.793 66.9326 301.18 66.3515 302.487 66.5868C302.969 66.6751 303.481 66.8149 303.869 67.1679C304.363 67.6093 304.625 68.4479 305.276 68.8009C306.132 69.2717 306.995 68.8157 307.877 68.6759C309.215 68.4773 310.596 68.7053 311.534 69.9043C312.222 70.7796 312.328 71.3681 313.31 72.0007C314.204 72.5744 314.691 72.6995 315.711 72.3758C317.355 71.8756 320.4 71.9492 321.019 74.3251C321.269 75.2814 320.769 76.2376 321.769 76.8997C322.425 77.3263 322.957 76.8481 323.501 77.5543C323.857 78.0324 323.738 78.8931 324.038 79.3197C324.451 79.9008 325.358 79.9229 325.939 79.7831C326.771 79.5845 327.596 78.9004 328.609 78.9813C328.996 79.0107 329.065 79.2829 329.378 79.43C329.847 79.6581 330.216 79.7978 330.81 79.7022C331.585 79.5772 332.148 79.0107 332.904 79.1799C333.817 79.3785 334.605 79.5183 335.592 79.5183C336.23 79.5183 337.318 79.2608 337.912 79.5919C338.35 79.8272 338.581 80.7614 339.106 81.0262C339.556 81.2469 340.263 80.9821 340.732 81.0556C341.301 81.1439 341.376 81.2322 341.888 81.6C343.258 82.5709 344.364 82.6298 345.64 81.5117C346.396 80.8423 346.953 80.7099 347.841 81.1219C349.46 81.8795 351.073 83.3801 352.648 81.9898C353.211 81.497 353.461 80.9453 354.23 80.8791C354.999 80.8203 355.537 81.394 356.2 81.7471C356.994 82.1737 357.913 82.9608 358.738 83.0417C360.139 83.1962 361.652 81.9457 363.102 82.6666C363.821 83.0196 364.234 84.1083 365.084 84.4835C366.316 85.0351 367.885 84.2848 369.179 84.6379C371.643 85.2926 370.28 86.9182 370.911 88.9263C371.261 90.0371 372.58 89.9488 373.143 90.8977C373.462 91.442 373.406 92.3909 373.506 93.0603C373.7 94.2887 374.137 94.1195 374.781 94.9507C375.394 95.7231 375.231 96.3556 375.344 97.3193C375.456 98.2976 376.213 99.1803 376.813 99.7908C377.532 100.504 378.114 100.924 378.514 102.101C378.833 103.035 378.858 104.123 378.62 105.102C378.376 106.109 377.288 106.896 377.345 107.904C377.413 108.956 378.595 109.5 379.158 110.126C380.002 111.06 380.496 112.266 380.84 113.517C381.177 114.752 381.734 115.186 382.709 115.76C384.266 116.68 384.528 117.68 384.822 119.681C385.122 121.682 385.673 122.329 387.148 123.204C387.905 123.646 388.523 123.947 389.355 124.234C390.218 124.528 391.093 125.404 391.156 126.492C391.206 127.331 390.324 128.074 390.831 128.971C391.212 129.633 392.269 129.685 392.788 130.155C393.688 130.979 393.594 132.009 393.632 133.164C393.675 134.562 393.8 135.121 394.594 136.136C395.22 136.945 395.351 137.305 395.263 138.335C395.12 140.093 395.576 141.498 397.202 142.057C398.514 142.506 399.346 143.97 399.777 145.448C400.096 146.537 399.565 147.331 399.677 148.442C399.884 150.457 401.522 150.891 402.353 152.443C402.816 153.311 402.591 154.385 403.21 155.165C403.885 156.004 405.417 156.666 406.298 157.188C407.086 157.666 408.074 157.85 407.899 159.093C407.774 159.932 407.111 160.542 407.605 161.403C408.368 162.734 410.6 162.271 411.075 163.985C411.188 164.382 411.056 164.801 411.232 165.213C411.55 165.985 412.126 166.074 412.726 166.456C413.582 167.023 413.964 167.832 414.62 168.648C415.508 169.744 416.977 169.604 417.94 170.62C418.365 171.068 418.572 171.73 419.109 172.128C419.966 172.768 420.897 172.451 421.841 172.672C423.254 173.003 423.736 173.9 424.23 175.349C424.605 176.438 424.936 176.357 425.93 176.828C426.656 177.166 427.7 177.497 428.162 178.181C428.638 178.902 428.525 179.41 429.275 179.932C430.726 180.947 432.72 180.55 434.296 180.381C435.496 180.248 436.046 180.462 436.728 181.594C437.228 182.44 437.428 184.154 438.591 183.948C439.541 183.786 439.623 182.712 440.692 183.728C441.254 184.265 441.329 185.184 441.873 185.75C442.436 186.346 443.199 186.405 443.693 187.104C444.199 187.832 444.149 188.891 444.612 189.59C444.862 189.98 445.262 190.267 445.525 190.679C445.75 191.017 445.9 191.451 446.2 191.738C446.694 192.231 447.7 192.93 448.344 193.136C449.901 193.643 452.471 193.224 453.609 194.85C454.165 195.644 454.265 197.005 454.959 197.637C455.516 198.138 456.066 197.968 456.585 198.579C457.304 199.417 457.491 200.249 458.404 200.705C459.48 201.249 460.705 201.315 461.88 201.529C463.162 201.749 464.238 202.073 465.282 202.978C465.826 203.456 466.276 204.258 466.932 204.633C467.933 205.206 469.239 204.603 470.265 205.126C471.378 205.685 472.221 205.552 473.459 205.729C474.385 205.861 474.891 206.67 475.71 206.825C476.579 206.979 477.542 206.516 478.436 206.854C478.899 207.023 479.043 207.266 479.543 207.354C479.824 207.406 480.149 207.354 480.437 207.354C480.9 207.354 481.525 207.627 481.994 207.627L482 207.604Z" fill="#D4D4D4"/>
    <path opacity="0.1" d="M143.481 274.029C143.478 274.029 143.475 274.03 143.473 274.031C141.862 275.071 140.192 276.157 138.487 277.266C136.809 278.358 134.792 276.599 135.685 274.807C152.355 241.363 176.449 216.672 212.763 200.7C214.506 199.933 214.441 197.118 212.744 196.253C210.584 195.151 208.758 194.008 207.098 193.298C206.337 192.972 205.757 192.287 205.787 191.46C205.793 191.3 205.8 191.14 205.808 190.98C205.854 189.957 206.569 189.028 207.572 188.821C227.013 184.822 246.321 179.484 265.945 177.418C299.448 173.855 332.726 176.835 364.775 188.307C385.862 195.859 404.449 206.785 415.826 227.587C416.6 229.004 419.581 230.379 421.113 230.889C421.755 231.103 422.418 231.341 423.05 231.517C424.518 231.924 427.143 232.565 427.858 233.91C428.564 235.238 428.184 235.05 429.61 238.315C436.677 254.559 427.552 268.92 409.079 269.973C381.622 271.551 354.145 272.545 326.606 273.779C325.167 273.844 324.268 275.363 324.912 276.652C329.194 285.219 333.874 294.002 337.714 303.133C342.858 315.411 342.79 326.86 333.979 338.645C323.199 353.096 326.822 369.811 331.34 385.786C332.87 391.189 335.202 396.347 337.985 403.207C338.599 404.72 337.224 406.275 335.641 405.875C326.311 403.518 318.194 401.651 310.339 398.982C307.991 398.176 305.844 394.367 305.128 391.544C301.975 379.333 299.403 366.988 296.607 354.687C292.358 336.046 281.422 331.565 265.856 342.342C249.083 353.97 241.971 370.953 246.779 389.998C252.37 412.112 260.824 433.621 269.412 454.838C278.201 476.482 289.652 497.027 298.128 518.76C306.56 540.426 300.566 559.986 283.099 575.131C255.978 598.609 224.068 605.903 189.301 603.384C187.471 603.252 186.828 600.933 188.309 599.849C194.086 595.622 199.766 591.471 205.441 587.324C205.932 586.965 205.988 586.258 205.57 585.818V585.818C205.288 585.521 204.862 585.415 204.478 585.554C189.358 590.993 174.591 598.098 159.02 601.368C128.917 607.686 99.8432 602.6 73.3858 586.424C49.2767 571.704 42.5897 548.156 55.3599 522.972C59.4973 514.794 64.3728 506.124 71.1269 500.253C100.536 474.667 113.933 441.082 120.732 404.18C128.692 360.899 135.938 317.462 143.496 274.046C143.497 274.037 143.49 274.029 143.481 274.029V274.029Z" fill="#222222"/>
</svg>
