<svg width="470" height="761" viewBox="0 0 470 761" fill="none" xmlns="http://www.w3.org/2000/svg">
    <path d="M0 0V681.829V726.239C0.901676 726.774 1.71264 727.515 2.3648 728.491C3.61807 730.372 4.8997 732.218 6.26639 733.964C6.29475 733.999 6.31744 734.028 6.34579 734.063C6.53293 733.892 6.71435 733.729 6.92984 733.686C6.98088 733.686 7.02625 733.672 7.07162 733.686C7.14534 733.686 7.21339 733.7 7.28144 733.714C7.63871 733.807 7.96195 734.071 8.34757 734.071C9.12449 734.071 10.1396 734.056 10.8598 733.615C11.3759 733.294 11.9487 733.265 12.5101 733.372C13.0431 733.472 13.5648 733.693 14.0412 733.921C14.7501 734.249 15.4929 734.106 16.2245 734.163H16.2472C16.2472 734.163 16.2642 734.163 16.2755 734.163C16.5194 734.185 16.7462 734.227 16.9844 734.313C17.0184 734.327 17.0468 734.341 17.0751 734.356C17.2056 734.427 17.3303 734.505 17.4437 734.605C17.5345 734.683 17.6252 734.769 17.7216 734.854C17.8067 734.94 17.8974 735.025 17.9938 735.104C18.181 735.275 18.3851 735.439 18.5836 735.56C18.7027 735.638 18.8161 735.695 18.9238 735.738C19.3548 735.902 19.8482 735.802 20.2906 735.738C20.8803 735.653 21.4247 735.403 21.9068 734.926C21.9294 734.897 21.9578 734.869 21.9805 734.84C22.2073 734.577 22.3775 734.206 22.6383 734.021C22.6553 734.006 22.6723 734.006 22.695 733.992C22.8765 733.878 23.0353 733.907 23.2735 733.878C23.6081 733.85 23.9483 733.828 24.2829 733.821C24.5041 733.821 24.7309 733.821 24.952 733.835C25.5929 733.871 26.2167 734.085 26.8348 734.313C27.3225 734.491 27.8045 734.669 28.2979 734.783C28.4283 734.812 28.5531 734.833 28.6779 734.854C28.8934 734.883 29.1088 734.89 29.33 734.89C31.0369 734.89 32.9197 734.156 34.4849 735.197C35.137 735.624 35.7325 736.337 36.4356 736.615C36.7135 736.714 36.9971 736.779 37.2806 736.814C38.0178 736.9 38.7777 736.85 39.4866 737.042C39.7872 737.121 39.9119 732.339 40.1104 732.638C40.4393 733.151 40.6888 733.5 41.1822 733.736C41.1822 733.736 41.1992 733.736 41.2049 733.736C41.7096 733.971 42.254 733.857 42.7531 734.056C42.9969 734.149 43.2124 734.363 43.4279 734.555C43.7227 734.812 43.9723 735.147 44.2672 735.432C44.6472 735.795 44.942 735.809 45.3844 735.895C45.6112 735.93 45.838 736.009 46.0535 736.109C46.0535 736.109 46.0649 736.109 46.0705 736.123C46.2407 736.201 46.3994 736.301 46.5525 736.422C46.6093 736.465 46.6603 736.501 46.7113 736.543C47.2784 737.028 47.9363 737.27 48.6224 737.306C48.7302 737.306 48.8437 737.306 48.9514 737.306C49.2349 737.292 49.5185 737.27 49.7793 737.377C49.8077 737.377 49.8361 737.398 49.8701 737.406C50.182 737.577 50.4372 737.876 50.698 738.161C50.8228 738.296 50.9475 738.368 51.0893 738.418C51.56 738.589 52.1101 738.353 52.6375 738.353C53.3407 738.353 54.3614 738.075 55.0136 738.375C55.2007 738.453 55.3709 738.653 55.5297 738.838C55.5693 738.888 55.6147 738.931 55.6544 738.973C55.7792 739.102 55.8699 739.194 55.9606 739.273C56.1535 739.444 56.3179 739.536 56.6752 739.679C56.9531 739.786 57.1798 739.893 57.3953 740.035C57.832 740.313 58.1609 740.705 58.4728 741.418C58.6373 741.774 58.7337 742.03 58.8698 742.244C58.8698 742.244 58.8698 742.244 58.8698 742.258C59.0059 742.458 59.1703 742.615 59.4539 742.8C59.7715 743 60.0834 743.206 60.4009 743.434C60.5427 743.534 60.6788 743.612 60.8206 743.662C61.0588 743.748 61.2856 743.783 61.5124 743.783C62.227 743.783 62.9302 743.463 63.7468 743.669C63.8546 743.698 63.9623 743.734 64.07 743.776C64.5634 743.969 65.0568 744.325 65.38 744.824C65.4764 744.973 65.5502 745.13 65.5899 745.273C65.6125 745.337 65.6239 745.401 65.6352 745.465C66.1399 745.337 66.6503 745.266 67.1607 745.259C70.257 745.23 73.4384 745.223 76.4156 745.985C76.7786 745.893 77.1528 745.65 77.6972 745.216C78.752 744.368 79.9089 743.285 80.9864 743.769C81.27 743.897 81.5535 744.126 81.82 744.51C82.0242 744.795 82.1773 745.045 82.3247 745.251C82.4155 745.38 82.5175 745.479 82.6252 745.565C82.8294 745.715 83.0619 745.8 83.4249 745.764C83.8559 745.729 84.2529 745.422 84.6725 745.38C84.9107 745.351 85.2339 745.38 85.5458 745.458C85.8747 745.536 86.1923 745.665 86.3851 745.857C86.6629 746.128 86.7254 746.605 86.8728 746.997C86.9012 747.083 86.9352 747.175 86.9805 747.247C88.5967 750.147 91.7611 747.225 93.6609 749.007C93.7176 749.057 93.7573 749.107 93.8083 749.171C94.1146 749.598 94.279 750.318 94.7214 750.418C95.0219 750.482 95.5379 750.154 95.9009 750.183C97.1485 750.311 97.4207 751.38 98.294 752.299C98.7703 752.791 99.2581 752.385 99.8309 752.192C100.795 751.857 101.396 752.021 102.315 752.584C103.114 753.069 103.636 753.959 104.243 754.765C104.697 755.349 105.059 755.748 105.451 756.404C105.661 756.76 105.802 756.945 106.097 757.173C106.562 757.53 107.112 757.551 107.645 757.53C107.918 757.515 108.184 757.494 108.439 757.494C109.5 757.48 110.764 757.416 111.808 757.907C111.944 757.971 112.08 758.043 112.199 758.121C112.846 758.534 113.634 759.154 114.173 759.767C114.229 759.831 114.28 759.895 114.331 759.96C114.666 760.394 114.836 760.772 115.386 760.914C115.647 760.971 115.925 761 116.208 761C116.475 761 116.753 760.964 117.036 760.914C117.048 760.914 117.059 760.915 117.076 760.9C117.104 760.9 117.133 760.9 117.167 760.886C117.711 760.772 118.256 760.587 118.704 760.387C118.76 760.359 118.811 760.33 118.868 760.302C120.172 759.667 121.006 758.634 122.055 757.458C122.169 757.33 122.282 757.216 122.395 757.116C123.195 756.382 124.063 756.126 125.021 755.741C125.134 755.698 125.242 755.655 125.356 755.606C125.781 755.449 126.201 755.299 126.598 755.057C126.739 754.971 126.87 754.872 126.995 754.779C127.244 754.587 127.494 754.401 127.771 754.302C128.072 754.188 128.367 754.123 128.65 754.073C129.518 753.924 130.295 753.845 130.868 752.698C130.93 752.563 130.998 752.442 131.066 752.306C131.65 751.173 132.268 750.168 133.312 749.805C134.781 749.285 136.244 749.926 137.066 747.838C137.52 746.677 137.911 746.071 138.858 745.764C139.21 745.65 139.493 745.529 139.754 745.408C140.355 745.095 140.764 744.674 141.263 743.812C141.58 743.27 141.988 742.679 142.465 742.351C142.629 742.244 142.799 742.159 142.975 742.123C143.86 741.916 144.699 742.33 145.533 742.508C145.731 742.551 145.93 742.593 146.134 742.593C146.338 742.593 146.537 742.565 146.735 742.515C147.665 742.294 148.538 741.539 149.071 740.527C149.287 740.113 149.429 739.786 149.65 739.551C149.667 739.522 149.69 739.508 149.712 739.486C149.865 739.344 150.058 739.237 150.325 739.18C150.812 739.073 151.311 739.13 151.81 739.159C152.049 739.18 152.287 739.18 152.531 739.159C153.041 739.116 153.342 738.574 153.795 738.46C154.623 738.261 154.918 737.534 155.593 737.021C155.871 736.814 156.166 736.672 156.455 736.6C156.472 736.6 156.489 736.6 156.506 736.586C156.506 736.586 156.51 736.586 156.517 736.586C157.243 736.408 157.986 736.558 158.718 736.714C158.91 736.75 159.109 736.793 159.296 736.821C160.215 736.978 161.082 736.572 161.916 736.08C162.149 735.945 162.375 735.817 162.597 735.674C162.71 735.603 162.823 735.539 162.937 735.474C163.345 735.225 163.702 735.104 164.02 734.897C164.298 734.719 164.553 734.491 164.803 734.092C165.075 733.657 165.183 733.052 165.324 732.503C165.438 732.082 165.568 731.69 165.801 731.427C166.413 730.757 167.508 730.664 168.443 730.422C168.75 730.337 169.039 730.244 169.288 730.116C169.447 730.03 169.594 729.93 169.736 729.809H169.748C169.787 729.781 169.827 729.745 169.861 729.717C169.901 729.688 169.935 729.66 169.974 729.631C170.247 729.403 170.513 731.199 170.797 732.09C172.702 730.821 174.817 730.116 177.063 730.073C177.965 730.059 178.855 730.265 179.745 730.386C180.086 730.429 180.426 730.458 180.772 730.493C181.379 729.688 181.94 728.826 182.553 728.028C184.759 725.177 187.254 723.139 190.248 721.956C191.257 721.557 192.261 721.443 193.237 721.55C193.548 721.422 193.838 721.365 194.099 721.322C194.677 721.229 195.193 721.187 195.822 720.574C196.14 720.267 196.486 719.99 196.855 719.747C196.866 719.747 196.872 719.726 196.883 719.726C197.41 719.391 197.977 719.149 198.527 719.07C198.652 719.049 198.771 719.042 198.879 719.042C199.679 719.042 200.41 719.042 201.13 719.006C201.737 718.978 202.321 718.913 202.911 718.771C203.229 718.7 203.546 719.341 203.864 720.089C205.191 719.092 206.699 718.507 208.236 718.507C208.406 718.507 208.576 718.529 208.741 718.543C209.002 718.372 209.28 718.236 209.58 718.165C211.287 717.766 213.453 719.027 215.036 717.88C216.476 716.833 217.071 712.457 219.022 713.049C219.13 713.077 219.226 713.12 219.328 713.156C219.941 713.405 220.344 713.719 220.899 713.811C221.16 713.861 221.438 713.861 221.807 713.79C222.277 713.683 222.771 713.519 223.156 713.12C223.196 713.07 223.236 713.027 223.275 712.97C223.684 712.443 223.95 711.616 224.534 711.239C224.631 711.167 224.738 711.118 224.846 711.089C225.572 710.833 226.298 711.232 227.047 711.367C227.047 711.367 227.064 711.367 227.069 711.381C227.273 711.417 227.483 711.438 227.687 711.445C228.782 711.495 229.865 711.132 230.631 709.977C230.812 709.699 230.954 709.45 231.084 709.215C231.424 708.588 231.668 708.082 232.366 707.562C233.239 706.899 233.71 706.764 234.708 707.12C234.906 707.191 235.128 707.255 235.366 707.305C236.54 707.547 238.071 707.426 239.041 706.464C239.432 706.079 239.727 705.566 239.88 704.889C240.129 703.785 239.636 702.68 240.611 701.925C240.668 701.889 240.719 701.847 240.77 701.825C241.167 701.611 241.524 701.74 241.865 701.583C241.882 701.569 241.893 701.569 241.91 701.562C242.04 701.483 242.171 701.369 242.301 701.17C242.347 701.098 242.386 701.027 242.415 700.949C242.517 700.692 242.557 700.379 242.591 700.079C242.647 699.723 242.687 699.374 242.834 699.146C243.231 698.483 244.116 698.455 244.683 698.618C245.483 698.847 246.294 699.637 247.28 699.531C247.632 699.502 247.711 699.246 247.961 699.067C247.984 699.046 248.006 699.032 248.029 699.017C248.091 698.982 248.154 698.953 248.21 698.925C248.471 698.789 248.715 698.683 249.004 698.675C249.135 698.675 249.271 698.675 249.43 698.704C250.184 698.847 250.734 699.502 251.471 699.31C251.607 699.274 251.743 699.238 251.868 699.21C252.594 699.032 253.275 698.911 254.091 698.911C254.721 698.911 255.775 699.203 256.354 698.832C256.785 698.554 257.006 697.478 257.522 697.179C257.959 696.93 258.651 697.229 259.11 697.15C259.127 697.15 259.127 697.15 259.144 697.136C259.496 697.072 259.649 697.001 259.864 696.83C259.966 696.744 260.074 696.652 260.233 696.523C261.282 695.64 262.172 695.419 263.114 695.989C263.369 696.139 263.624 696.352 263.89 696.63C264.577 697.343 265.098 697.521 265.87 697.15H265.887C265.983 697.535 266.131 697.899 266.352 698.205C267.061 699.181 268.37 698.889 269.284 698.896C270.554 698.911 270.497 698.583 271.183 697.179C271.24 697.065 271.302 696.951 271.365 696.837C271.382 696.865 271.399 696.887 271.421 696.908C271.592 697.086 271.773 697.229 272.011 697.307C272.091 697.336 272.176 697.343 272.272 697.357C272.346 697.357 272.42 697.357 272.493 697.357C272.51 697.357 272.522 697.357 272.539 697.357C272.55 697.357 272.556 697.357 272.556 697.357C273.157 697.272 273.627 696.73 274.195 696.374C274.597 696.117 275.028 695.747 275.471 695.447C275.686 695.298 275.901 695.162 276.111 695.063C276.537 695.533 276.724 696.146 276.911 696.816C277.007 697.172 277.115 697.535 277.263 697.892C277.58 698.675 278.028 698.768 278.675 698.804H278.794C279.253 698.804 279.639 698.668 280.019 698.262C280.019 698.262 280.019 698.248 280.03 698.248C280.274 697.97 280.382 697.5 280.608 697.257C281.589 696.21 282.973 696.944 284.136 697.407C284.476 697.542 284.793 697.656 285.077 697.699C285.916 697.827 286.858 696.659 287.589 696.245C288.854 695.533 289.506 696.053 290.731 696.652C291.349 696.958 292.296 697.571 292.931 697.215C293.527 696.88 293.878 695.918 294.474 695.576C295.716 694.849 296.963 696.502 297.995 695.248C298.205 694.991 298.375 694.642 298.551 694.307C298.687 694.051 298.835 693.801 299.016 693.616C299.067 693.566 299.113 693.523 299.164 693.481C299.583 693.174 300.043 693.281 300.53 693.288C301.148 693.288 301.404 693.331 301.812 692.853C301.846 692.811 301.874 692.768 301.914 692.725C301.976 692.64 302.044 692.554 302.112 692.476C302.6 691.856 303.037 691.371 303.763 691.243C304.602 691.1 305.373 691.635 306.025 692.319C306.042 692.333 306.048 692.348 306.065 692.355C306.127 692.426 306.196 692.497 306.258 692.583C306.269 692.583 306.275 692.604 306.281 692.611C306.332 692.675 306.383 692.739 306.434 692.804C306.592 693.01 306.751 693.217 306.961 693.367C307.795 693.951 308.396 692.96 309.133 693.231C309.865 693.502 309.643 694.749 309.819 695.526C309.978 696.253 310.25 696.274 310.738 696.317C310.8 696.317 310.863 696.317 310.931 696.338C310.987 696.338 311.038 696.352 311.095 696.359C311.543 696.431 312.122 696.566 312.53 696.381C312.819 696.245 313.046 695.754 313.369 695.647C314.447 695.291 315.105 696.801 316.001 696.837C316.114 696.837 316.239 696.823 316.358 696.766C316.409 696.744 316.449 696.723 316.488 696.694C317.078 696.374 317.35 695.725 317.849 695.298C317.872 695.276 317.9 695.255 317.929 695.226C317.946 695.212 317.968 695.205 317.991 695.198C318.569 694.813 319.494 695.055 320.118 695.055C320.741 695.055 321.053 694.827 321.626 694.528C322.278 694.179 322.624 694.243 322.874 694.834C322.959 695.027 323.027 695.291 323.095 695.611C323.265 696.395 323.35 696.922 323.634 697.229C323.764 697.371 323.951 697.464 324.201 697.507C324.269 697.521 324.331 697.535 324.411 697.542C324.45 697.542 324.484 697.542 324.524 697.542C324.989 697.571 325.505 697.607 325.947 697.492C326.265 697.414 326.605 697.015 326.894 696.972C327.552 696.887 327.768 698.469 328.431 699.003C328.499 699.06 328.567 699.103 328.647 699.139C328.692 699.16 328.732 699.167 328.777 699.174C330.013 699.488 330.824 697.314 332.021 698.376C332.276 698.604 332.412 698.889 332.509 699.196C332.622 699.559 332.667 699.965 332.752 700.329C332.826 700.635 332.928 700.913 333.132 701.127C333.926 701.982 363.477 737.263 364.317 737.527C365.162 737.783 365.19 738.503 365.332 739.358C365.355 739.494 365.383 739.622 365.411 739.764C365.451 739.95 365.513 740.121 365.587 740.285C366.097 741.403 367.322 741.902 368.19 741.945C368.644 741.966 368.468 742.052 368.842 741.703C369.421 741.161 369.545 740.791 370.084 740.584C370.203 740.541 370.328 740.498 370.487 740.47C370.538 740.47 370.589 740.448 370.651 740.441C371.162 740.327 372.08 740.106 372.494 740.377C372.653 740.477 372.783 740.79 372.925 741.054C372.988 741.175 373.056 741.289 373.129 741.368C373.169 741.41 373.214 741.453 373.254 741.489C373.742 741.952 374.394 742.123 375.018 742.116C375.477 742.116 375.783 741.867 376.146 742.066C376.447 742.23 376.679 742.893 376.918 743.064C377.496 743.463 378.216 743.192 378.834 743.399C379.027 743.47 379.169 743.548 379.277 743.648C379.288 743.648 379.294 743.662 379.305 743.669C379.356 743.719 379.396 743.769 379.435 743.826L379.452 743.848C379.589 744.076 379.64 744.375 379.691 744.731C379.708 744.895 379.736 745.066 379.764 745.259C379.764 745.259 379.764 745.259 379.764 745.273C379.781 745.415 379.821 745.558 379.866 745.686C379.866 745.686 379.866 745.7 379.878 745.707C379.929 745.836 379.986 745.957 380.054 746.071C380.054 746.085 380.065 746.092 380.071 746.099C380.133 746.206 380.207 746.306 380.292 746.406C380.303 746.42 380.309 746.434 380.326 746.441C380.4 746.52 380.485 746.605 380.57 746.677C380.587 746.698 380.615 746.712 380.632 746.734C380.711 746.798 380.791 746.855 380.87 746.912C380.899 746.933 380.927 746.947 380.961 746.969C381.035 747.019 381.114 747.061 381.199 747.104C381.233 747.126 381.267 747.133 381.301 747.154C381.381 747.19 381.46 747.225 381.539 747.254C381.568 747.268 381.596 747.282 381.624 747.289C381.715 747.318 381.8 747.354 381.885 747.375H381.902C382.112 747.439 382.367 747.418 382.588 747.46C382.662 747.475 382.736 747.489 382.804 747.525C382.832 747.546 382.866 747.567 382.895 747.589C383.229 747.788 383.536 748.173 383.853 748.394C384.324 748.736 384.936 749.114 385.509 748.957C385.707 748.9 385.832 748.658 386.019 748.586C386.388 748.444 386.745 748.501 387.137 748.451C387.896 748.358 388.549 747.781 389.269 747.432C389.303 747.418 389.337 747.403 389.377 747.382C389.405 747.368 389.439 747.354 389.473 747.346C390.352 746.969 391.361 746.712 392.325 746.833C392.382 746.833 392.427 746.848 392.484 746.855C392.513 746.855 392.541 746.876 392.564 746.883C393.204 747.04 393.692 747.689 394.339 747.867C394.356 747.867 394.378 747.888 394.395 747.895C394.758 747.974 395.144 747.803 395.456 748.023C395.864 748.301 396.046 748.964 396.488 749.228C397.117 749.605 398.201 749.028 398.609 749.798C398.773 750.104 398.717 750.546 398.739 750.924C398.739 751.009 398.756 751.095 398.768 751.173C398.802 751.309 398.853 751.458 398.904 751.586C399.074 752 399.34 752.377 399.63 752.577C400.526 753.211 401.983 752.178 402.777 753.069C403.248 753.596 403.197 754.202 403.758 754.572C403.803 754.601 403.843 754.636 403.894 754.658C403.922 754.679 403.951 754.686 403.979 754.701C404.461 754.95 404.614 755.014 405.017 754.451C405.142 754.287 405.227 754.102 405.306 753.924C405.465 753.582 405.59 753.233 405.845 752.997C405.902 752.948 405.958 752.905 406.026 752.862C407.144 752.221 408.442 753.261 409.463 752.556C410.229 752.028 410.444 752.385 410.937 753.304C411.068 753.553 411.21 753.874 411.357 754.109C411.521 754.366 411.675 754.309 411.799 754.622C411.879 754.815 411.799 755.15 411.879 755.363C412.27 756.418 413.433 756.161 414.181 756.062C414.499 756.012 414.85 755.883 415.179 755.955C415.281 755.983 415.372 756.076 415.457 756.154C415.525 756.226 415.588 756.29 415.667 756.29C416.245 756.304 416.387 755.527 416.654 755.028C416.971 754.437 417.283 754.195 417.805 754.088C418.463 753.952 419.234 753.917 419.88 754.109C420.102 754.173 420.584 754.636 420.714 754.636C421.134 754.651 421.173 754.138 421.434 753.703C421.434 753.703 421.446 753.682 421.451 753.674C421.468 753.646 421.491 753.617 421.508 753.589C421.531 753.56 421.559 753.518 421.582 753.489C422.024 752.983 422.903 752.94 423.442 753.062C424.224 753.24 424.462 753.803 425.092 754.109C425.619 754.359 426.039 753.902 426.544 754.131C427.111 754.387 427.78 755.278 428.461 755.278C428.608 755.278 428.755 755.235 428.903 755.135C428.937 755.107 428.96 755.071 428.994 755.05C429.266 754.8 429.43 754.38 429.782 754.166C430.026 754.024 430.383 753.81 430.627 753.774C431.307 753.689 431.636 754.594 432.243 754.822C433.252 755.199 433.774 754.758 434.421 753.853C435.277 752.663 435.867 751.879 437.08 752.335C437.659 752.556 438.64 753.689 439.258 753.959C439.615 754.116 440.313 754.28 440.676 754.116C441.22 753.867 441.413 753.019 441.872 752.598C442.695 751.85 443.426 752.185 444.146 752.627C444.606 752.912 445.059 753.24 445.524 753.375C445.592 753.396 445.655 753.404 445.717 753.411C446.624 753.503 446.619 752.278 447.413 752.028C447.588 751.978 447.696 752.092 447.855 752.121H447.866C447.883 752.121 447.9 752.121 447.917 752.135C448.808 752.342 449.721 753.34 450.662 753.589C451.496 753.803 452.227 753.639 453.021 753.24C453.991 752.755 453.951 752.548 454.399 751.586C454.654 751.031 455.136 750.539 455.494 750.069C456.157 749.192 456.957 749.099 457.864 748.985C458.783 748.879 460.314 749.399 461.108 748.508C461.919 747.589 461.862 746.406 463.076 746.156C464.788 745.807 465.775 747.667 467.374 747.838C468.412 747.945 469.155 747.81 470 747.026V0H0.00567646H0Z" fill="#EBEBEB"/>
    <path d="M470 0H0V664.531V676.594C0.0623808 676.68 0.119129 676.772 0.18151 676.872C0.431034 677.263 0.686214 677.726 0.94708 677.982C1.31002 678.331 2.17767 678.623 2.63135 678.779C3.17009 678.964 3.72582 678.85 4.16816 679.284C4.79197 679.889 4.88842 681.206 5.56327 681.783C5.98859 682.145 6.94697 682.331 7.45168 682.387C8.00177 682.451 8.56323 682.366 9.11331 682.387C9.70877 682.409 10.1284 682.416 10.6217 682.779C11.0641 683.106 11.342 684.017 11.7957 684.117C12.0962 684.188 12.8845 683.839 13.1794 683.676C13.8259 683.327 13.8032 682.743 14.2455 682.131C14.7105 681.484 15.3174 681.74 16.0603 681.541C16.9336 681.313 16.9449 681.206 17.3532 680.544C18.0848 679.356 19.1509 678.352 20.3645 678.494C20.4042 678.494 20.4496 678.502 20.4893 678.509C20.6821 678.544 20.8692 678.601 21.0507 678.672C22.304 679.192 23.183 680.558 24.4646 680.964C25.1168 681.17 25.7747 681.391 26.4722 681.256C26.7728 681.199 27.1243 680.886 27.4192 680.957C27.7765 681.042 28.1621 681.669 28.4683 681.946C29.3417 682.736 30.1016 682.871 31.1677 682.765C32.7669 682.608 33.7537 680.872 35.4664 681.192C36.68 681.42 36.6176 682.523 37.4342 683.384C38.2225 684.224 39.7593 683.733 40.678 683.832C41.5853 683.932 42.385 684.024 43.0428 684.843C43.3944 685.284 43.8821 685.74 44.1373 686.259C44.5796 687.156 44.5456 687.348 45.5153 687.803C46.3093 688.174 47.0409 688.323 47.8745 688.124C48.8159 687.896 49.7232 686.964 50.6192 686.772C50.6362 686.772 50.6532 686.757 50.6702 686.757C50.6702 686.757 50.6759 686.757 50.6816 686.757C50.8404 686.722 50.9482 686.615 51.124 686.672C51.9179 686.907 51.9179 688.053 52.8196 687.96C52.882 687.96 52.9443 687.946 53.0124 687.925C53.4774 687.804 53.9311 687.497 54.3848 687.227C55.105 686.807 55.8422 686.494 56.6588 687.199C57.1182 687.59 57.3053 688.387 57.8554 688.622C58.2184 688.779 58.9159 688.622 59.2732 688.473C59.8913 688.216 60.8667 687.163 61.4508 686.957C62.6644 686.53 63.2542 687.27 64.1105 688.38C64.7627 689.227 65.2844 689.647 66.2882 689.291C66.895 689.077 67.2239 688.231 67.9044 688.316C68.1539 688.344 68.5055 688.544 68.7494 688.679C69.101 688.878 69.2711 689.277 69.5376 689.504C69.566 689.533 69.5944 689.561 69.6284 689.583C70.462 690.102 71.3013 688.935 71.9875 688.643C72.4866 688.43 72.9119 688.864 73.4393 688.622C74.0688 688.33 74.307 687.811 75.0895 687.647C75.6283 687.533 76.5073 687.576 76.9496 688.046C76.978 688.074 77.0007 688.11 77.0234 688.138C77.0404 688.167 77.0687 688.188 77.0857 688.216C77.0857 688.223 77.0914 688.23 77.097 688.238C77.3579 688.643 77.4033 689.127 77.8173 689.113C77.942 689.113 78.4298 688.679 78.6509 688.615C79.2974 688.444 80.0686 688.48 80.7265 688.601C81.2482 688.7 81.5601 688.921 81.8777 689.476C82.1442 689.939 82.286 690.672 82.8588 690.657C82.9382 690.657 83.0062 690.593 83.0743 690.529C83.1593 690.451 83.2444 690.359 83.3521 690.337C83.6754 690.273 84.027 690.394 84.3502 690.437C85.0988 690.536 86.2614 690.771 86.6527 689.782C86.7321 689.583 86.6527 689.277 86.7321 689.092C86.8569 688.8 87.0099 688.857 87.1744 688.608C87.3218 688.387 87.4579 688.088 87.594 687.853C88.0874 686.999 88.303 686.658 89.0685 687.156C90.0893 687.818 91.3879 686.843 92.5051 687.448C92.5732 687.483 92.6356 687.526 92.6866 687.576C92.9418 687.796 93.0666 688.124 93.2197 688.444C93.2991 688.615 93.3898 688.786 93.5089 688.942C93.9115 689.462 94.0646 689.398 94.5467 689.17C94.575 689.156 94.6034 689.141 94.6317 689.127C94.6828 689.099 94.7225 689.07 94.7678 689.042C95.3293 688.693 95.2782 688.131 95.7489 687.633C96.5428 686.8 98.0003 687.768 98.8963 687.177C99.1799 686.985 99.4464 686.636 99.6166 686.252C99.6733 686.124 99.7186 685.996 99.7527 685.861C99.7697 685.789 99.781 685.711 99.781 685.626C99.8037 685.277 99.747 684.864 99.9115 684.58C100.325 683.854 101.403 684.402 102.032 684.046C102.475 683.797 102.656 683.177 103.064 682.921C103.382 682.715 103.768 682.879 104.131 682.8C104.153 682.8 104.17 682.786 104.193 682.779C104.84 682.608 105.327 682.003 105.968 681.854C105.996 681.854 106.019 681.839 106.047 681.832C106.098 681.825 106.15 681.818 106.206 681.811C107.17 681.69 108.18 681.932 109.059 682.281C109.093 682.295 109.127 682.309 109.155 682.316C109.189 682.331 109.223 682.352 109.263 682.366C109.977 682.686 110.635 683.227 111.395 683.313C111.781 683.355 112.144 683.306 112.512 683.441C112.7 683.512 112.824 683.733 113.023 683.789C113.596 683.939 114.208 683.583 114.679 683.27C115.002 683.056 115.303 682.701 115.637 682.508C115.671 682.487 115.699 682.466 115.733 682.451C115.802 682.423 115.875 682.402 115.949 682.387C116.176 682.352 116.425 682.366 116.635 682.309C116.641 682.309 116.646 682.309 116.652 682.309C116.737 682.288 116.822 682.259 116.913 682.231C116.941 682.224 116.97 682.21 116.998 682.202C117.078 682.174 117.157 682.138 117.236 682.103C117.27 682.089 117.304 682.074 117.338 682.053C117.418 682.017 117.497 681.975 117.577 681.925C117.605 681.911 117.639 681.889 117.667 681.868C117.752 681.818 117.832 681.761 117.911 681.697C117.934 681.683 117.951 681.662 117.974 681.647C118.059 681.576 118.138 681.505 118.217 681.427C118.229 681.412 118.24 681.405 118.251 681.391C118.331 681.306 118.405 681.213 118.473 681.114C118.473 681.106 118.484 681.099 118.49 681.092C118.558 680.985 118.62 680.872 118.665 680.758C118.665 680.758 118.665 680.743 118.671 680.743C118.716 680.622 118.756 680.494 118.779 680.359C118.779 680.359 118.779 680.352 118.779 680.345C118.807 680.167 118.83 680.003 118.853 679.854C118.904 679.512 118.949 679.235 119.091 679.028C119.091 679.028 119.102 679.014 119.108 679.007C119.147 678.957 119.187 678.9 119.238 678.857C119.244 678.857 119.255 678.843 119.267 678.836C119.38 678.744 119.522 678.665 119.715 678.601C120.327 678.409 121.053 678.665 121.626 678.288C121.869 678.131 122.102 677.505 122.397 677.356C122.754 677.171 123.066 677.398 123.52 677.406C124.144 677.406 124.796 677.256 125.283 676.822C125.323 676.786 125.368 676.751 125.408 676.708C125.476 676.637 125.544 676.53 125.607 676.416C125.748 676.167 125.885 675.882 126.038 675.79C126.452 675.534 127.365 675.747 127.881 675.847C127.937 675.861 127.994 675.868 128.045 675.875C128.204 675.904 128.334 675.939 128.448 675.982C128.987 676.174 129.111 676.516 129.69 677.028C130.058 677.356 129.888 677.27 130.336 677.249C131.204 677.213 132.429 676.744 132.945 675.697C133.019 675.548 133.081 675.384 133.121 675.214C133.149 675.085 133.177 674.957 133.194 674.836C133.336 674.046 133.365 673.37 134.21 673.128C135.049 672.886 136.053 673.762 136.847 672.957C137.051 672.751 137.153 672.488 137.227 672.203C137.317 671.861 137.357 671.484 137.47 671.143C137.561 670.858 137.703 670.587 137.958 670.381C139.155 669.385 139.966 671.427 141.202 671.128C141.242 671.121 141.287 671.114 141.327 671.1C141.406 671.071 141.474 671.029 141.542 670.972C142.206 670.466 142.416 669 143.079 669.072C143.363 669.107 143.708 669.484 144.02 669.555C144.463 669.662 144.979 669.634 145.444 669.598C145.483 669.598 145.518 669.598 145.557 669.598C145.637 669.598 145.705 669.577 145.773 669.563C146.017 669.52 146.204 669.434 146.334 669.299C146.618 669.015 146.714 668.516 146.879 667.783C146.947 667.484 147.02 667.242 147.1 667.057C147.344 666.502 147.689 666.452 148.347 666.766C148.92 667.043 149.221 667.257 149.856 667.257C150.48 667.257 151.398 667.036 151.982 667.392C152.005 667.406 152.028 667.413 152.045 667.427C152.073 667.449 152.096 667.47 152.124 667.492C152.623 667.89 152.895 668.488 153.485 668.794C153.531 668.815 153.57 668.844 153.621 668.865C153.746 668.915 153.865 668.929 153.984 668.929C154.88 668.901 155.538 667.484 156.616 667.819C156.945 667.919 157.171 668.381 157.455 668.502C157.863 668.68 158.436 668.552 158.89 668.488C158.946 668.481 159.003 668.474 159.054 668.467C159.122 668.459 159.185 668.452 159.247 668.452C159.735 668.41 160.007 668.395 160.171 667.712C160.341 666.986 160.12 665.819 160.852 665.57C161.589 665.314 162.19 666.239 163.024 665.691C163.228 665.556 163.392 665.364 163.551 665.164C163.602 665.1 163.648 665.043 163.699 664.979C163.71 664.965 163.716 664.958 163.727 664.951C163.789 664.88 163.852 664.808 163.92 664.737C163.931 664.723 163.943 664.716 163.954 664.702C164.612 664.068 165.383 663.563 166.222 663.698C166.942 663.812 167.385 664.267 167.873 664.844C167.935 664.922 168.003 665.001 168.071 665.079C168.111 665.122 168.139 665.157 168.173 665.193C168.587 665.641 168.837 665.598 169.455 665.598C169.942 665.598 170.402 665.499 170.821 665.783C170.872 665.819 170.924 665.855 170.975 665.904C171.156 666.075 171.304 666.31 171.44 666.552C171.615 666.858 171.78 667.185 171.995 667.427C173.027 668.602 174.281 667.057 175.517 667.734C176.112 668.061 176.464 668.958 177.054 669.264C177.689 669.598 178.636 669.022 179.254 668.737C180.473 668.175 181.126 667.691 182.396 668.36C183.127 668.744 184.069 669.833 184.908 669.719C185.192 669.684 185.509 669.57 185.85 669.449C187.012 669.015 188.402 668.331 189.377 669.306C189.604 669.534 189.706 669.975 189.95 670.232C189.95 670.232 189.955 670.239 189.961 670.246C190.369 670.652 190.795 670.78 191.305 670.751C191.952 670.716 192.405 670.623 192.717 669.897C192.865 669.563 192.967 669.214 193.069 668.886C193.256 668.267 193.437 667.684 193.868 667.25C194.078 667.342 194.294 667.47 194.503 667.605C194.946 667.89 195.377 668.232 195.779 668.474C196.347 668.808 196.817 669.313 197.413 669.399C197.413 669.399 197.418 669.399 197.43 669.399C197.447 669.399 197.458 669.399 197.475 669.399C197.549 669.399 197.617 669.406 197.696 669.399C197.787 669.392 197.878 669.37 197.957 669.349C198.195 669.278 198.377 669.143 198.547 668.979C198.564 668.958 198.587 668.936 198.604 668.915C198.666 669.022 198.728 669.128 198.785 669.235C199.471 670.545 199.415 670.851 200.685 670.837C201.598 670.837 202.908 671.107 203.617 670.189C203.838 669.904 203.985 669.563 204.082 669.2C204.082 669.2 204.093 669.2 204.099 669.207C204.87 669.548 205.392 669.385 206.084 668.716C206.35 668.459 206.605 668.26 206.861 668.111C207.802 667.584 208.692 667.79 209.741 668.616C209.895 668.737 210.008 668.822 210.11 668.901C210.326 669.057 210.479 669.128 210.83 669.185C210.842 669.185 210.847 669.185 210.864 669.193C211.324 669.271 212.015 668.986 212.452 669.221C212.963 669.499 213.189 670.509 213.615 670.765C214.193 671.107 215.248 670.844 215.877 670.844C216.694 670.844 217.375 670.95 218.1 671.121C218.231 671.15 218.367 671.178 218.503 671.214C219.24 671.392 219.79 670.787 220.55 670.651C220.703 670.623 220.84 670.616 220.97 670.623C221.259 670.63 221.503 670.73 221.764 670.858C221.821 670.886 221.883 670.915 221.945 670.95C221.968 670.958 221.991 670.979 222.013 670.993C222.257 671.157 222.342 671.399 222.688 671.427C223.675 671.52 224.486 670.787 225.291 670.566C225.858 670.409 226.737 670.438 227.14 671.057C227.282 671.271 227.327 671.598 227.378 671.933C227.418 672.217 227.458 672.509 227.56 672.744C227.594 672.822 227.628 672.886 227.673 672.95C227.803 673.142 227.928 673.242 228.064 673.313C228.064 673.313 228.093 673.32 228.11 673.335C228.45 673.477 228.807 673.356 229.204 673.562C229.255 673.591 229.306 673.619 229.357 673.655C230.338 674.367 229.845 675.391 230.095 676.423C230.242 677.064 230.543 677.541 230.934 677.897C231.904 678.786 233.435 678.907 234.609 678.679C234.847 678.637 235.068 678.573 235.267 678.509C236.265 678.167 236.735 678.302 237.609 678.914C238.301 679.405 238.55 679.875 238.885 680.459C239.015 680.679 239.151 680.914 239.338 681.17C240.11 682.252 241.187 682.594 242.282 682.544C242.486 682.537 242.696 682.516 242.9 682.487C242.905 682.487 242.917 682.487 242.928 682.48C243.677 682.352 244.402 681.975 245.123 682.217C245.23 682.252 245.333 682.295 245.435 682.359C246.019 682.708 246.285 683.483 246.694 683.975C246.733 684.024 246.773 684.067 246.813 684.117C247.193 684.494 247.692 684.644 248.162 684.743C248.525 684.814 248.809 684.807 249.064 684.765C249.62 684.672 250.022 684.38 250.635 684.152C250.731 684.117 250.828 684.081 250.941 684.053C252.886 683.498 253.482 687.583 254.928 688.565C256.51 689.64 258.676 688.458 260.389 688.836C260.962 688.964 261.444 689.277 261.88 689.69C261.909 689.711 261.932 689.739 261.96 689.768C262.884 690.672 263.633 691.953 264.688 692.579C265.516 693.07 266.287 693.362 267.064 693.54C267.654 693.668 268.243 693.732 268.85 693.76C269.57 693.803 270.308 693.789 271.102 693.796C271.221 693.796 271.334 693.803 271.453 693.825C272.009 693.896 272.57 694.131 273.098 694.437C273.109 694.437 273.115 694.451 273.126 694.458C273.495 694.686 273.846 694.949 274.158 695.234C274.788 695.81 275.304 695.846 275.882 695.924C276.16 695.967 276.455 696.017 276.784 696.152C277.187 696.308 277.561 696.65 277.907 697.034C278.287 697.447 278.644 697.91 278.984 698.258C279.835 699.134 280.805 699.333 281.899 699.532C282.228 699.589 282.517 699.639 282.761 699.703C283.385 699.881 283.765 700.201 283.997 701.262C284.173 702.073 284.264 702.92 284.326 703.774C284.366 704.272 284.394 704.77 284.423 705.269C284.451 705.696 284.474 706.13 284.508 706.543C284.74 709.29 286.079 710.236 287.842 710.621C288.319 710.727 288.829 710.784 289.351 710.827C289.504 710.834 289.651 710.856 289.804 710.884C290.417 710.962 291.018 711.09 291.636 711.162C291.767 711.176 291.891 711.197 292.027 711.204C293.133 711.268 294.137 710.934 295.226 710.735C295.345 710.713 295.47 710.692 295.594 710.678L295.685 710.663C296.763 710.535 297.852 710.628 298.872 711.14C299.275 711.347 299.638 711.66 300.007 711.944C300.046 711.973 300.08 712.001 300.12 712.03C300.16 712.058 300.199 712.087 300.239 712.122H300.245C300.387 712.229 300.54 712.329 300.693 712.407C300.942 712.535 301.231 712.613 301.543 712.692C302.473 712.92 303.568 713.005 304.186 713.631C304.424 713.873 304.555 714.243 304.662 714.642C304.804 715.154 304.918 715.716 305.184 716.122C305.439 716.499 305.695 716.713 305.967 716.884C306.29 717.076 306.642 717.197 307.056 717.425C307.169 717.481 307.282 717.553 307.396 717.61C307.617 717.738 307.844 717.866 308.071 717.987C308.904 718.442 309.766 718.827 310.685 718.677C310.878 718.649 311.076 718.606 311.269 718.57C312.001 718.428 312.744 718.293 313.464 718.457C313.464 718.457 313.469 718.457 313.475 718.457C313.492 718.457 313.509 718.464 313.52 718.464C313.81 718.542 314.099 718.663 314.382 718.862C315.057 719.339 315.352 720.015 316.18 720.207C316.634 720.314 316.934 720.819 317.445 720.862C317.683 720.876 317.921 720.869 318.159 720.862C318.658 720.834 319.157 720.784 319.645 720.883C319.912 720.933 320.11 721.033 320.263 721.168C320.286 721.189 320.309 721.211 320.326 721.225C320.547 721.453 320.694 721.759 320.904 722.136C321.443 723.083 322.316 723.794 323.241 723.994C323.439 724.036 323.643 724.072 323.842 724.065C324.04 724.065 324.244 724.022 324.443 723.987C325.276 723.816 326.116 723.431 327 723.624C327.176 723.659 327.346 723.737 327.511 723.837C327.987 724.143 328.401 724.691 328.713 725.196C329.218 726.008 329.62 726.392 330.222 726.691C330.477 726.812 330.766 726.919 331.118 727.033C332.059 727.324 332.456 727.887 332.904 728.975C333.726 730.926 335.189 730.328 336.664 730.812C337.702 731.153 338.325 732.093 338.909 733.153C338.978 733.274 339.04 733.395 339.108 733.516C339.681 734.591 340.458 734.662 341.325 734.804C341.609 734.847 341.904 734.911 342.204 735.011C342.488 735.103 342.732 735.288 342.981 735.459C343.112 735.552 343.236 735.637 343.378 735.715C343.77 735.943 344.195 736.078 344.62 736.228C344.734 736.27 344.841 736.306 344.955 736.356C345.907 736.712 346.775 736.954 347.575 737.637C347.688 737.729 347.802 737.843 347.915 737.957C348.964 739.06 349.798 740.028 351.108 740.619C351.164 740.647 351.216 740.676 351.272 740.697C351.726 740.882 352.259 741.053 352.809 741.16C352.837 741.16 352.866 741.167 352.894 741.174C352.911 741.174 352.928 741.174 352.939 741.181C353.217 741.224 353.495 741.259 353.767 741.259C354.051 741.259 354.329 741.238 354.59 741.188C355.134 741.06 355.304 740.704 355.639 740.299C355.69 740.242 355.741 740.185 355.798 740.121C356.336 739.544 357.125 738.975 357.766 738.583C357.89 738.505 358.021 738.441 358.157 738.377C359.2 737.922 360.465 737.986 361.525 738C361.781 738 362.047 738.021 362.314 738.028C362.852 738.05 363.397 738.028 363.862 737.694C364.157 737.487 364.298 737.31 364.508 736.975C364.9 736.363 365.263 735.986 365.711 735.438C366.323 734.69 366.845 733.858 367.644 733.409C368.563 732.883 369.164 732.733 370.128 733.039C370.695 733.217 371.189 733.602 371.665 733.139C372.538 732.285 372.811 731.281 374.058 731.168C374.427 731.132 374.943 731.445 375.238 731.381C375.68 731.288 375.85 730.62 376.157 730.221C376.202 730.164 376.247 730.114 376.298 730.071C378.204 728.406 381.362 731.132 382.984 728.428C383.03 728.349 383.064 728.271 383.092 728.193C383.234 727.815 383.296 727.374 383.574 727.118C383.773 726.94 384.09 726.819 384.413 726.748C384.731 726.677 385.054 726.655 385.292 726.677C385.718 726.719 386.109 727.004 386.546 727.033C386.909 727.061 387.147 726.99 387.345 726.84C387.453 726.762 387.55 726.662 387.646 726.549C387.799 726.356 387.952 726.122 388.156 725.858C388.423 725.502 388.706 725.282 388.99 725.168C390.067 724.712 391.224 725.73 392.279 726.52C393.266 727.26 393.691 727.424 394.496 727.182C394.678 727.125 394.876 727.054 395.109 726.968C395.744 726.712 396.481 727.118 397.003 726.826C397.082 726.776 397.145 726.719 397.207 726.663C397.207 726.663 397.207 726.663 397.207 726.655C397.213 726.655 397.224 726.641 397.23 726.634C397.508 726.292 397.525 725.801 397.837 725.723C397.944 725.695 398.092 725.723 398.307 725.83C398.551 725.951 398.738 726.107 398.909 726.235C399.084 726.364 399.249 726.456 399.436 726.442C399.589 726.42 399.765 726.335 399.98 726.129C400.627 725.495 400.706 724.862 401.29 724.677C401.472 724.62 401.704 724.606 402.028 724.648C402.629 724.741 403.4 725.424 403.871 725.004C404.001 724.883 404.109 724.684 404.183 724.357C404.194 724.3 404.2 724.236 404.217 724.179C404.285 723.766 404.268 723.41 404.387 723.047C404.432 722.912 404.5 722.769 404.602 722.634C404.92 722.165 405.419 721.83 405.912 721.652C406.02 721.609 406.128 721.574 406.235 721.552C407.052 721.36 407.755 721.659 408.47 721.659C408.697 721.659 408.929 721.638 409.162 721.552C409.298 721.503 409.44 721.431 409.576 721.339C409.893 721.125 410.205 720.933 410.523 720.748C410.806 720.577 410.971 720.428 411.107 720.236C411.107 720.236 411.107 720.229 411.113 720.229C411.249 720.029 411.351 719.795 411.509 719.453C411.821 718.784 412.15 718.421 412.587 718.158C412.797 718.03 413.029 717.93 413.307 717.83C413.659 717.702 413.823 717.61 414.016 717.453C414.107 717.382 414.197 717.296 414.322 717.175C414.362 717.133 414.402 717.09 414.447 717.047C414.6 716.877 414.776 716.691 414.963 716.613C415.615 716.336 416.636 716.599 417.339 716.599C417.867 716.599 418.417 716.82 418.893 716.656C419.029 716.606 419.16 716.535 419.279 716.414C419.54 716.151 419.795 715.866 420.107 715.709C420.135 715.695 420.163 715.681 420.192 715.674C420.458 715.574 420.736 715.596 421.02 715.61C421.127 715.61 421.241 715.617 421.349 715.61C422.029 715.567 422.687 715.346 423.254 714.891C423.305 714.848 423.356 714.82 423.407 714.784C423.56 714.677 423.725 714.578 423.889 714.507C423.889 714.507 423.901 714.507 423.906 714.499C424.122 714.407 424.349 714.336 424.575 714.3C425.018 714.222 425.313 714.208 425.693 713.866C425.982 713.603 426.231 713.29 426.532 713.048C426.747 712.87 426.963 712.67 427.207 712.585C427.711 712.393 428.245 712.5 428.755 712.279C428.761 712.279 428.772 712.279 428.778 712.279C429.265 712.065 429.52 711.731 429.855 711.254C430.054 710.969 430.178 710.72 430.479 710.642C431.188 710.464 431.948 710.514 432.685 710.429C432.974 710.393 433.258 710.336 433.53 710.236C434.233 709.98 434.829 709.311 435.481 708.913C437.046 707.945 438.929 708.621 440.636 708.628C440.851 708.628 441.072 708.621 441.288 708.592C441.413 708.571 441.543 708.55 441.668 708.521C442.161 708.414 442.643 708.251 443.131 708.087C443.755 707.881 444.378 707.674 445.014 707.639C445.235 707.624 445.462 707.624 445.683 707.632C446.023 707.632 446.358 707.653 446.692 707.688C446.93 707.717 447.084 707.689 447.271 707.795C447.288 707.802 447.305 707.802 447.322 707.824C447.583 708.002 447.753 708.343 447.985 708.585C448.008 708.614 448.031 708.642 448.059 708.671C448.541 709.112 449.085 709.354 449.675 709.432C450.118 709.489 450.611 709.582 451.042 709.432C451.155 709.389 451.269 709.34 451.382 709.268C451.581 709.155 451.785 709.005 451.972 708.841C452.063 708.763 452.159 708.685 452.244 708.607C452.335 708.521 452.426 708.443 452.522 708.365C452.635 708.272 452.755 708.201 452.891 708.137C452.919 708.13 452.953 708.108 452.987 708.094C453.22 708.009 453.452 707.966 453.69 707.952C453.702 707.952 453.707 707.952 453.724 707.952H453.747C454.479 707.902 455.221 708.037 455.93 707.724C456.407 707.518 456.934 707.304 457.461 707.212C458.029 707.112 458.596 707.133 459.112 707.439C459.838 707.852 460.847 707.859 461.63 707.866C462.015 707.866 462.339 707.624 462.696 707.539C462.764 707.525 462.832 707.511 462.906 707.511C462.951 707.511 462.996 707.511 463.047 707.518C463.365 707.582 463.614 707.888 463.904 708.087C464.159 708.265 464.584 708.464 464.947 708.507C465.061 708.514 465.163 708.507 465.259 708.486C465.429 708.429 465.588 708.322 465.747 708.215C465.979 708.059 466.212 707.916 466.484 707.973C466.722 708.023 466.955 708.18 467.187 708.365C467.465 708.585 467.732 708.834 468.004 708.977C468.475 709.226 469.093 709.503 469.682 709.589C469.779 709.596 469.881 709.61 469.977 709.61V654.937V0H470Z" fill="#D4D4D4"/>
    <path opacity="0.1" d="M143.481 274.029C143.478 274.029 143.475 274.03 143.473 274.031C141.862 275.071 140.192 276.157 138.487 277.266C136.809 278.358 134.792 276.599 135.685 274.807C152.355 241.363 176.449 216.672 212.763 200.7C214.506 199.933 214.441 197.118 212.744 196.253C210.584 195.151 208.758 194.008 207.098 193.298C206.337 192.972 205.757 192.287 205.787 191.46C205.793 191.3 205.8 191.14 205.808 190.98C205.854 189.957 206.569 189.028 207.572 188.821C227.013 184.822 246.321 179.484 265.945 177.418C299.448 173.855 332.726 176.835 364.775 188.307C385.862 195.859 404.449 206.785 415.826 227.587C416.6 229.004 419.581 230.379 421.113 230.889C421.755 231.103 422.418 231.341 423.05 231.517C424.518 231.924 427.143 232.565 427.858 233.91C428.564 235.238 428.184 235.05 429.61 238.315C436.677 254.559 427.552 268.92 409.079 269.973C381.622 271.551 354.145 272.545 326.606 273.779C325.167 273.844 324.268 275.363 324.912 276.652C329.194 285.219 333.874 294.002 337.714 303.133C342.858 315.411 342.79 326.86 333.979 338.645C323.199 353.096 326.822 369.811 331.34 385.786C332.87 391.189 335.202 396.347 337.985 403.207C338.599 404.72 337.224 406.275 335.641 405.875C326.311 403.518 318.194 401.651 310.339 398.982C307.991 398.176 305.844 394.367 305.128 391.544C301.975 379.333 299.403 366.988 296.607 354.687C292.358 336.046 281.422 331.565 265.856 342.342C249.083 353.97 241.971 370.953 246.779 389.998C252.37 412.112 260.824 433.621 269.412 454.838C278.201 476.482 289.652 497.027 298.128 518.76C306.56 540.426 300.566 559.986 283.099 575.131C255.978 598.609 224.068 605.903 189.301 603.384C187.471 603.252 186.828 600.933 188.309 599.849C194.086 595.622 199.766 591.471 205.441 587.324C205.932 586.965 205.988 586.258 205.57 585.818V585.818C205.288 585.521 204.862 585.415 204.478 585.554C189.358 590.993 174.591 598.098 159.02 601.368C128.917 607.686 99.8432 602.6 73.3858 586.424C49.2767 571.704 42.5897 548.156 55.3599 522.972C59.4973 514.794 64.3728 506.124 71.1269 500.253C100.536 474.667 113.933 441.082 120.732 404.18C128.692 360.899 135.938 317.462 143.496 274.046C143.497 274.037 143.49 274.029 143.481 274.029V274.029Z" fill="#222222"/>
</svg>
