<svg width="141" height="258" viewBox="0 0 141 258" fill="none" xmlns="http://www.w3.org/2000/svg">
<path d="M2.49329 11.5392L2.41346 10.3901C2.47365 5.40714 6.94122 1.58448 12.606 2.46351C14.8835 2.83491 17.3199 3.85554 30.0224 10.2201L30.0241 10.221C50.7742 20.5932 61.2967 25.4164 73.2329 29.9863L73.243 29.9901C78.9325 32.1335 81.7544 33.2734 83.4802 34.369C84.9897 35.3272 85.6185 36.2164 86.7272 38.2827L86.7325 38.2926C86.9684 38.7263 87.2276 39.3713 87.4337 40.0575C87.638 40.7378 87.7456 41.3107 87.7647 41.6407C87.7686 42.5275 87.7091 42.6731 87.6646 42.7665C87.5832 42.9375 87.3705 43.2332 86.4544 44.111L86.4333 44.1312L86.4129 44.152C84.7655 45.8254 82.0311 46.8544 78.6317 46.7231L78.6241 46.7228C78.1943 46.7078 77.048 46.4924 75.2193 46.0254C73.4708 45.5789 71.2812 44.952 68.8872 44.2156C64.0969 42.742 58.559 40.8519 54.2044 39.1388C52.7825 38.5795 51.4828 38.1318 50.517 37.862C50.0531 37.7324 49.5797 37.6189 49.1813 37.5729C49.0241 37.5547 48.6598 37.5171 48.2633 37.6024C48.0744 37.643 47.6148 37.7641 47.2066 38.1716C46.6871 38.6903 46.5278 39.3874 46.6369 39.9924C46.6913 40.2936 46.8057 40.5206 46.8324 40.5737L46.8349 40.5784C46.88 40.6685 46.9259 40.746 46.9588 40.7997C47.0264 40.9098 47.1046 41.0245 47.1792 41.1304C47.3323 41.3474 47.5391 41.6236 47.7835 41.9413C48.2761 42.5817 48.9712 43.455 49.8124 44.4921C51.4969 46.569 53.796 49.3385 56.298 52.2904C77.4435 77.412 114.496 125.223 127.769 144.511L127.769 144.512C138.126 159.55 140.092 165.945 138.097 172.364L138.095 172.373L138.092 172.382C137.491 174.384 136.814 175.901 135.857 177.186C134.907 178.462 133.602 179.614 131.606 180.765C127.509 183.127 120.821 185.321 109.128 188.554C103.447 190.104 94.0693 192.474 88.2458 193.784C85.3058 194.445 82.6313 195.078 80.6933 195.565C79.728 195.808 78.9272 196.02 78.3627 196.184C78.0878 196.263 77.8307 196.343 77.6287 196.417C77.5418 196.449 77.3869 196.507 77.2298 196.59C77.1709 196.621 76.975 196.725 76.7741 196.911C76.6771 197 76.4644 197.211 76.3073 197.55C76.1269 197.939 76.0062 198.55 76.2877 199.197C76.3972 199.447 76.5339 199.617 76.5427 199.628L76.5432 199.629C76.5879 199.687 76.628 199.733 76.6495 199.757C76.6953 199.808 76.7405 199.855 76.7726 199.887C76.8408 199.957 76.9256 200.039 77.0171 200.126C77.2038 200.304 77.4669 200.549 77.7926 200.849C78.4463 201.452 79.3802 202.302 80.5221 203.334C82.8075 205.402 85.9416 208.216 89.3698 211.283L89.3737 211.287C107.434 227.359 111.523 231.201 117.641 237.972L117.648 237.98C121.992 242.736 124.707 246.422 126.05 249.278C127.385 252.117 127.176 253.691 126.484 254.721C126.008 255.425 125.574 255.662 125.03 255.722C124.331 255.798 123.167 255.604 121.252 254.706C117.428 252.913 111.668 248.841 102.696 241.74L102.695 241.739C96.8555 237.124 86.3448 228.246 76.846 220.021C72.1008 215.912 67.619 211.975 64.1114 208.827C60.5566 205.637 58.1105 203.352 57.3402 202.486L57.3385 202.484C52.6675 197.25 52.7533 190.937 56.8222 186.969C58.7357 185.11 60.4889 183.873 64.6736 182.333C68.9771 180.75 75.7002 178.904 87.5246 175.831C96.6994 173.448 104.284 171.385 109.614 169.834C112.275 169.06 114.395 168.407 115.877 167.903C116.613 167.652 117.228 167.426 117.685 167.23C117.907 167.135 118.144 167.025 118.355 166.902C118.458 166.842 118.604 166.75 118.753 166.626C118.854 166.541 119.193 166.253 119.389 165.755C119.553 165.339 119.554 164.964 119.539 164.747C119.524 164.512 119.478 164.303 119.435 164.142C119.348 163.822 119.214 163.494 119.072 163.187C118.785 162.563 118.344 161.768 117.773 160.818C116.622 158.904 114.821 156.165 112.313 152.513C107.29 145.201 99.3527 134.113 87.909 118.408L87.9084 118.407C76.5307 102.81 64.8092 87.1536 55.8173 75.4416C51.3228 69.5874 47.5024 64.7082 44.7447 61.3113C43.3689 59.6166 42.2412 58.2705 41.4198 57.3519C41.0147 56.8989 40.6516 56.513 40.3541 56.2347C40.214 56.1035 40.029 55.9396 39.8252 55.8019C39.7295 55.7372 39.5479 55.6216 39.3084 55.5328C39.144 55.4719 38.4985 55.246 37.756 55.5693C37.1965 55.8129 36.918 56.2291 36.8118 56.412C36.6918 56.6187 36.6332 56.8033 36.6057 56.9006C36.5495 57.0997 36.531 57.2747 36.5233 57.3616C36.5058 57.5566 36.5061 57.7624 36.5101 57.9335C36.5184 58.2951 36.5506 58.7675 36.5977 59.2994C36.6931 60.3752 36.8617 61.8244 37.0796 63.4036L37.0814 63.4163L37.0833 63.429C38.6247 73.627 38.379 81.3947 36.7445 85.5496C36.3163 86.6382 36.0843 87.0078 35.8681 87.2339C35.6565 87.4552 35.3118 87.6937 34.269 88.1477C33.0864 88.6625 32.2937 88.7137 31.6573 88.5575C30.9889 88.3934 30.1852 87.9252 29.1369 86.8114C28.7988 86.447 28.2965 85.6839 27.6772 84.4425C27.0752 83.2357 26.4232 81.7021 25.7534 79.9092C24.4148 76.3258 23.0406 71.8024 21.8753 66.9827C16.162 43.2158 12.2753 31.558 5.83714 19.4582C4.95323 17.763 4.11105 15.9728 3.48363 14.4595C3.16905 13.7007 2.91691 13.0319 2.7415 12.4916C2.65389 12.2217 2.59033 11.9989 2.5481 11.8232C2.52718 11.7361 2.51318 11.6675 2.50425 11.6158C2.49507 11.5626 2.49326 11.5388 2.49329 11.5392ZM48.722 41.5464C48.7242 41.5467 48.7265 41.547 48.729 41.5473C48.6984 41.5455 48.6935 41.5431 48.722 41.5464Z" fill="black" stroke="white" stroke-width="4"/>
</svg>
