<svg width="376" height="200" viewBox="0 0 376 200" fill="none" xmlns="http://www.w3.org/2000/svg">
<path d="M31.8 65.7H29.4C26 65.7 25 65.1 24 62.1L19.1 46.6C18.8 45.6 18.6 45.5 18.1 45.5C17.5 45.5 17.3 45.7 17.3 46.6V83.3C17.3 86.2 16.5 87 13.6 87H8C5.1 87 4.3 86.2 4.3 83.3V15.7C4.3 12.8 5.1 12 8 12H14.4C18.8 12 20.2 13 21.5 17.2L29.4 43.2C29.7 44.1 30 44.4 30.6 44.4C31.2 44.4 31.5 44.1 31.8 43.2L39.7 17.2C41 13 42.4 12 46.8 12H53.2C56.1 12 56.9 12.8 56.9 15.7V83.3C56.9 86.2 56.1 87 53.2 87H47.6C44.7 87 43.9 86.2 43.9 83.3V46.6C43.9 45.7 43.7 45.5 43.1 45.5C42.6 45.5 42.4 45.6 42.1 46.6L37.2 62.1C36.2 65.1 35.2 65.7 31.8 65.7ZM90.3188 15.7C90.3188 12.8 91.1187 12 94.0188 12H100.419C103.319 12 104.119 12.8 104.119 15.7V66C104.119 82.1 99.3188 88 84.8188 88C70.3188 88 65.5188 82.1 65.5188 66V15.7C65.5188 12.8 66.3188 12 69.2188 12H75.6188C78.5188 12 79.3188 12.8 79.3188 15.7V68.4C79.3188 72.4 81.0188 74 84.8188 74C88.5188 74 90.3188 72.4 90.3188 68.4V15.7ZM126.498 71.4C126.498 72.6 126.898 73 128.298 73H140.798C143.698 73 144.498 73.8 144.498 76.7V83.3C144.498 86.2 143.698 87 140.798 87H116.398C113.498 87 112.698 86.2 112.698 83.3V15.7C112.698 12.8 113.498 12 116.398 12H122.798C125.698 12 126.498 12.8 126.498 15.7V71.4ZM161.362 27.8V39C161.362 40.3 161.762 40.8 163.162 40.8H175.562C178.462 40.8 179.262 41.6 179.262 44.5V51.1C179.262 54 178.462 54.8 175.762 54.8H163.162C161.762 54.8 161.362 55.2 161.362 56.6V71.2C161.362 72.5 161.762 73 163.162 73H176.762C179.662 73 180.462 73.8 180.462 76.7V83.3C180.462 86.2 179.662 87 176.762 87H151.262C148.362 87 147.562 86.2 147.562 83.3V15.7C147.562 12.8 148.362 12 151.262 12H176.762C179.662 12 180.462 12.8 180.462 15.7V22.3C180.462 25.2 179.662 26 176.762 26H163.162C161.762 26 161.362 26.4 161.362 27.8ZM216.808 26H210.608C209.208 26 208.808 26.4 208.808 27.8V83.3C208.808 86.2 208.008 87 205.108 87H198.708C195.808 87 195.008 86.2 195.008 83.3V27.8C195.008 26.4 194.608 26 193.208 26H187.008C184.108 26 183.308 25.2 183.308 22.3V15.7C183.308 12.8 184.108 12 187.008 12H216.808C219.708 12 220.508 12.8 220.508 15.7V22.3C220.508 25.2 219.708 26 216.808 26ZM261.041 65C261.041 81.9 256.241 88 241.741 88C227.241 88 222.441 81.9 222.441 65V34C222.441 17.2 227.241 11 241.741 11C256.241 11 261.041 17.2 261.041 34V65ZM236.641 68.4C236.641 72.4 238.241 74 241.741 74C245.241 74 246.841 72.4 246.841 68.4V31.1C246.841 26.7 245.241 25 241.741 25C238.241 25 236.641 26.7 236.641 31.1V68.4ZM286.044 61.3H284.744C283.344 61.3 282.944 61.7 282.944 63.1V83.3C282.944 86.2 282.144 87 279.244 87H272.844C269.944 87 269.144 86.2 269.144 83.3V15.7C269.144 12.8 269.944 12 272.844 12H286.044C301.244 12 308.144 17.5 308.144 31V42.3C308.144 55.8 301.244 61.3 286.044 61.3ZM282.944 27.8V45.5C282.944 46.9 283.344 47.3 284.744 47.3H286.844C291.744 47.3 293.944 45.3 293.944 40.2V33.1C293.944 28 291.744 26 286.844 26H284.744C283.344 26 282.944 26.4 282.944 27.8ZM326.694 15.7V83.3C326.694 86.2 325.894 87 322.994 87H316.594C313.694 87 312.894 86.2 312.894 83.3V15.7C312.894 12.8 313.694 12 316.594 12H322.994C325.894 12 326.694 12.8 326.694 15.7ZM346.569 12H359.169C363.669 12 365.069 13.5 365.569 17.2L374.369 83.3C374.769 86.2 373.969 87 371.069 87H364.169C361.169 87 360.469 86.3 360.069 83.3L358.769 72.4C358.669 71.4 358.369 71.1 357.169 71.1H348.569C347.369 71.1 347.069 71.4 346.969 72.4L345.669 83.3C345.269 86.3 344.569 87 341.569 87H334.669C331.769 87 330.969 86.2 331.369 83.3L340.169 17.2C340.669 13.5 342.069 12 346.569 12ZM354.669 32.4C354.569 31.2 353.969 31 352.869 31C351.769 31 351.169 31.2 351.069 32.4L348.769 55.7C348.669 56.9 348.969 57.2 350.269 57.2H355.469C356.769 57.2 357.069 56.9 356.969 55.7L354.669 32.4Z" fill="#F4B64B"/>
<path d="M18.1 158.4V183.3C18.1 186.2 17.3 187 14.4 187H8C5.1 187 4.3 186.2 4.3 183.3V115.7C4.3 112.8 5.1 112 8 112H34.9C37.8 112 38.6 112.8 38.6 115.7V122.3C38.6 125.2 37.8 126 34.9 126H19.9C18.5 126 18.1 126.4 18.1 127.8V140.8C18.1 142.1 18.5 142.6 19.9 142.6H30.7C33.6 142.6 34.4 143.4 34.4 146.3V152.9C34.4 155.8 33.6 156.6 30.9 156.6H19.9C18.5 156.6 18.1 157 18.1 158.4ZM55.5023 127.8V139C55.5023 140.3 55.9023 140.8 57.3023 140.8H69.7023C72.6023 140.8 73.4023 141.6 73.4023 144.5V151.1C73.4023 154 72.6023 154.8 69.9023 154.8H57.3023C55.9023 154.8 55.5023 155.2 55.5023 156.6V171.2C55.5023 172.5 55.9023 173 57.3023 173H70.9023C73.8023 173 74.6023 173.8 74.6023 176.7V183.3C74.6023 186.2 73.8023 187 70.9023 187H45.4023C42.5023 187 41.7023 186.2 41.7023 183.3V115.7C41.7023 112.8 42.5023 112 45.4023 112H70.9023C73.8023 112 74.6023 112.8 74.6023 115.7V122.3C74.6023 125.2 73.8023 126 70.9023 126H57.3023C55.9023 126 55.5023 126.4 55.5023 127.8ZM95.9719 138.7L108.772 150.3C115.472 156.3 116.972 159.9 116.972 166.6V168.4C116.972 181 112.172 188 97.6719 188C83.1719 188 78.3719 182.1 78.3719 166V164C78.3719 161.1 79.1719 160.3 82.0719 160.3H88.8719C91.7719 160.3 92.5719 161.1 92.5719 164V168.4C92.5719 172.4 94.1719 174 97.6719 174C101.172 174 102.772 172.5 102.772 168.9V167C102.772 164.2 102.172 162.8 98.4719 159.5L86.4719 148.8C79.7719 142.9 78.3719 139.5 78.3719 132.8V130.6C78.3719 118 83.1719 111 97.6719 111C112.172 111 116.972 116.9 116.972 133V135C116.972 137.9 116.172 138.7 113.272 138.7H106.472C103.572 138.7 102.772 137.9 102.772 135V130.6C102.772 126.6 101.172 125 97.6719 125C94.1719 125 92.5719 126.5 92.5719 130.1V131.8C92.5719 134.7 93.1719 136.1 95.9719 138.7ZM152.452 126H146.252C144.852 126 144.452 126.4 144.452 127.8V183.3C144.452 186.2 143.652 187 140.752 187H134.352C131.452 187 130.652 186.2 130.652 183.3V127.8C130.652 126.4 130.252 126 128.852 126H122.652C119.752 126 118.952 125.2 118.952 122.3V115.7C118.952 112.8 119.752 112 122.652 112H152.452C155.352 112 156.152 112.8 156.152 115.7V122.3C156.152 125.2 155.352 126 152.452 126ZM172.885 115.7V183.3C172.885 186.2 172.085 187 169.185 187H162.785C159.885 187 159.085 186.2 159.085 183.3V115.7C159.085 112.8 159.885 112 162.785 112H169.185C172.085 112 172.885 112.8 172.885 115.7ZM203.56 187H192.56C187.36 187 185.86 185.5 185.26 180.8L177.56 115.7C177.26 112.8 178.36 112 181.26 112H188.56C191.46 112 192.06 112.8 192.26 115.7L196.66 167C196.76 168.2 197.16 168.5 198.06 168.5C198.96 168.5 199.36 168.2 199.46 167L203.86 115.7C204.06 112.8 204.66 112 207.56 112H214.86C217.76 112 218.86 112.8 218.56 115.7L210.86 180.8C210.26 185.5 208.76 187 203.56 187ZM234.069 112H246.669C251.169 112 252.569 113.5 253.069 117.2L261.869 183.3C262.269 186.2 261.469 187 258.569 187H251.669C248.669 187 247.969 186.3 247.569 183.3L246.269 172.4C246.169 171.4 245.869 171.1 244.669 171.1H236.069C234.869 171.1 234.569 171.4 234.469 172.4L233.169 183.3C232.769 186.3 232.069 187 229.069 187H222.169C219.269 187 218.469 186.2 218.869 183.3L227.669 117.2C228.169 113.5 229.569 112 234.069 112ZM242.169 132.4C242.069 131.2 241.469 131 240.369 131C239.269 131 238.669 131.2 238.569 132.4L236.269 155.7C236.169 156.9 236.469 157.2 237.769 157.2H242.969C244.269 157.2 244.569 156.9 244.469 155.7L242.169 132.4ZM280.405 171.4C280.405 172.6 280.805 173 282.205 173H294.705C297.605 173 298.405 173.8 298.405 176.7V183.3C298.405 186.2 297.605 187 294.705 187H270.305C267.405 187 266.605 186.2 266.605 183.3V115.7C266.605 112.8 267.405 112 270.305 112H276.705C279.605 112 280.405 112.8 280.405 115.7V171.4Z" fill="#222222"/>
</svg>
