<svg width="371" height="177" viewBox="0 0 371 177" fill="none" xmlns="http://www.w3.org/2000/svg">
<path d="M27.8 54.7H25.4C22 54.7 21 54.1 20 51.1L15.1 35.6C14.8 34.6 14.6 34.5 14.1 34.5C13.5 34.5 13.3 34.7 13.3 35.6V72.3C13.3 75.2 12.5 76 9.6 76H4C1.1 76 0.3 75.2 0.3 72.3V4.69999C0.3 1.8 1.1 0.999994 4 0.999994H10.4C14.8 0.999994 16.2 2 17.5 6.2L25.4 32.2C25.7 33.1 26 33.4 26.6 33.4C27.2 33.4 27.5 33.1 27.8 32.2L35.7 6.2C37 2 38.4 0.999994 42.8 0.999994H49.2C52.1 0.999994 52.9 1.8 52.9 4.69999V72.3C52.9 75.2 52.1 76 49.2 76H43.6C40.7 76 39.9 75.2 39.9 72.3V35.6C39.9 34.7 39.7 34.5 39.1 34.5C38.6 34.5 38.4 34.6 38.1 35.6L33.2 51.1C32.2 54.1 31.2 54.7 27.8 54.7ZM86.3188 4.69999C86.3188 1.8 87.1187 0.999994 90.0188 0.999994H96.4188C99.3188 0.999994 100.119 1.8 100.119 4.69999V55C100.119 71.1 95.3188 77 80.8188 77C66.3188 77 61.5188 71.1 61.5188 55V4.69999C61.5188 1.8 62.3188 0.999994 65.2188 0.999994H71.6188C74.5188 0.999994 75.3188 1.8 75.3188 4.69999V57.4C75.3188 61.4 77.0188 63 80.8188 63C84.5188 63 86.3188 61.4 86.3188 57.4V4.69999ZM122.498 60.4C122.498 61.6 122.898 62 124.298 62H136.798C139.698 62 140.498 62.8 140.498 65.7V72.3C140.498 75.2 139.698 76 136.798 76H112.398C109.498 76 108.698 75.2 108.698 72.3V4.69999C108.698 1.8 109.498 0.999994 112.398 0.999994H118.798C121.698 0.999994 122.498 1.8 122.498 4.69999V60.4ZM157.362 16.8V28C157.362 29.3 157.762 29.8 159.162 29.8H171.562C174.462 29.8 175.262 30.6 175.262 33.5V40.1C175.262 43 174.462 43.8 171.762 43.8H159.162C157.762 43.8 157.362 44.2 157.362 45.6V60.2C157.362 61.5 157.762 62 159.162 62H172.762C175.662 62 176.462 62.8 176.462 65.7V72.3C176.462 75.2 175.662 76 172.762 76H147.262C144.362 76 143.562 75.2 143.562 72.3V4.69999C143.562 1.8 144.362 0.999994 147.262 0.999994H172.762C175.662 0.999994 176.462 1.8 176.462 4.69999V11.3C176.462 14.2 175.662 15 172.762 15H159.162C157.762 15 157.362 15.4 157.362 16.8ZM212.808 15H206.608C205.208 15 204.808 15.4 204.808 16.8V72.3C204.808 75.2 204.008 76 201.108 76H194.708C191.808 76 191.008 75.2 191.008 72.3V16.8C191.008 15.4 190.608 15 189.208 15H183.008C180.108 15 179.308 14.2 179.308 11.3V4.69999C179.308 1.8 180.108 0.999994 183.008 0.999994H212.808C215.708 0.999994 216.508 1.8 216.508 4.69999V11.3C216.508 14.2 215.708 15 212.808 15ZM257.041 54C257.041 70.9 252.241 77 237.741 77C223.241 77 218.441 70.9 218.441 54V23C218.441 6.2 223.241 -5.00679e-06 237.741 -5.00679e-06C252.241 -5.00679e-06 257.041 6.2 257.041 23V54ZM232.641 57.4C232.641 61.4 234.241 63 237.741 63C241.241 63 242.841 61.4 242.841 57.4V20.1C242.841 15.7 241.241 14 237.741 14C234.241 14 232.641 15.7 232.641 20.1V57.4ZM282.044 50.3H280.744C279.344 50.3 278.944 50.7 278.944 52.1V72.3C278.944 75.2 278.144 76 275.244 76H268.844C265.944 76 265.144 75.2 265.144 72.3V4.69999C265.144 1.8 265.944 0.999994 268.844 0.999994H282.044C297.244 0.999994 304.144 6.49999 304.144 20V31.3C304.144 44.8 297.244 50.3 282.044 50.3ZM278.944 16.8V34.5C278.944 35.9 279.344 36.3 280.744 36.3H282.844C287.744 36.3 289.944 34.3 289.944 29.2V22.1C289.944 17 287.744 15 282.844 15H280.744C279.344 15 278.944 15.4 278.944 16.8ZM322.694 4.69999V72.3C322.694 75.2 321.894 76 318.994 76H312.594C309.694 76 308.894 75.2 308.894 72.3V4.69999C308.894 1.8 309.694 0.999994 312.594 0.999994H318.994C321.894 0.999994 322.694 1.8 322.694 4.69999ZM342.569 0.999994H355.169C359.669 0.999994 361.069 2.5 361.569 6.2L370.369 72.3C370.769 75.2 369.969 76 367.069 76H360.169C357.169 76 356.469 75.3 356.069 72.3L354.769 61.4C354.669 60.4 354.369 60.1 353.169 60.1H344.569C343.369 60.1 343.069 60.4 342.969 61.4L341.669 72.3C341.269 75.3 340.569 76 337.569 76H330.669C327.769 76 326.969 75.2 327.369 72.3L336.169 6.2C336.669 2.5 338.069 0.999994 342.569 0.999994ZM350.669 21.4C350.569 20.2 349.969 20 348.869 20C347.769 20 347.169 20.2 347.069 21.4L344.769 44.7C344.669 45.9 344.969 46.2 346.269 46.2H351.469C352.769 46.2 353.069 45.9 352.969 44.7L350.669 21.4Z" fill="#F4B64B"/>
<path d="M14.1 147.4V172.3C14.1 175.2 13.3 176 10.4 176H4C1.1 176 0.3 175.2 0.3 172.3V104.7C0.3 101.8 1.1 101 4 101H30.9C33.8 101 34.6 101.8 34.6 104.7V111.3C34.6 114.2 33.8 115 30.9 115H15.9C14.5 115 14.1 115.4 14.1 116.8V129.8C14.1 131.1 14.5 131.6 15.9 131.6H26.7C29.6 131.6 30.4 132.4 30.4 135.3V141.9C30.4 144.8 29.6 145.6 26.9 145.6H15.9C14.5 145.6 14.1 146 14.1 147.4ZM51.5023 116.8V128C51.5023 129.3 51.9023 129.8 53.3023 129.8H65.7023C68.6023 129.8 69.4023 130.6 69.4023 133.5V140.1C69.4023 143 68.6023 143.8 65.9023 143.8H53.3023C51.9023 143.8 51.5023 144.2 51.5023 145.6V160.2C51.5023 161.5 51.9023 162 53.3023 162H66.9023C69.8023 162 70.6023 162.8 70.6023 165.7V172.3C70.6023 175.2 69.8023 176 66.9023 176H41.4023C38.5023 176 37.7023 175.2 37.7023 172.3V104.7C37.7023 101.8 38.5023 101 41.4023 101H66.9023C69.8023 101 70.6023 101.8 70.6023 104.7V111.3C70.6023 114.2 69.8023 115 66.9023 115H53.3023C51.9023 115 51.5023 115.4 51.5023 116.8ZM91.9719 127.7L104.772 139.3C111.472 145.3 112.972 148.9 112.972 155.6V157.4C112.972 170 108.172 177 93.6719 177C79.1719 177 74.3719 171.1 74.3719 155V153C74.3719 150.1 75.1719 149.3 78.0719 149.3H84.8719C87.7719 149.3 88.5719 150.1 88.5719 153V157.4C88.5719 161.4 90.1719 163 93.6719 163C97.1719 163 98.7719 161.5 98.7719 157.9V156C98.7719 153.2 98.1719 151.8 94.4719 148.5L82.4719 137.8C75.7719 131.9 74.3719 128.5 74.3719 121.8V119.6C74.3719 107 79.1719 100 93.6719 100C108.172 100 112.972 105.9 112.972 122V124C112.972 126.9 112.172 127.7 109.272 127.7H102.472C99.5719 127.7 98.7719 126.9 98.7719 124V119.6C98.7719 115.6 97.1719 114 93.6719 114C90.1719 114 88.5719 115.5 88.5719 119.1V120.8C88.5719 123.7 89.1719 125.1 91.9719 127.7ZM148.452 115H142.252C140.852 115 140.452 115.4 140.452 116.8V172.3C140.452 175.2 139.652 176 136.752 176H130.352C127.452 176 126.652 175.2 126.652 172.3V116.8C126.652 115.4 126.252 115 124.852 115H118.652C115.752 115 114.952 114.2 114.952 111.3V104.7C114.952 101.8 115.752 101 118.652 101H148.452C151.352 101 152.152 101.8 152.152 104.7V111.3C152.152 114.2 151.352 115 148.452 115ZM168.885 104.7V172.3C168.885 175.2 168.085 176 165.185 176H158.785C155.885 176 155.085 175.2 155.085 172.3V104.7C155.085 101.8 155.885 101 158.785 101H165.185C168.085 101 168.885 101.8 168.885 104.7ZM199.56 176H188.56C183.36 176 181.86 174.5 181.26 169.8L173.56 104.7C173.26 101.8 174.36 101 177.26 101H184.56C187.46 101 188.06 101.8 188.26 104.7L192.66 156C192.76 157.2 193.16 157.5 194.06 157.5C194.96 157.5 195.36 157.2 195.46 156L199.86 104.7C200.06 101.8 200.66 101 203.56 101H210.86C213.76 101 214.86 101.8 214.56 104.7L206.86 169.8C206.26 174.5 204.76 176 199.56 176ZM230.069 101H242.669C247.169 101 248.569 102.5 249.069 106.2L257.869 172.3C258.269 175.2 257.469 176 254.569 176H247.669C244.669 176 243.969 175.3 243.569 172.3L242.269 161.4C242.169 160.4 241.869 160.1 240.669 160.1H232.069C230.869 160.1 230.569 160.4 230.469 161.4L229.169 172.3C228.769 175.3 228.069 176 225.069 176H218.169C215.269 176 214.469 175.2 214.869 172.3L223.669 106.2C224.169 102.5 225.569 101 230.069 101ZM238.169 121.4C238.069 120.2 237.469 120 236.369 120C235.269 120 234.669 120.2 234.569 121.4L232.269 144.7C232.169 145.9 232.469 146.2 233.769 146.2H238.969C240.269 146.2 240.569 145.9 240.469 144.7L238.169 121.4ZM276.405 160.4C276.405 161.6 276.805 162 278.205 162H290.705C293.605 162 294.405 162.8 294.405 165.7V172.3C294.405 175.2 293.605 176 290.705 176H266.305C263.405 176 262.605 175.2 262.605 172.3V104.7C262.605 101.8 263.405 101 266.305 101H272.705C275.605 101 276.405 101.8 276.405 104.7V160.4Z" fill="#F7F0F5"/>
</svg>
