<svg width="574" height="200" viewBox="0 0 574 200" fill="none" xmlns="http://www.w3.org/2000/svg">
<g clip-path="url(#clip0_42_28)">
<path d="M42.6168 48.24C42.6155 48.24 42.6142 48.2404 42.6131 48.2411C42.4879 48.3218 42.3619 48.4032 42.2351 48.4851C40.9442 49.319 39.4209 47.9817 40.1424 46.6248C47.2119 33.3284 57.1209 23.2801 71.496 16.4688C72.9447 15.7824 72.9854 13.1563 71.5526 12.4373C71.4144 12.3679 71.2791 12.3032 71.1462 12.2444C70.7573 12.0722 70.4615 11.7168 70.4799 11.292V11.292C70.5025 10.7664 70.8766 10.2916 71.3918 10.1855C80.0451 8.40303 88.6399 6.03795 97.3748 5.12002C112.355 3.53002 127.235 4.86002 141.565 9.98002C150.85 13.2994 159.051 18.079 164.156 27.0901C164.613 27.8959 166.318 28.8429 167.198 29.1346V29.1346C168.027 29.4097 169.645 29.9039 169.951 30.7224C170.055 31.0011 170.096 31.252 170.555 32.3C173.715 39.55 169.635 45.96 161.375 46.43C149.659 47.1018 137.935 47.5365 126.187 48.0536C124.747 48.117 123.851 49.636 124.503 50.9218C126.198 54.2666 127.973 57.6898 129.465 61.23C131.765 66.71 131.735 71.82 127.795 77.08C122.975 83.53 124.595 90.99 126.615 98.12C127.141 99.9765 127.881 101.768 128.761 103.891C129.386 105.399 128.021 106.955 126.437 106.562C123.124 105.738 120.134 104.997 117.225 104.01C116.175 103.65 115.215 101.95 114.895 100.69C113.485 95.24 112.335 89.73 111.085 84.24C109.185 75.92 104.295 73.92 97.3348 78.73C89.8348 83.92 86.6548 91.5 88.8048 100C91.3048 109.87 95.0848 119.47 98.9248 128.94C102.855 138.6 107.975 147.77 111.765 157.47C115.535 167.14 112.855 175.87 105.045 182.63C93.6745 192.455 80.4214 195.93 65.9981 195.398C64.1634 195.331 63.5197 193.035 65.0026 191.952C66.7857 190.651 68.5539 189.361 70.3209 188.072C70.5403 187.912 70.5656 187.596 70.3783 187.399V187.399C70.2526 187.267 70.0628 187.22 69.8913 187.281C63.1303 189.709 56.5275 192.88 49.5648 194.34C36.1048 197.16 23.1048 194.89 11.2748 187.67C0.494808 181.1 -2.49519 170.59 3.21481 159.35C5.06481 155.7 7.24481 151.83 10.2648 149.21C23.4148 137.79 29.4048 122.8 32.4448 106.33C36.0043 87.0126 39.2439 67.6253 42.6234 48.2479C42.6241 48.2438 42.621 48.24 42.6168 48.24V48.24Z" fill="#222222"/>
</g>
<path d="M229.435 65.7H227.035C223.635 65.7 222.635 65.1 221.635 62.1L216.735 46.6C216.435 45.6 216.235 45.5 215.735 45.5C215.135 45.5 214.935 45.7 214.935 46.6V83.3C214.935 86.2 214.135 87 211.235 87H205.635C202.735 87 201.935 86.2 201.935 83.3V15.7C201.935 12.8 202.735 12 205.635 12H212.035C216.435 12 217.835 13 219.135 17.2L227.035 43.2C227.335 44.1 227.635 44.4 228.235 44.4C228.835 44.4 229.135 44.1 229.435 43.2L237.335 17.2C238.635 13 240.035 12 244.435 12H250.835C253.735 12 254.535 12.8 254.535 15.7V83.3C254.535 86.2 253.735 87 250.835 87H245.235C242.335 87 241.535 86.2 241.535 83.3V46.6C241.535 45.7 241.335 45.5 240.735 45.5C240.235 45.5 240.035 45.6 239.735 46.6L234.835 62.1C233.835 65.1 232.835 65.7 229.435 65.7ZM287.954 15.7C287.954 12.8 288.754 12 291.654 12H298.054C300.954 12 301.754 12.8 301.754 15.7V66C301.754 82.1 296.954 88 282.454 88C267.954 88 263.154 82.1 263.154 66V15.7C263.154 12.8 263.954 12 266.854 12H273.254C276.154 12 276.954 12.8 276.954 15.7V68.4C276.954 72.4 278.654 74 282.454 74C286.154 74 287.954 72.4 287.954 68.4V15.7ZM324.133 71.4C324.133 72.6 324.533 73 325.933 73H338.433C341.333 73 342.133 73.8 342.133 76.7V83.3C342.133 86.2 341.333 87 338.433 87H314.033C311.133 87 310.333 86.2 310.333 83.3V15.7C310.333 12.8 311.133 12 314.033 12H320.433C323.333 12 324.133 12.8 324.133 15.7V71.4ZM358.996 27.8V39C358.996 40.3 359.396 40.8 360.796 40.8H373.196C376.096 40.8 376.896 41.6 376.896 44.5V51.1C376.896 54 376.096 54.8 373.396 54.8H360.796C359.396 54.8 358.996 55.2 358.996 56.6V71.2C358.996 72.5 359.396 73 360.796 73H374.396C377.296 73 378.096 73.8 378.096 76.7V83.3C378.096 86.2 377.296 87 374.396 87H348.896C345.996 87 345.196 86.2 345.196 83.3V15.7C345.196 12.8 345.996 12 348.896 12H374.396C377.296 12 378.096 12.8 378.096 15.7V22.3C378.096 25.2 377.296 26 374.396 26H360.796C359.396 26 358.996 26.4 358.996 27.8ZM414.443 26H408.243C406.843 26 406.443 26.4 406.443 27.8V83.3C406.443 86.2 405.643 87 402.743 87H396.343C393.443 87 392.643 86.2 392.643 83.3V27.8C392.643 26.4 392.243 26 390.843 26H384.643C381.743 26 380.943 25.2 380.943 22.3V15.7C380.943 12.8 381.743 12 384.643 12H414.443C417.343 12 418.143 12.8 418.143 15.7V22.3C418.143 25.2 417.343 26 414.443 26ZM458.675 65C458.675 81.9 453.875 88 439.375 88C424.875 88 420.075 81.9 420.075 65V34C420.075 17.2 424.875 11 439.375 11C453.875 11 458.675 17.2 458.675 34V65ZM434.275 68.4C434.275 72.4 435.875 74 439.375 74C442.875 74 444.475 72.4 444.475 68.4V31.1C444.475 26.7 442.875 25 439.375 25C435.875 25 434.275 26.7 434.275 31.1V68.4ZM483.679 61.3H482.379C480.979 61.3 480.579 61.7 480.579 63.1V83.3C480.579 86.2 479.779 87 476.879 87H470.479C467.579 87 466.779 86.2 466.779 83.3V15.7C466.779 12.8 467.579 12 470.479 12H483.679C498.879 12 505.779 17.5 505.779 31V42.3C505.779 55.8 498.879 61.3 483.679 61.3ZM480.579 27.8V45.5C480.579 46.9 480.979 47.3 482.379 47.3H484.479C489.379 47.3 491.579 45.3 491.579 40.2V33.1C491.579 28 489.379 26 484.479 26H482.379C480.979 26 480.579 26.4 480.579 27.8ZM524.329 15.7V83.3C524.329 86.2 523.529 87 520.629 87H514.229C511.329 87 510.529 86.2 510.529 83.3V15.7C510.529 12.8 511.329 12 514.229 12H520.629C523.529 12 524.329 12.8 524.329 15.7ZM544.204 12H556.804C561.304 12 562.704 13.5 563.204 17.2L572.004 83.3C572.404 86.2 571.604 87 568.704 87H561.804C558.804 87 558.104 86.3 557.704 83.3L556.404 72.4C556.304 71.4 556.004 71.1 554.804 71.1H546.204C545.004 71.1 544.704 71.4 544.604 72.4L543.304 83.3C542.904 86.3 542.204 87 539.204 87H532.304C529.404 87 528.604 86.2 529.004 83.3L537.804 17.2C538.304 13.5 539.704 12 544.204 12ZM552.304 32.4C552.204 31.2 551.604 31 550.504 31C549.404 31 548.804 31.2 548.704 32.4L546.404 55.7C546.304 56.9 546.604 57.2 547.904 57.2H553.104C554.404 57.2 554.704 56.9 554.604 55.7L552.304 32.4Z" fill="#F7F0F5"/>
<path d="M215.735 158.4V183.3C215.735 186.2 214.935 187 212.035 187H205.635C202.735 187 201.935 186.2 201.935 183.3V115.7C201.935 112.8 202.735 112 205.635 112H232.535C235.435 112 236.235 112.8 236.235 115.7V122.3C236.235 125.2 235.435 126 232.535 126H217.535C216.135 126 215.735 126.4 215.735 127.8V140.8C215.735 142.1 216.135 142.6 217.535 142.6H228.335C231.235 142.6 232.035 143.4 232.035 146.3V152.9C232.035 155.8 231.235 156.6 228.535 156.6H217.535C216.135 156.6 215.735 157 215.735 158.4ZM253.137 127.8V139C253.137 140.3 253.537 140.8 254.937 140.8H267.337C270.237 140.8 271.037 141.6 271.037 144.5V151.1C271.037 154 270.237 154.8 267.537 154.8H254.937C253.537 154.8 253.137 155.2 253.137 156.6V171.2C253.137 172.5 253.537 173 254.937 173H268.537C271.437 173 272.237 173.8 272.237 176.7V183.3C272.237 186.2 271.437 187 268.537 187H243.037C240.137 187 239.337 186.2 239.337 183.3V115.7C239.337 112.8 240.137 112 243.037 112H268.537C271.437 112 272.237 112.8 272.237 115.7V122.3C272.237 125.2 271.437 126 268.537 126H254.937C253.537 126 253.137 126.4 253.137 127.8ZM293.607 138.7L306.407 150.3C313.107 156.3 314.607 159.9 314.607 166.6V168.4C314.607 181 309.807 188 295.307 188C280.807 188 276.007 182.1 276.007 166V164C276.007 161.1 276.807 160.3 279.707 160.3H286.507C289.407 160.3 290.207 161.1 290.207 164V168.4C290.207 172.4 291.807 174 295.307 174C298.807 174 300.407 172.5 300.407 168.9V167C300.407 164.2 299.807 162.8 296.107 159.5L284.107 148.8C277.407 142.9 276.007 139.5 276.007 132.8V130.6C276.007 118 280.807 111 295.307 111C309.807 111 314.607 116.9 314.607 133V135C314.607 137.9 313.807 138.7 310.907 138.7H304.107C301.207 138.7 300.407 137.9 300.407 135V130.6C300.407 126.6 298.807 125 295.307 125C291.807 125 290.207 126.5 290.207 130.1V131.8C290.207 134.7 290.807 136.1 293.607 138.7ZM350.087 126H343.887C342.487 126 342.087 126.4 342.087 127.8V183.3C342.087 186.2 341.287 187 338.387 187H331.987C329.087 187 328.287 186.2 328.287 183.3V127.8C328.287 126.4 327.887 126 326.487 126H320.287C317.387 126 316.587 125.2 316.587 122.3V115.7C316.587 112.8 317.387 112 320.287 112H350.087C352.987 112 353.787 112.8 353.787 115.7V122.3C353.787 125.2 352.987 126 350.087 126ZM370.52 115.7V183.3C370.52 186.2 369.72 187 366.82 187H360.42C357.52 187 356.72 186.2 356.72 183.3V115.7C356.72 112.8 357.52 112 360.42 112H366.82C369.72 112 370.52 112.8 370.52 115.7ZM401.195 187H390.195C384.995 187 383.495 185.5 382.895 180.8L375.195 115.7C374.895 112.8 375.995 112 378.895 112H386.195C389.095 112 389.695 112.8 389.895 115.7L394.295 167C394.395 168.2 394.795 168.5 395.695 168.5C396.595 168.5 396.995 168.2 397.095 167L401.495 115.7C401.695 112.8 402.295 112 405.195 112H412.495C415.395 112 416.495 112.8 416.195 115.7L408.495 180.8C407.895 185.5 406.395 187 401.195 187ZM431.704 112H444.304C448.804 112 450.204 113.5 450.704 117.2L459.504 183.3C459.904 186.2 459.104 187 456.204 187H449.304C446.304 187 445.604 186.3 445.204 183.3L443.904 172.4C443.804 171.4 443.504 171.1 442.304 171.1H433.704C432.504 171.1 432.204 171.4 432.104 172.4L430.804 183.3C430.404 186.3 429.704 187 426.704 187H419.804C416.904 187 416.104 186.2 416.504 183.3L425.304 117.2C425.804 113.5 427.204 112 431.704 112ZM439.804 132.4C439.704 131.2 439.104 131 438.004 131C436.904 131 436.304 131.2 436.204 132.4L433.904 155.7C433.804 156.9 434.104 157.2 435.404 157.2H440.604C441.904 157.2 442.204 156.9 442.104 155.7L439.804 132.4ZM478.039 171.4C478.039 172.6 478.439 173 479.839 173H492.339C495.239 173 496.039 173.8 496.039 176.7V183.3C496.039 186.2 495.239 187 492.339 187H467.939C465.039 187 464.239 186.2 464.239 183.3V115.7C464.239 112.8 465.039 112 467.939 112H474.339C477.239 112 478.039 112.8 478.039 115.7V171.4Z" fill="#222222"/>
<defs>
<clipPath id="clip0_42_28">
<rect width="171.27" height="191.04" fill="white" transform="translate(0.365234 4.48001)"/>
</clipPath>
</defs>
</svg>
