<svg width="173" height="192" viewBox="0 0 173 192" fill="none" xmlns="http://www.w3.org/2000/svg">
<path d="M43.117 43.7528C43.1157 43.7528 43.1145 43.7531 43.1134 43.7538C42.9882 43.8346 42.8621 43.9159 42.7353 43.9979C41.4444 44.8318 39.9211 43.4945 40.6426 42.1376C47.7122 28.8411 57.6211 18.7929 71.9962 11.9816C73.4449 11.2951 73.4857 8.66906 72.0529 7.95003C71.9147 7.88068 71.7793 7.81599 71.6464 7.75714C71.2576 7.585 70.9618 7.22955 70.9801 6.80472V6.80472C71.0028 6.27915 71.3768 5.80434 71.892 5.69821C80.5453 3.91578 89.1402 1.55071 97.8751 0.632772C112.855 -0.957228 127.735 0.372772 142.065 5.49277C151.35 8.8122 159.551 13.5917 164.657 22.6028C165.113 23.4087 166.819 24.3557 167.698 24.6473V24.6473C168.527 24.9225 170.145 25.4166 170.451 26.2351C170.556 26.5139 170.597 26.7648 171.055 27.8128C174.215 35.0628 170.135 41.4728 161.875 41.9428C150.159 42.6146 138.435 43.0493 126.687 43.5664C125.247 43.6298 124.351 45.1488 125.003 46.4346C126.699 49.7794 128.474 53.2025 129.965 56.7428C132.265 62.2228 132.235 67.3328 128.295 72.5928C123.475 79.0428 125.095 86.5028 127.115 93.6328C127.642 95.4893 128.381 97.2808 129.261 99.4039C129.886 100.912 128.521 102.468 126.937 102.074C123.625 101.251 120.635 100.51 117.725 99.5228C116.675 99.1628 115.715 97.4628 115.395 96.2028C113.985 90.7528 112.835 85.2428 111.585 79.7528C109.685 71.4328 104.795 69.4328 97.8351 74.2428C90.3351 79.4328 87.1551 87.0128 89.3051 95.5128C91.8051 105.383 95.585 114.983 99.425 124.453C103.355 134.113 108.475 143.283 112.265 152.983C116.035 162.653 113.355 171.383 105.545 178.143C94.1747 187.968 80.9216 191.443 66.4983 190.911C64.6637 190.844 64.0199 188.548 65.5028 187.465C67.286 186.164 69.0541 184.874 70.8212 183.585C71.0405 183.425 71.0659 183.108 70.8786 182.912V182.912C70.7529 182.78 70.5631 182.733 70.3915 182.794C63.6306 185.222 57.0278 188.393 50.0651 189.853C36.6051 192.673 23.6051 190.403 11.7751 183.183C0.995052 176.613 -1.99495 166.103 3.71505 154.863C5.56505 151.213 7.74505 147.343 10.7651 144.723C23.9151 133.303 29.9051 118.313 32.9451 101.843C36.5046 82.5254 39.7442 63.138 43.1237 43.7607C43.1244 43.7565 43.1212 43.7528 43.117 43.7528V43.7528Z" fill="#222222"/>
</svg>
