<svg width="198" height="176" viewBox="0 0 198 176" fill="none" xmlns="http://www.w3.org/2000/svg">
<path d="M198 87.0546C197.961 82.76 195.46 78.6842 190.947 74.9636C194.255 70.1344 195.528 65.5205 194.38 61.3837C193.232 57.247 189.766 53.9569 184.448 51.5351C186.397 46.0135 186.436 41.2238 184.262 37.5283C182.087 33.8293 177.888 31.551 172.126 30.593C172.584 24.7521 171.389 20.1166 168.334 17.11C165.28 14.1034 160.637 12.9912 154.825 13.5617C153.759 7.8032 151.409 3.63415 147.682 1.52451C133.707 -6.39023 105.061 17.2284 80.038 55.7652C34.3089 59.1091 -0.149735 72.8468 0.000489291 88.9454C0.0398338 93.24 2.53999 97.3158 7.05388 101.036C3.74536 105.866 2.47208 110.479 3.61665 114.616C4.76479 118.753 8.23069 122.043 13.5494 124.465C11.6 129.986 11.5606 134.776 13.7353 138.472C15.9099 142.171 20.1091 144.449 25.8713 145.407C25.4135 151.248 26.6081 155.883 29.6627 158.89C32.7172 161.897 37.3599 163.009 43.1721 162.438C44.238 168.197 46.5879 172.366 50.3149 174.475C64.2894 182.39 92.9358 158.772 117.959 120.235C163.688 116.891 198.147 103.153 197.996 87.0546H198ZM52.0998 150.459C51.6026 148.424 51.2843 146.146 51.1376 143.652C67.3154 140.068 87.0556 132.354 107.457 121.135C86.5727 139.135 65.4948 149.806 52.0998 150.455V150.459ZM37.5853 136.154C37.6318 134.059 37.9107 131.777 38.4114 129.33C40.908 129.441 43.5048 129.484 46.1945 129.456C45.5328 132.021 44.957 134.514 44.4706 136.929C41.9489 136.857 39.6419 136.599 37.5817 136.154H37.5853ZM27.2519 118.566C27.8349 116.557 28.6934 114.423 29.8094 112.191C32.1915 112.948 34.6881 113.662 37.2955 114.333C35.9936 116.64 34.7953 118.9 33.7044 121.107C31.2865 120.385 29.1261 119.535 27.2519 118.57V118.566ZM145.826 25.4876C146.312 27.5434 146.613 29.854 146.731 32.3798C130.41 36.0142 110.48 43.8393 89.9099 55.2163C89.6667 55.227 89.4199 55.2378 89.1767 55.245C110.419 36.8251 132.127 26.0509 145.826 25.484V25.4876ZM160.362 39.7743C160.301 41.8875 159.997 44.1945 159.457 46.6665C157.003 46.5589 154.453 46.5194 151.809 46.5481C152.482 43.9362 153.069 41.396 153.559 38.9383C156.044 39.0352 158.323 39.315 160.358 39.7743H160.362ZM170.713 57.3474C170.108 59.371 169.218 61.5237 168.062 63.7696C165.72 63.0305 163.266 62.3273 160.708 61.6707C162.035 59.3207 163.252 57.0209 164.36 54.775C166.735 55.5141 168.864 56.3751 170.713 57.3474ZM67.1902 77.5505C60.7342 89.6271 55.4513 101.496 51.4524 112.582C49.2527 112.011 47.1317 111.402 45.0965 110.759C50.1469 100.38 57.6259 88.8987 67.1902 77.5505ZM40.3537 109.141C37.8249 108.212 35.4642 107.229 33.2788 106.196C40.7614 94.7182 53.9203 81.5258 70.9672 69.6465C58.4199 83.047 48.0044 96.6377 40.3501 109.141H40.3537ZM72.3979 72.9329C73.0597 71.7561 73.7321 70.5937 74.4081 69.4456C75.3202 68.4733 76.2502 67.5046 77.1945 66.5394C78.1387 65.5743 79.0866 64.6271 80.038 63.6907C81.1718 62.9911 82.3163 62.295 83.4788 61.6098C84.6377 60.9245 85.8002 60.2536 86.9591 59.597C88.236 59.2131 89.52 58.84 90.8183 58.4776C92.1167 58.1152 93.4115 57.7672 94.6992 57.4371C96.0297 57.3977 97.3674 57.3726 98.7159 57.3582C114.736 57.2039 129.709 58.9584 142.406 61.9578C138.801 74.5833 132.996 88.6548 125.055 102.758C124.408 103.91 123.75 105.048 123.088 106.174C122.194 107.125 121.282 108.072 120.359 109.016C119.436 109.959 118.51 110.889 117.576 111.807C116.467 112.492 115.344 113.17 114.207 113.845C113.069 114.516 111.936 115.176 110.802 115.818C109.554 116.191 108.291 116.557 107.021 116.912C105.751 117.268 104.485 117.608 103.223 117.935C101.921 117.971 100.608 117.996 99.2882 118.01C83.1391 118.165 68.0558 116.46 55.2939 113.522C58.8134 100.922 64.5219 86.929 72.4015 72.9365L72.3979 72.9329ZM105.258 55.0153C119.787 52.102 133.421 51.0831 144.921 51.6679C144.499 53.7668 144.005 55.9231 143.44 58.1296C131.833 56.2818 118.921 55.184 105.261 55.0153H105.258ZM132.191 95.8519C138.1 84.5359 142.964 73.4388 146.695 63.0413C148.78 63.6046 150.794 64.2002 152.732 64.828C147.932 74.5188 140.979 85.1925 132.191 95.8519ZM89.8097 120.938C76.2573 123.5 63.5813 124.443 52.8045 123.977C53.1943 121.971 53.6449 119.915 54.1636 117.813C65.0405 119.567 77.0764 120.658 89.8097 120.942V120.938ZM157.808 66.6076C160.247 67.5368 162.533 68.5127 164.65 69.5389C157.446 80.3884 145.032 92.7879 129.036 104.201C140.775 91.4102 150.547 78.512 157.808 66.6076ZM154.857 60.2787C152.672 59.7979 150.425 59.3494 148.118 58.9261C148.898 56.5976 149.62 54.3121 150.282 52.0698C152.879 52.3317 155.34 52.6833 157.647 53.1246C156.874 55.4172 155.944 57.8067 154.857 60.2787ZM145.801 46.7203C131.186 47.3984 114.293 49.9709 96.534 54.5131C115.14 45.2852 133.017 40.108 146.652 39.0854C146.498 41.5 146.215 44.051 145.804 46.7203H145.801ZM81.762 58.6965C81.5295 58.7682 81.2935 58.8435 81.061 58.9153C81.2076 58.6964 81.3578 58.4776 81.5045 58.2623C81.7656 58.2372 82.0267 58.2121 82.2914 58.187C82.1161 58.3556 81.9373 58.5242 81.762 58.6965ZM74.7873 64.1715C54.9147 76.7324 38.4508 90.4523 27.3879 103.028C25.2382 101.7 23.3711 100.322 21.8117 98.9016C28.9259 87.1443 48.8234 73.2953 75.1664 63.5436C75.0412 63.7517 74.9125 63.9634 74.7873 64.1715ZM42.8538 115.66C45.1287 116.163 47.475 116.636 49.8822 117.078C49.1346 119.306 48.4407 121.498 47.804 123.647C45.1215 123.406 42.5855 123.069 40.2106 122.639C40.9438 120.4 41.8237 118.068 42.8503 115.664L42.8538 115.66ZM51.9031 129.298C65.8024 128.677 81.7834 126.33 98.6193 122.205C80.9286 130.733 64.1034 135.637 51.1555 136.721C51.2843 134.367 51.5347 131.888 51.9067 129.298H51.9031ZM170.706 72.8755C172.809 74.2066 174.644 75.5915 176.178 77.0087C169.135 88.4574 149.635 101.808 123.828 111.445C143.483 98.9554 159.754 85.3504 170.702 72.8755H170.706ZM179.025 67.892C178.009 67.4364 176.958 66.9879 175.87 66.5538C176.575 65.6174 177.247 64.6881 177.884 63.7732C178.228 64.4155 178.496 65.0828 178.689 65.7681C178.878 66.4569 178.993 67.1637 179.029 67.892H179.025ZM170.237 45.8341C170.598 46.4476 170.892 47.1042 171.113 47.8002C170.012 47.6244 168.881 47.4666 167.719 47.3266C168.159 46.2395 168.567 45.1668 168.946 44.1155C169.443 44.6465 169.876 45.2206 170.237 45.8341ZM156.928 28.7776C157.436 29.2763 157.886 29.836 158.28 30.4495C157.171 30.5643 156.037 30.7043 154.878 30.8729C155.021 29.7069 155.143 28.5659 155.236 27.4537C155.855 27.8376 156.42 28.2789 156.928 28.7776ZM139.674 15.7574C140.292 16.109 140.872 16.5288 141.412 17.0203C125.492 23.1232 105.261 36.6995 85.1921 55.4387C84.5912 55.471 83.9903 55.5069 83.393 55.5428C104.21 26.1334 128.503 9.42848 139.674 15.7574ZM16.2927 88.7911C16.1711 75.9252 42.4925 62.6646 78.2209 58.6032C77.899 59.109 77.5807 59.6221 77.2588 60.1316C51.202 68.6957 29.5768 79.8969 16.5538 90.9259C16.3857 90.2155 16.2999 89.5051 16.2927 88.7911ZM18.9753 108.112C19.9911 108.567 21.0463 109.016 22.13 109.45C21.4254 110.386 20.7529 111.312 20.1163 112.23C19.7729 111.588 19.5046 110.924 19.3115 110.236C19.1219 109.55 19.0075 108.84 18.9717 108.112H18.9753ZM27.767 130.169C27.4058 129.556 27.116 128.899 26.8907 128.203C27.9923 128.379 29.1226 128.537 30.285 128.677C29.8451 129.764 29.4373 130.833 29.0582 131.884C28.561 131.353 28.1283 130.783 27.767 130.166V130.169ZM41.0762 147.226C40.5683 146.727 40.1176 146.168 39.7242 145.554C40.833 145.439 41.9668 145.299 43.1257 145.131C42.9826 146.297 42.861 147.434 42.768 148.55C42.1492 148.166 41.5841 147.725 41.0762 147.226ZM58.3306 160.246C57.7118 159.895 57.1323 159.475 56.5922 158.983C72.5124 152.88 92.7426 139.304 112.812 120.565C113.159 120.547 113.506 120.525 113.853 120.504C93.2148 149.773 69.4579 166.546 58.3306 160.246ZM120.191 116.755C120.377 116.46 120.559 116.166 120.745 115.868C146.802 107.304 168.427 96.1031 181.45 85.0741C181.615 85.7845 181.704 86.4985 181.711 87.2089C181.833 100.025 155.708 112.779 120.191 116.751V116.755Z" fill="#13C7D1"/>
</svg>
