<svg width="88" height="151" viewBox="0 0 88 151" fill="none" xmlns="http://www.w3.org/2000/svg">
<path d="M1.70731 35.433L31.5938 1.35533C33.4736 -0.788944 36.959 -0.204621 38.0179 2.42618L56.6912 48.7652C57.7606 51.4154 61.2799 51.9801 63.1453 49.8009L69.7711 42.0746C71.9498 39.5344 76.1143 40.8004 76.4747 44.111L87.6183 146.056C88.0804 150.268 82.3072 151.97 80.4012 148.193L57.5531 102.879C56.1534 100.109 52.1843 100.089 50.7445 102.849L43.4675 116.801C42.0018 119.612 37.9216 119.527 36.5999 116.649L1.11119 39.5221C0.487718 38.1645 0.71929 36.567 1.70993 35.4433L1.70731 35.433Z" fill="#EC598D"/>
</svg>
