<svg width="237" height="186" viewBox="0 0 237 186" fill="none" xmlns="http://www.w3.org/2000/svg">
<path d="M49.6788 186C26.2229 186 9.71056 178.714 3.08222 165.386C-3.72002 151.72 0.821684 133.607 15.8659 114.384C30.5178 95.6575 53.5128 77.9293 80.6044 64.4685C107.7 51.0076 135.718 43.3862 159.505 43.0144C183.944 42.6305 201.116 49.9448 207.918 63.6118C214.72 77.2787 210.178 95.3908 195.134 114.614C180.482 133.341 157.487 151.069 130.396 164.53C103.3 177.991 75.2822 185.612 51.4946 185.984C50.8879 185.992 50.2813 186 49.6828 186H49.6788ZM161.337 47.8515C160.755 47.8515 160.173 47.8556 159.582 47.8637C136.506 48.2274 109.225 55.667 82.7679 68.8126C56.3112 81.9583 33.9068 99.2056 19.6916 117.37C5.86471 135.042 1.50915 151.327 7.43381 163.228C13.3544 175.129 28.9849 181.49 51.4258 181.139C74.5017 180.775 101.784 173.335 128.244 160.19C154.701 147.044 177.105 129.797 191.321 111.632C205.147 93.9644 209.499 77.6747 203.578 65.7737C197.811 54.1839 182.848 47.8515 161.346 47.8515H161.337Z" fill="#6F48C7"/>
<path d="M66.4432 158C43.0984 158 26.6646 150.714 20.0677 137.386C13.2977 123.719 17.8176 105.607 32.7905 86.3838C47.373 67.6574 70.259 49.9332 97.2223 36.4683C124.19 23.0074 152.075 15.3859 175.749 15.0141C200.072 14.6342 217.162 21.9446 223.932 35.6116C230.702 49.2785 226.182 67.3907 211.209 86.6141C196.627 105.341 173.741 123.069 146.778 136.53C119.81 149.991 91.9254 157.612 68.2505 157.984C67.6468 157.992 67.043 158 66.4432 158ZM177.569 19.8473C176.989 19.8473 176.409 19.8513 175.822 19.8594C152.855 20.2231 125.703 27.6627 99.3715 40.8084C73.0402 53.9541 50.742 71.2014 36.5942 89.3661C22.8328 107.038 18.4979 123.323 24.3945 135.224C30.287 147.125 45.8435 153.474 68.178 153.135C91.1445 152.771 118.297 145.331 144.632 132.185C170.964 119.04 193.262 101.792 207.41 83.6278C221.171 65.9601 225.502 49.6705 219.609 37.7695C213.87 26.1796 198.978 19.8473 177.577 19.8473H177.569Z" fill="#6F48C7"/>
<path d="M191.463 38C190.877 38 190.312 37.7338 189.927 37.2424C182.089 27.1596 178.8 26.0539 166.465 29.3629C165.552 29.6086 164.626 29.1868 164.208 28.3432C163.79 27.4995 164.016 26.5084 164.757 25.9269C174.84 18.0884 175.946 14.7998 172.637 2.46461C172.391 1.55545 172.813 0.625847 173.656 0.208121C174.5 -0.209605 175.491 0.0156254 176.073 0.756884C183.911 10.8396 187.204 11.9454 199.535 8.63634C200.445 8.39471 201.374 8.81244 201.792 9.65608C202.21 10.4997 201.984 11.4908 201.243 12.0723C191.16 19.9109 190.054 23.1994 193.363 35.5346C193.609 36.4438 193.187 37.3734 192.344 37.7911C192.061 37.9304 191.762 38 191.463 38ZM176.081 24.8335C181.405 24.8335 185.054 27.045 189.633 32.3402C187.654 23.0602 189.166 18.5676 196.341 12.3631C187.061 14.3412 182.568 12.8341 176.363 5.65491C178.342 14.935 176.83 19.4276 169.655 25.6321C172.088 25.1119 174.193 24.8335 176.081 24.8335Z" fill="#6F48C7"/>
<path d="M66.364 170.996C65.9648 170.996 65.5616 170.862 65.2177 170.593C64.4942 170.023 64.2688 169.037 64.6641 168.198C70.0522 156.773 69.6056 153.352 61.474 143.805C60.8731 143.101 60.8415 142.091 61.391 141.345C61.9444 140.6 62.8971 140.368 63.7154 140.775C74.8039 146.326 78.1245 145.866 87.3946 137.488C88.0785 136.869 89.0589 136.837 89.7823 137.403C90.5058 137.969 90.735 138.955 90.3357 139.798C84.9476 151.222 85.3944 154.643 93.526 164.194C94.1269 164.899 94.1585 165.913 93.609 166.654C93.0556 167.4 92.1029 167.632 91.2846 167.224C80.1921 161.673 76.8753 162.133 67.6052 170.511C67.2454 170.837 66.8028 171 66.364 171V170.996ZM66.0635 145.011C71.7323 152.419 72.3451 157.091 68.7794 165.783C75.9701 159.938 80.5044 159.311 88.9404 162.984C83.2676 155.576 82.6588 150.904 86.2245 142.213C79.0337 148.053 74.4995 148.685 66.0635 145.011Z" fill="#6F48C7"/>
<path d="M216.329 61C215.924 61 215.52 60.8598 215.188 60.5754C214.539 60.0226 214.371 59.1173 214.783 58.3722C219.064 50.6049 218.884 48.3857 213.386 41.4237C212.857 40.7547 212.873 39.8334 213.426 39.1844C213.978 38.5355 214.883 38.3672 215.628 38.7798C223.392 43.062 225.611 42.8818 232.57 37.3858C233.239 36.8571 234.16 36.8731 234.812 37.4259C235.461 37.9787 235.629 38.884 235.217 39.6291C230.936 47.3963 231.12 49.6155 236.614 56.5776C237.143 57.2466 237.127 58.1679 236.574 58.8169C236.022 59.4658 235.117 59.634 234.372 59.2214C226.608 54.9392 224.389 55.1195 217.43 60.6155C217.106 60.8718 216.717 61 216.333 61H216.329ZM218.115 43.1622C221.066 47.7128 221.33 50.9134 219.164 55.8846C223.713 52.9323 226.912 52.6719 231.881 54.8351C228.93 50.2845 228.666 47.0879 230.832 42.1167C226.283 45.0689 223.084 45.3293 218.115 43.1622Z" fill="#6F48C7"/>
</svg>
