<svg width="204" height="263" viewBox="0 0 204 263" fill="none" xmlns="http://www.w3.org/2000/svg">
<g filter="url(#filter0_d_50_69)">
<path fill-rule="evenodd" clip-rule="evenodd" d="M42.95 1.89905C29.16 8.50905 6.07011 34.0591 -15.6399 66.9491C-31.0999 90.3991 -38 108.329 -38 124.959C-38 138.389 -34.0099 148.409 -24.9299 157.479C-13.1699 169.239 3.95995 174.399 25.45 172.509C29.81 172.149 33.5801 172.149 33.8701 172.439C34.0901 172.729 34.74 174.839 35.25 177.009C36.63 182.749 41.7801 193.269 45.8501 198.719C52.8901 208.009 64.51 215.489 75.76 217.959C86.21 220.279 103.71 219.049 116.27 215.199C118.3 214.549 119.97 214.329 120.12 214.619C120.19 214.979 121.5 217.309 122.95 219.919C127.16 227.179 137.91 237.419 147.2 242.929C169.05 255.929 181.68 257.739 194.17 249.609C199.11 246.489 200.27 244.169 198.45 241.409C197.22 239.449 189.23 235.379 179.43 231.829C167.23 227.259 155.84 221.009 149.45 215.129C146.47 212.519 142.05 206.269 142.05 204.749C142.05 204.389 144.66 202.139 147.86 199.889C169.06 185.079 180.82 162.139 174.07 148.929C172.33 145.449 168.84 141.959 165.36 140.219C163.4 139.199 161 138.909 155.41 138.909C148.44 138.909 147.93 139.059 142.49 141.669C128.7 148.569 118.24 164.829 115.7 183.339C114.76 190.529 115.26 190.089 104.3 192.409C94.28 194.519 83.0301 194.079 77.3701 191.319C72.5101 188.999 66.7701 183.119 64.0801 177.889C62.5601 174.839 60.09 166.709 60.01 164.529C60.01 164.169 64.15 161.839 69.3 159.299C90.57 148.629 108.43 134.039 118.74 118.939C126.65 107.399 129.77 99.119 129.77 89.469C129.77 81.339 128.39 77.1291 123.82 72.1891C115.4 62.9691 102.04 62.0991 85.9202 69.7891C62.1802 81.1191 42.2201 107.899 35.3201 137.959L33.72 144.999L29.6501 145.869C23.9101 147.029 11.86 146.809 6.78003 145.509C-11.15 140.649 -15.29 128.809 -6.80005 106.739C-1.06005 91.779 19.4101 61.149 42.8601 32.249C47.7201 26.369 53.3102 19.399 55.4202 16.859C59.7802 11.489 60.79 8.21899 59.05 4.58899C56.73 -0.271007 50.0502 -1.44095 42.9302 1.89905H42.95ZM103.56 92.9391C103.56 94.6791 99.86 101.719 96.74 106.229C94.92 108.699 90.7101 113.269 87.3701 116.539C81.1301 122.419 66.9001 132.659 66.1001 131.789C65.8801 131.569 66.9701 128.809 68.5701 125.619C75.7601 111.249 85.7001 100.359 97.3201 94.329C101.82 91.929 103.56 91.5691 103.56 92.9491V92.9391Z" fill="black"/>
<path d="M98.7747 107.682L98.7526 107.712C96.8122 110.345 92.4884 115.027 89.1191 118.325L89.102 118.342L89.0846 118.359C85.8495 121.407 80.6318 125.51 76.1532 128.726C73.9096 130.337 71.7993 131.763 70.1729 132.742C69.3728 133.224 68.616 133.642 67.9865 133.917C67.6882 134.047 67.2926 134.201 66.8721 134.281C66.6645 134.321 66.3229 134.369 65.9212 134.321C65.5253 134.275 64.8512 134.105 64.2881 133.512C63.7078 132.902 63.6133 132.209 63.5896 131.997C63.5562 131.7 63.5774 131.448 63.594 131.305C63.6286 131.005 63.7012 130.717 63.763 130.499C63.8936 130.038 64.0953 129.481 64.3303 128.892C64.8076 127.695 65.5112 126.142 66.3343 124.5C73.6989 109.781 83.9681 98.4452 96.1563 92.1163C98.3797 90.931 100.218 90.0791 101.595 89.7789C102.221 89.6424 103.33 89.4793 104.382 90.0326C105.736 90.745 106.058 92.0689 106.06 92.9391L98.7747 107.682ZM98.7747 107.682L98.796 107.651M98.7747 107.682L98.796 107.651M98.796 107.651C100.426 105.296 102.184 102.315 103.54 99.6943M98.796 107.651L103.54 99.6943M103.54 99.6943C104.219 98.3837 104.815 97.126 105.25 96.0554M103.54 99.6943L105.25 96.0554M105.25 96.0554C105.466 95.5214 105.656 95.0014 105.795 94.5246M105.25 96.0554L105.795 94.5246M105.795 94.5246C105.92 94.0956 106.058 93.5251 106.06 92.9491L105.795 94.5246ZM44.0306 4.15345L44.0287 4.14519C47.2254 2.653 50.1431 2.25646 52.3728 2.63395C54.567 3.00541 56.0439 4.09488 56.7939 5.66599L56.7957 5.66961C57.4163 6.96433 57.517 8.05031 57.1271 9.35628C56.6913 10.8157 55.6055 12.6631 53.4882 15.2723C52.6166 16.3218 51.0774 18.2183 49.2314 20.4928C46.7294 23.5755 43.6638 27.3525 40.9331 30.6563L40.9259 30.665L40.9188 30.6738C29.1494 45.1785 18.1225 60.1235 9.30911 73.3341C0.529449 86.4941 -6.1579 98.0866 -9.13414 105.843C-13.4358 117.027 -14.7946 126.214 -12.2771 133.404C-9.68421 140.809 -3.26611 145.376 6.126 147.922L6.14309 147.927L6.16024 147.931C8.99292 148.656 13.5142 149.038 17.9261 149.111C22.3531 149.185 27.0117 148.953 30.1454 148.319L30.1591 148.317L30.1728 148.314L34.2426 147.444L35.8039 147.11L36.1578 145.553L37.7567 138.518C37.757 138.517 37.7573 138.516 37.7575 138.515C44.519 109.063 64.0634 82.9906 86.9966 72.0455C102.647 64.5794 114.625 65.8278 121.974 73.875L121.979 73.8809L121.985 73.8868C124.101 76.1747 125.368 78.1685 126.143 80.4399C126.931 82.7521 127.27 85.5243 127.27 89.469C127.27 98.4306 124.428 106.219 116.678 117.526L116.675 117.529C106.667 132.188 89.1842 146.526 68.1871 157.06C65.5867 158.343 63.2248 159.581 61.4974 160.553C60.6394 161.036 59.9024 161.473 59.3619 161.83C59.1004 162.002 58.8259 162.193 58.5938 162.388C58.4845 162.479 58.3126 162.63 58.1463 162.828C58.063 162.926 57.9333 163.093 57.8142 163.317C57.7074 163.518 57.51 163.948 57.51 164.529V164.575L57.5117 164.621C57.5418 165.44 57.7685 166.575 58.0343 167.688C58.3156 168.866 58.6939 170.232 59.1133 171.611C59.9378 174.32 60.9844 177.282 61.8425 179.004L61.8496 179.018L61.8569 179.033C63.3424 181.921 65.6168 184.899 68.1307 187.45C70.6322 189.988 73.5104 192.245 76.2838 193.571C79.5634 195.167 84.1849 195.991 89.1 196.188C94.0764 196.388 99.6006 195.953 104.815 194.855L104.818 194.855C105.303 194.752 105.77 194.654 106.218 194.56C108.252 194.132 109.909 193.784 111.209 193.442C112.761 193.033 114.194 192.544 115.309 191.66C116.562 190.669 117.147 189.411 117.486 188.081C117.743 187.073 117.903 185.817 118.079 184.441C118.111 184.188 118.144 183.931 118.178 183.67C120.634 165.793 130.71 150.368 143.591 143.914C146.357 142.587 147.57 142.043 148.906 141.754C150.273 141.457 151.859 141.409 155.41 141.409C161.065 141.409 162.863 141.738 164.206 142.437L164.224 142.446L164.242 142.455C167.238 143.953 170.336 147.051 171.834 150.047L171.839 150.057L171.844 150.067C174.682 155.622 173.815 163.729 169.223 172.667C164.682 181.504 156.731 190.642 146.428 197.84L146.422 197.844C144.769 199.006 143.257 200.176 142.142 201.118C141.59 201.584 141.102 202.022 140.734 202.392C140.556 202.572 140.36 202.781 140.191 203C140.109 203.106 139.99 203.269 139.881 203.471C139.812 203.599 139.55 204.084 139.55 204.749C139.55 205.428 139.767 206.054 139.92 206.441C140.099 206.895 140.336 207.374 140.595 207.847C141.117 208.799 141.82 209.889 142.595 210.979C144.116 213.119 146.085 215.499 147.779 216.989C154.508 223.172 166.223 229.551 178.553 234.17L178.566 234.175L178.579 234.18C183.405 235.928 187.757 237.794 191.026 239.447C192.664 240.274 193.991 241.029 194.956 241.668C195.939 242.32 196.28 242.683 196.327 242.732C196.331 242.737 196.333 242.739 196.332 242.738L196.347 242.762L196.363 242.785C196.667 243.247 196.742 243.532 196.758 243.682C196.771 243.8 196.763 243.958 196.624 244.226C196.272 244.907 195.252 245.969 192.835 247.495L192.821 247.504L192.806 247.514C187.03 251.274 181.354 252.687 174.548 251.718C167.593 250.727 159.316 247.229 148.478 240.781L148.475 240.779C144.026 238.14 139.164 234.326 134.892 230.268C130.609 226.199 127.063 222.02 125.124 218.685C124.985 218.435 124.848 218.189 124.714 217.947C124.146 216.925 123.625 215.989 123.215 215.233C122.96 214.762 122.76 214.384 122.623 214.112C122.585 214.035 122.555 213.974 122.532 213.927L122.506 213.789L122.341 213.47C121.863 212.547 121.034 212.242 120.757 212.153C120.399 212.038 120.07 212.009 119.86 211.999C119.421 211.978 118.956 212.022 118.541 212.082C117.686 212.206 116.629 212.46 115.523 212.813C103.276 216.564 86.2332 217.723 76.3018 215.518L76.2961 215.517C65.6385 213.177 54.5349 206.036 47.8481 197.216C45.9418 194.662 43.717 190.824 41.7874 186.875C39.8495 182.91 38.3099 179.038 37.6821 176.43C37.416 175.299 37.1129 174.18 36.8433 173.292C36.709 172.85 36.5761 172.443 36.4542 172.11C36.394 171.946 36.3273 171.775 36.2566 171.615L36.2559 171.614C36.2098 171.51 36.078 171.213 35.8618 170.928L35.7586 170.792L35.6379 170.671C35.2153 170.249 34.7499 170.081 34.6123 170.032C34.4062 169.959 34.2157 169.916 34.0803 169.89C33.8042 169.836 33.5073 169.805 33.2348 169.784C32.6755 169.742 31.9646 169.726 31.172 169.73C29.5735 169.74 27.4762 169.833 25.2442 170.017L25.2309 170.019C4.25089 171.864 -12.0669 166.806 -23.1622 155.711L-23.1631 155.71C-31.7446 147.138 -35.5 137.768 -35.5 124.959C-35.5 109.05 -28.9081 91.6165 -13.5527 68.3252C-2.75346 51.9648 8.3709 37.4583 18.4818 26.2431C28.6623 14.9508 37.607 7.23247 44.0306 4.15345ZM122.475 213.798C122.474 213.794 122.479 213.806 122.488 213.829C122.479 213.81 122.475 213.8 122.475 213.798Z" stroke="white" stroke-width="5"/>
</g>
<defs>
<filter id="filter0_d_50_69" x="-42" y="0" width="245.262" height="262.514" filterUnits="userSpaceOnUse" color-interpolation-filters="sRGB">
<feFlood flood-opacity="0" result="BackgroundImageFix"/>
<feColorMatrix in="SourceAlpha" type="matrix" values="0 0 0 0 0 0 0 0 0 0 0 0 0 0 0 0 0 0 127 0" result="hardAlpha"/>
<feOffset dy="4"/>
<feGaussianBlur stdDeviation="2"/>
<feComposite in2="hardAlpha" operator="out"/>
<feColorMatrix type="matrix" values="0 0 0 0 0 0 0 0 0 0 0 0 0 0 0 0 0 0 0.25 0"/>
<feBlend mode="normal" in2="BackgroundImageFix" result="effect1_dropShadow_50_69"/>
<feBlend mode="normal" in="SourceGraphic" in2="effect1_dropShadow_50_69" result="shape"/>
</filter>
</defs>
</svg>
