<svg width="174" height="238" viewBox="0 0 174 238" fill="none" xmlns="http://www.w3.org/2000/svg">
<g filter="url(#filter0_d_50_70)">
<path fill-rule="evenodd" clip-rule="evenodd" d="M102.18 4.63107C91.3103 10.0059 72.6082 16.5828 49.7376 23.0378C41.7747 25.3114 29.5213 28.9178 22.5679 31.0695C11.0717 34.6149 9.74015 35.1812 7.33821 37.5158C2.60396 42.002 2.85632 45.7391 8.40862 55.3475C12.9601 63.1876 19.5916 76.5331 28.4335 95.7587C39.8688 120.551 44.7335 132.624 48.3974 145.151L49.3458 148.505H44.7943C34.6209 148.505 25.8401 152.425 17.7553 160.457C8.91337 169.377 4.92741 178.985 4.99703 191.512C5.12757 202.706 8.661 211.434 16.241 219.022C30.5221 233.317 50.1727 233.691 62.9308 219.91C72.4689 209.605 77.1422 194.552 76.3241 176.651C75.3755 154.324 67.8564 129.663 52.1916 97.919C49.2849 91.9083 46.8831 86.8559 46.8831 86.5945C46.8831 86.3332 48.3972 85.7757 50.2335 85.3924C58.823 83.4324 92.4416 72.0468 116.513 62.9436L120.682 61.3583L123.971 70.5921C127.383 80.2702 134.084 100.759 136.86 109.74L138.374 114.993H136.103C120.247 115.054 103.311 129.349 99.012 146.301C95.2177 161.293 102.11 177.861 115.626 186.076C131.038 195.432 148.669 193.725 159.913 181.712C170.087 170.771 172.672 152.686 167.18 130.046C165.161 121.762 154.291 88.9988 146.711 68.5101C143.491 59.7815 138.305 45.1728 135.215 35.939C125.425 7.16598 123.649 3.3679 118.663 1.09429C114.303 -0.86573 112.475 -0.482379 102.171 4.63979L102.18 4.63107ZM111.283 32.2106C112.797 36.7665 113.746 40.6866 113.493 41.0002C113.18 41.2529 104.712 44.1624 94.5997 47.5162C65.9157 56.9417 56.7519 60.3564 47.0223 65.0953C42.0269 67.5605 37.8584 69.4596 37.7366 69.3289C36.788 68.3184 27.3108 50.2951 27.5632 50.0424C27.7547 49.8508 35.9699 47.5771 45.7604 44.9812C65.9158 39.6674 89.7351 31.9493 100.605 27.2104C104.582 25.442 107.993 23.9873 108.185 23.9873C108.376 23.9263 109.76 27.6546 111.283 32.2106ZM141.986 139.088C143.5 139.471 144.892 140.229 145.084 140.735C145.275 141.24 145.65 144.402 145.841 147.756C146.476 157.364 144.701 164.202 140.846 167.112C138.192 169.072 133.266 168.819 129.028 166.476C120.499 161.798 119.237 151.928 126.251 144.149C131.116 138.713 135.224 137.381 141.986 139.088ZM53.4711 170.074C53.6625 171.145 53.854 175.196 53.854 178.994C53.854 190.249 51.1997 199.038 46.274 204.23C44.3768 206.251 43.4977 206.696 41.6005 206.696C34.3947 206.696 28.329 198.977 28.3986 189.935C28.3986 184.621 29.6605 181.015 32.9501 176.651C37.2492 170.962 42.4882 168.175 49.1892 168.114C53.0445 168.114 53.1054 168.114 53.4883 170.074H53.4711Z" fill="black"/>
<path d="M6.99697 191.495C7.123 202.196 10.4685 210.414 17.6559 217.608C24.4765 224.436 32.4814 227.848 40.1951 227.995C47.8941 228.142 55.4555 225.041 61.463 218.552C70.5451 208.739 75.1268 194.262 74.3262 176.742L74.3259 176.736C73.3939 154.8 66.0022 130.425 50.3981 98.8041L50.3946 98.7969L50.3911 98.7898C48.9369 95.7826 47.6062 93.0094 46.6379 90.9527C46.1545 89.9259 45.7569 89.0683 45.4784 88.4463C45.3402 88.1376 45.2243 87.8713 45.1402 87.6651C45.0992 87.5646 45.0565 87.4559 45.021 87.3534C45.0037 87.3036 44.9796 87.2307 44.9574 87.1473L44.9561 87.1426C44.9438 87.0974 44.8831 86.873 44.8831 86.5945C44.8831 85.6625 45.4853 85.114 45.6018 85.0078L45.6045 85.0054C45.8133 84.8151 46.0309 84.6834 46.1755 84.6029C46.4818 84.4324 46.8425 84.2839 47.1894 84.1584C47.8995 83.9016 48.8234 83.6444 49.8057 83.4386C58.2675 81.5027 91.7282 70.1783 115.802 61.0743C115.803 61.0738 115.805 61.0734 115.806 61.0729L119.971 59.4889L121.88 58.7627L122.566 60.6871L125.855 69.9209L125.857 69.9272C129.279 79.6346 135.989 100.149 138.771 109.149L138.776 109.168L138.782 109.186L140.296 114.439L141.032 116.993H138.374H136.107C128.76 117.022 121.001 120.365 114.514 125.841C108.034 131.311 102.984 138.776 100.951 146.792L6.99697 191.495ZM6.99697 191.495C6.93167 179.513 10.7015 170.416 19.1697 161.871C26.9334 154.16 35.2238 150.505 44.7943 150.505H49.3458H51.9899L51.2703 147.961L50.3219 144.607L50.3195 144.598L50.3169 144.59C46.6097 131.915 41.6929 119.73 30.2505 94.923C21.4068 75.6936 14.742 62.2736 10.139 54.3447C7.35588 49.5281 6.14553 46.5623 6.01221 44.3884C5.89637 42.4995 6.58901 40.9811 8.71389 38.9675L8.72309 38.9588L8.73218 38.9499C9.77828 37.9332 10.5082 37.3567 12.3225 36.5884C14.2779 35.7604 17.3724 34.7647 23.1573 32.9807L23.1591 32.9801C30.093 30.8345 42.3291 27.2331 50.2838 24.9618C73.1783 18.4999 92.0195 11.8852 103.059 6.42746L103.062 6.43072C108.278 3.8377 111.071 2.59452 113.065 2.16675C114.784 1.79814 115.877 2.03515 117.838 2.91639C118.9 3.4012 119.701 3.91998 120.495 4.79536C121.327 5.71314 122.223 7.10193 123.33 9.43643C125.56 14.1381 128.411 22.1513 133.32 36.5785C136.418 45.836 141.61 60.4607 144.835 69.2023L144.836 69.2041C152.416 89.6933 163.248 122.358 165.237 130.519C170.66 152.877 167.954 170.124 158.452 180.346C147.944 191.572 131.383 193.302 116.663 184.366C103.88 176.596 97.3779 160.911 100.951 146.793L6.99697 191.495ZM113.181 31.5798L113.18 31.5765C112.414 29.2852 111.679 27.1896 111.107 25.6653C110.823 24.9084 110.57 24.2657 110.367 23.8036C110.27 23.582 110.163 23.3495 110.053 23.1549C110.006 23.0714 109.908 22.9034 109.767 22.7344C109.703 22.6581 109.546 22.479 109.299 22.3178C109.108 22.1932 108.562 21.8873 107.843 22.0158C107.777 22.0265 107.731 22.0372 107.713 22.0416L107.709 22.0425C107.635 22.0595 107.571 22.0779 107.53 22.0905C107.445 22.1163 107.359 22.1462 107.286 22.1728C107.135 22.2275 106.946 22.3011 106.734 22.386C106.306 22.5577 105.723 22.8011 105.031 23.0954C103.646 23.6849 101.791 24.494 99.7985 25.38C89.064 30.0589 65.3648 37.7443 45.2506 43.0473L45.2478 43.048C40.3479 44.3472 35.8385 45.5667 32.527 46.4864C30.8727 46.9458 29.5096 47.3325 28.5439 47.6178C28.0634 47.7597 27.667 47.8807 27.3777 47.9752C27.2362 48.0214 27.0979 48.0686 26.9801 48.1134C26.924 48.1347 26.8441 48.1663 26.7595 48.2057C26.718 48.2251 26.6503 48.2578 26.5725 48.3031L26.5716 48.3036C26.5217 48.3327 26.337 48.4401 26.1483 48.6289C25.7526 49.0251 25.6347 49.4677 25.595 49.6743C25.5515 49.9009 25.5561 50.0869 25.5619 50.1851C25.5736 50.3835 25.6119 50.5419 25.6291 50.6098C25.6686 50.765 25.721 50.9085 25.757 51.0028C25.8359 51.2096 25.9465 51.463 26.0695 51.7326C26.3208 52.2832 26.6861 53.0362 27.123 53.9126C27.9998 55.6717 29.1979 57.9941 30.43 60.3335C31.6623 62.6732 32.9351 65.0422 33.9622 66.8945C34.4749 67.8191 34.9324 68.6259 35.2959 69.2396C35.4769 69.5452 35.6424 69.8163 35.7845 70.0356C35.896 70.2078 36.0786 70.4849 36.2784 70.6977C36.6213 71.063 37.0076 71.2053 37.2183 71.2629C37.4403 71.3235 37.6265 71.3336 37.7316 71.3351C37.94 71.338 38.1075 71.3085 38.1808 71.2946C38.3453 71.2632 38.4943 71.217 38.5868 71.1867C38.7913 71.1199 39.0363 71.0252 39.2916 70.9211C39.8149 70.7077 40.5321 70.3925 41.3814 70.0054C43.0859 69.2285 45.3946 68.1288 47.9034 66.8908C57.4921 62.2209 66.5348 58.8435 95.2241 49.4162L95.2293 49.4145C100.29 47.7361 104.943 46.1677 108.373 44.9862C110.086 44.3959 111.502 43.8998 112.512 43.5338C113.016 43.3515 113.431 43.197 113.736 43.0772C113.887 43.0181 114.029 42.9607 114.147 42.9084C114.205 42.8827 114.277 42.8502 114.349 42.8133L114.354 42.811C114.395 42.79 114.57 42.7011 114.749 42.5571L114.916 42.422L115.052 42.2542C115.422 41.7942 115.49 41.3036 115.508 41.1755C115.536 40.9711 115.536 40.7852 115.532 40.6545C115.523 40.386 115.486 40.0946 115.442 39.8198C115.352 39.2562 115.195 38.5321 114.992 37.7139C114.582 36.0659 113.951 33.8966 113.181 31.5798ZM142.477 137.149L142.476 137.149C138.888 136.243 135.759 136.081 132.794 137.036C129.843 137.987 127.316 139.961 124.765 142.812C120.937 147.057 119.238 152.03 119.826 156.724C120.418 161.441 123.289 165.608 128.06 168.226C130.429 169.536 133.012 170.277 135.425 170.405C137.807 170.531 140.214 170.065 142.034 168.721L142.042 168.715L142.051 168.708C144.465 166.886 146.052 163.975 146.964 160.446C147.879 156.905 148.163 152.57 147.837 147.634C147.74 145.925 147.596 144.263 147.45 142.956C147.378 142.303 147.303 141.725 147.233 141.267C147.175 140.898 147.09 140.385 146.954 140.026C146.715 139.395 146.252 138.978 145.998 138.77C145.687 138.515 145.33 138.292 144.975 138.102C144.262 137.721 143.382 137.378 142.477 137.149ZM55.6627 172.074H55.9168L55.4512 169.69L55.4399 169.632C55.3582 169.213 55.2462 168.638 55.0314 168.143C54.7417 167.477 54.2489 166.889 53.461 166.535C52.8287 166.25 52.1288 166.18 51.544 166.147C50.9345 166.114 50.1616 166.114 49.2468 166.114H49.1892H49.1801L49.171 166.114C41.7945 166.181 35.9934 169.307 31.3545 175.445L31.353 175.447C27.8181 180.137 26.3999 184.16 26.3986 189.928C26.3622 194.886 28.0033 199.518 30.6997 202.943C33.3938 206.366 37.2477 208.696 41.6005 208.696C42.7199 208.696 43.775 208.564 44.8655 207.992C45.8752 207.463 46.7606 206.634 47.7287 205.603C53.158 199.877 55.854 190.48 55.854 178.994C55.854 177.064 55.8054 175.073 55.7324 173.423C55.7116 172.953 55.6883 172.499 55.6627 172.074Z" stroke="white" stroke-width="4"/>
</g>
<defs>
<filter id="filter0_d_50_70" x="0" y="0" width="174" height="238" filterUnits="userSpaceOnUse" color-interpolation-filters="sRGB">
<feFlood flood-opacity="0" result="BackgroundImageFix"/>
<feColorMatrix in="SourceAlpha" type="matrix" values="0 0 0 0 0 0 0 0 0 0 0 0 0 0 0 0 0 0 127 0" result="hardAlpha"/>
<feOffset dy="4"/>
<feGaussianBlur stdDeviation="2"/>
<feComposite in2="hardAlpha" operator="out"/>
<feColorMatrix type="matrix" values="0 0 0 0 0 0 0 0 0 0 0 0 0 0 0 0 0 0 0.25 0"/>
<feBlend mode="normal" in2="BackgroundImageFix" result="effect1_dropShadow_50_70"/>
<feBlend mode="normal" in="SourceGraphic" in2="effect1_dropShadow_50_70" result="shape"/>
</filter>
</defs>
</svg>
