<svg width="268" height="269" viewBox="0 0 268 269" fill="none" xmlns="http://www.w3.org/2000/svg">
<g filter="url(#filter0_d_50_71)">
<path fill-rule="evenodd" clip-rule="evenodd" d="M68.4981 14.6778C68.5903 16.0048 70.2509 19.9071 72.0675 23.39C78.3884 35.2676 82.2288 46.7302 87.9314 70.4527C90.293 80.2209 93.5174 88.8598 95.6765 91.1779C98.0552 93.707 100.178 94.2393 103.067 92.9814C105.216 92.0462 105.729 91.5095 106.606 89.2817C108.446 84.6026 108.61 76.3798 107.061 66.1301C106.631 63.0145 106.404 60.4685 106.554 60.403C107.446 60.0149 131.554 91.4141 154.293 122.586C177.178 153.994 185.986 166.858 185.528 168.022C185.276 168.662 173.353 172.135 155.022 176.896C131.434 183.025 127.705 184.38 123.426 188.536C118.444 193.395 118.607 200.945 123.846 206.816C127.297 210.693 157.7 237.02 169.455 246.308C187.341 260.465 193.201 263.198 196.145 258.837C198.657 255.098 195.879 249.216 187.125 239.631C180.924 232.767 176.756 228.858 158.703 212.793C151.849 206.66 146.179 201.546 146.121 201.398C146.056 201.248 150.825 200.053 156.685 198.735C162.544 197.417 171.954 195.039 177.658 193.482C200.939 187.045 205.452 184.468 208.007 175.957C210.32 168.517 207.733 161.358 197.416 146.377C184.095 127.019 146.997 79.1521 125.826 53.9998C120.834 48.1107 116.664 42.963 116.605 42.6372C116.546 42.3115 118.705 42.9114 121.472 44C130.299 47.4721 143.824 51.6264 146.554 51.7216C150.369 51.869 153.703 50.7239 155.838 48.555C157.61 46.8574 157.776 46.4335 157.764 44.5862C157.716 43.4635 157.13 41.5148 156.49 40.3371C154.153 35.9818 153.174 35.3475 141.948 31.1185C130.104 26.5838 119.65 21.7951 98.9183 11.432C86.3518 5.13554 83.5806 3.92073 80.9201 3.48831C73.69 2.36213 67.7016 7.74184 68.4796 14.6795L68.4981 14.6778Z" fill="black"/>
<path d="M70.4135 13.3901L70.4933 14.5392C70.4933 14.5388 70.4951 14.5626 70.5043 14.6158C70.5132 14.6675 70.5272 14.7361 70.5481 14.8232C70.5903 14.9989 70.6539 15.2217 70.7415 15.4916C70.9169 16.0318 71.1691 16.7007 71.4836 17.4595C72.1111 18.9728 72.9533 20.7631 73.8372 22.4583C80.2754 34.5581 84.1621 46.216 89.8755 69.9832M70.4135 13.3901L87.9314 70.4527M70.4135 13.3901C70.4736 8.40716 74.9412 4.58447 80.606 5.46352C82.8836 5.83492 85.32 6.85558 98.0224 13.2201L98.0241 13.221C118.774 23.5932 129.297 28.4164 141.233 32.9863L141.243 32.9901C146.933 35.1335 149.754 36.2734 151.48 37.3689C152.99 38.3272 153.618 39.2164 154.727 41.2827L154.733 41.2926C154.968 41.7263 155.228 42.3713 155.434 43.0575C155.638 43.7379 155.746 44.311 155.765 44.6409C155.769 45.5275 155.709 45.6731 155.665 45.7665C155.583 45.9375 155.37 46.2332 154.454 47.111L154.433 47.1312L154.413 47.152C152.766 48.8254 150.031 49.8544 146.632 49.7231L146.624 49.7228C146.194 49.7078 145.048 49.4924 143.219 49.0254C141.471 48.5789 139.281 47.952 136.887 47.2155C132.097 45.742 126.559 43.8518 122.204 42.1388C120.783 41.5795 119.483 41.1318 118.517 40.862C118.053 40.7324 117.58 40.6189 117.181 40.5729C117.024 40.5547 116.66 40.5171 116.263 40.6023C116.074 40.643 115.615 40.7641 115.207 41.1716C114.687 41.6903 114.528 42.3874 114.637 42.9924C114.691 43.2937 114.806 43.5208 114.832 43.5737L114.835 43.5784C114.88 43.6685 114.926 43.746 114.959 43.7997C115.026 43.9098 115.105 44.0245 115.179 44.1304C115.332 44.3474 115.539 44.6236 115.783 44.9413C116.276 45.5817 116.971 46.455 117.812 47.4921C119.497 49.5689 121.796 52.3385 124.298 55.2904C145.443 80.4119 182.496 128.223 195.769 147.511L195.769 147.512C206.126 162.55 208.092 168.945 206.097 175.364L206.095 175.373L206.092 175.382C205.491 177.384 204.814 178.901 203.857 180.186C202.907 181.462 201.602 182.614 199.606 183.765C195.509 186.127 188.821 188.321 177.128 191.554C171.447 193.104 162.069 195.474 156.246 196.784C153.306 197.445 150.631 198.078 148.693 198.565C147.728 198.808 146.927 199.02 146.363 199.184C146.088 199.263 145.831 199.343 145.629 199.417C145.542 199.449 145.387 199.507 145.23 199.59C145.171 199.621 144.975 199.725 144.774 199.911C144.677 200 144.464 200.211 144.307 200.55C144.127 200.939 144.006 201.55 144.288 202.197C144.4 202.454 144.541 202.626 144.543 202.629C144.588 202.687 144.628 202.733 144.649 202.757C144.695 202.808 144.741 202.855 144.773 202.887C144.841 202.956 144.926 203.039 145.017 203.126C145.204 203.304 145.467 203.549 145.793 203.849C146.446 204.452 147.38 205.302 148.522 206.334C150.808 208.402 153.942 211.216 157.37 214.283L157.374 214.287C175.434 230.359 179.523 234.201 185.641 240.972L185.648 240.98C189.992 245.736 192.707 249.422 194.05 252.278C195.385 255.117 195.176 256.691 194.484 257.721C194.008 258.425 193.574 258.662 193.03 258.722C192.331 258.798 191.167 258.604 189.252 257.706C185.428 255.913 179.668 251.841 170.696 244.74L170.695 244.739C164.855 240.124 154.345 231.246 144.846 223.021C140.101 218.912 135.619 214.975 132.111 211.827C128.557 208.637 126.111 206.352 125.34 205.486L125.339 205.484C120.667 200.25 120.753 193.937 124.822 189.969C126.736 188.11 128.489 186.873 132.674 185.333C136.977 183.75 143.7 181.904 155.524 178.831C164.699 176.449 172.284 174.385 177.614 172.834C180.275 172.06 182.395 171.407 183.877 170.903C184.613 170.652 185.228 170.426 185.685 170.23C185.907 170.135 186.144 170.025 186.355 169.902C186.457 169.842 186.604 169.75 186.753 169.626C186.854 169.541 187.193 169.253 187.389 168.755C187.553 168.339 187.554 167.964 187.539 167.747C187.524 167.512 187.478 167.303 187.435 167.142C187.348 166.822 187.214 166.494 187.072 166.187C186.785 165.563 186.344 164.768 185.773 163.818C184.622 161.904 182.821 159.165 180.313 155.513C175.29 148.201 167.353 137.113 155.909 121.408L155.908 121.407C144.531 105.81 132.809 90.1536 123.817 78.4416C119.323 72.5874 115.502 67.7082 112.745 64.3113C111.369 62.6166 110.241 61.2705 109.42 60.3519C109.015 59.8989 108.652 59.513 108.354 59.2347C108.214 59.1035 108.029 58.9396 107.825 58.8019C107.729 58.7372 107.548 58.6216 107.308 58.5328C107.144 58.4718 106.499 58.246 105.756 58.5693C105.196 58.8129 104.918 59.2291 104.812 59.412C104.692 59.6187 104.633 59.8033 104.606 59.9006C104.55 60.0997 104.531 60.2747 104.523 60.3616C104.506 60.5566 104.506 60.7624 104.51 60.9335C104.518 61.2951 104.551 61.7674 104.598 62.2994C104.693 63.3752 104.862 64.8244 105.08 66.4036L105.081 66.4163L105.083 66.429C106.625 76.627 106.379 84.3947 104.745 88.5496C104.316 89.6382 104.084 90.0078 103.868 90.2339C103.656 90.4552 103.312 90.6937 102.269 91.1477C101.086 91.6625 100.294 91.7137 99.6573 91.5575C98.9889 91.3934 98.1852 90.9251 97.1367 89.8113M70.4135 13.3901L95.6765 91.1779M89.8755 69.9832C89.8756 69.9839 89.8758 69.9846 89.876 69.9852L87.9314 70.4527M89.8755 69.9832C89.8754 69.983 89.8754 69.9829 89.8753 69.9827L87.9314 70.4527M89.8755 69.9832C91.0407 74.8027 92.4148 79.326 93.7534 82.9092C94.4232 84.7021 95.0752 86.2357 95.6772 87.4425C96.2964 88.6837 96.7986 89.4468 97.1367 89.8113M87.9314 70.4527C90.293 80.2209 93.5174 88.8598 95.6765 91.1779M97.1367 89.8113C97.1356 89.8101 97.1345 89.8088 97.1333 89.8076L95.6765 91.1779M97.1367 89.8113C97.1378 89.8124 97.1389 89.8136 97.14 89.8148L95.6765 91.1779M155.022 176.896C173.353 172.135 185.276 168.662 185.528 168.022C185.986 166.858 177.178 153.994 154.293 122.586C135.162 96.3597 115.061 69.9726 108.634 62.4909C108.614 62.2986 108.597 62.1167 108.582 61.9462C108.538 61.444 108.514 61.0728 108.509 60.8413C108.507 60.7759 108.508 60.7369 108.508 60.719C108.508 60.7025 108.509 60.7038 108.507 60.7187L108.507 60.7194C108.506 60.73 108.497 60.8386 108.455 60.9873C108.434 61.0616 108.383 61.2278 108.271 61.4208C108.225 61.5001 108.141 61.6318 108.008 61.774C107.172 60.8329 106.669 60.3529 106.554 60.403C106.473 60.4386 106.502 61.2062 106.615 62.3994C106.253 62.4066 105.989 62.3097 105.918 62.2832C105.73 62.2136 105.61 62.1327 105.586 62.1161L105.585 62.1157C105.559 62.0979 105.545 62.0869 105.546 62.0879C105.547 62.089 105.571 62.1082 105.621 62.1553C105.786 62.3094 106.054 62.5888 106.438 63.0181C106.525 63.115 106.615 63.2177 106.711 63.326L155.022 176.896ZM155.022 176.896C131.434 183.025 127.705 184.38 123.426 188.536C118.444 193.395 118.607 200.945 123.846 206.816L155.022 176.896ZM208.007 175.957C205.452 184.468 200.939 187.045 177.658 193.482C171.954 195.039 162.544 197.417 156.685 198.735C153.279 199.501 150.242 200.226 148.308 200.728L208.007 175.957ZM208.007 175.957C210.32 168.517 207.733 161.358 197.416 146.377C184.095 127.019 146.997 79.1521 125.826 53.9998L208.007 175.957ZM116.722 44.5464C116.724 44.5467 116.727 44.547 116.729 44.5473C116.698 44.5455 116.693 44.5431 116.722 44.5464ZM187.125 239.631C180.924 232.767 176.756 228.858 158.703 212.793L169.455 246.308C187.341 260.465 193.201 263.198 196.145 258.837C198.657 255.098 195.879 249.216 187.125 239.631Z" stroke="white" stroke-width="4"/>
</g>
<defs>
<filter id="filter0_d_50_71" x="64.4115" y="3.33862" width="148.381" height="265.398" filterUnits="userSpaceOnUse" color-interpolation-filters="sRGB">
<feFlood flood-opacity="0" result="BackgroundImageFix"/>
<feColorMatrix in="SourceAlpha" type="matrix" values="0 0 0 0 0 0 0 0 0 0 0 0 0 0 0 0 0 0 127 0" result="hardAlpha"/>
<feOffset dy="4"/>
<feGaussianBlur stdDeviation="2"/>
<feComposite in2="hardAlpha" operator="out"/>
<feColorMatrix type="matrix" values="0 0 0 0 0 0 0 0 0 0 0 0 0 0 0 0 0 0 0.25 0"/>
<feBlend mode="normal" in2="BackgroundImageFix" result="effect1_dropShadow_50_71"/>
<feBlend mode="normal" in="SourceGraphic" in2="effect1_dropShadow_50_71" result="shape"/>
</filter>
</defs>
</svg>
