<svg width="171" height="252" viewBox="0 0 171 252" fill="none" xmlns="http://www.w3.org/2000/svg">
<path d="M114.61 248.481L114.222 248.203C111.719 246.404 110.517 243.768 109.909 234.722L109.908 234.719C109.112 223.124 107.093 212.879 103.405 202.048C99.8677 191.549 97.6774 184.281 96.535 179.049C95.3848 173.783 95.3603 170.84 95.9037 168.859C96.2325 167.661 96.451 167.188 96.6293 166.939C96.7452 166.777 96.905 166.615 97.5178 166.33C98.9099 165.705 100.989 165.994 103.884 168.444C106.724 170.849 109.874 174.983 113.015 180.751C113.686 182.039 114.351 183.197 114.881 184.038C115.143 184.453 115.394 184.827 115.61 185.107C115.709 185.236 115.852 185.413 116.019 185.572C116.09 185.64 116.263 185.799 116.512 185.933L116.513 185.934C116.632 185.998 117.541 186.488 118.531 185.895C119.044 185.588 119.277 185.141 119.332 185.036L119.335 185.031C119.426 184.856 119.487 184.69 119.525 184.574C119.604 184.336 119.668 184.067 119.721 183.81C119.83 183.284 119.94 182.586 120.048 181.782C120.266 180.162 120.496 177.969 120.712 175.534C121.144 170.664 121.527 164.731 121.631 160.308L121.632 160.303C121.978 143.926 120.029 126.864 116.171 113.968C110.243 94.1347 95.6577 75.8308 79.2147 67.9775L79.2023 67.9716L79.1898 67.9658C79.0031 67.8798 78.8685 67.814 78.7263 67.7445C78.6254 67.6952 78.5207 67.6441 78.3907 67.5824C78.1594 67.4727 77.7981 67.3049 77.4141 67.2094C77.0207 67.1116 76.2808 67.0074 75.5263 67.4344C74.795 67.8483 74.4846 68.5179 74.3451 68.9263C74.089 69.6756 74.027 70.7294 73.9885 71.8623C73.9578 72.7697 73.9418 73.9385 73.9218 75.3977C73.9146 75.918 73.907 76.4751 73.898 77.0705C73.7272 87.0934 69.4593 98.3927 62.8542 106.295L62.8539 106.295C55.056 115.627 42.1567 121.771 31.9971 121.235C29.3594 121.095 26.3028 120.39 23.4657 119.317C20.611 118.238 18.1439 116.848 16.5986 115.445L16.5886 115.436C9.23633 108.849 6.90524 97.4466 11.0507 85.7041L11.0535 85.6963L11.0562 85.6884C13.1803 79.5094 15.6051 75.3203 20.4483 69.5259L20.4494 69.5246C26.9442 61.7409 36.3792 54.8733 45.497 51.2819L45.5155 51.2746L45.5338 51.267C46.45 50.8849 47.3277 50.4736 48.01 50.1002C48.3452 49.9168 48.6784 49.718 48.9568 49.5155C49.0935 49.4161 49.2622 49.2833 49.4218 49.1209C49.5316 49.0091 49.869 48.659 50.0201 48.1081C50.1988 47.4571 50.0197 46.8918 49.969 46.732L49.9687 46.7308C49.8877 46.4754 49.7762 46.2338 49.6736 46.0329C49.4641 45.6229 49.1726 45.1531 48.8468 44.6674C48.1868 43.6835 47.2645 42.4551 46.2358 41.1695C44.1862 38.6079 41.5915 35.6666 39.5927 33.8101C33.7607 28.3905 28.3749 24.9849 18.1391 20.005L18.1319 20.0016C15.5687 18.7671 12.9667 17.4548 10.8453 16.3338C8.66728 15.1829 7.13634 14.3062 6.60586 13.921L6.58998 13.9095L6.57388 13.8982C3.6196 11.8403 2.78753 9.61145 3.02904 7.94056C3.27297 6.253 4.73237 4.28334 8.19531 3.02185C11.6092 1.81274 14.1524 1.88014 23.3174 4.39415C30.2863 6.37375 32.5806 7.26397 36.042 9.35458L36.0422 9.35473C47.9501 16.5446 58.7714 28.2936 64.8952 40.8175L64.8993 40.8259L67.0502 45.1736L67.4447 45.971L68.3011 46.212L78.0199 48.9465L78.0324 48.95C86.2071 51.1926 88.2673 52.0278 92.176 54.3699L92.1825 54.3738C109.538 64.6839 123.886 83.7658 130.961 106.296L130.962 106.301C137.04 125.504 138.597 152.604 135.127 180.6L135.126 180.604C134.824 183.086 134.539 185.449 134.305 187.396C133.976 190.121 133.746 192.03 133.705 192.311C133.674 192.519 133.563 193.496 134.42 194.208C135.218 194.87 136.101 194.652 136.258 194.613C136.708 194.499 137.071 194.245 137.198 194.156L137.204 194.152C137.581 193.889 138.047 193.487 138.54 193.032C139.554 192.094 140.933 190.689 142.439 189.017M114.61 248.481L5.43071 15.5393C-1.25507 10.882 -0.262291 3.97011 7.51829 1.13992C11.5732 -0.298163 14.655 -0.056225 23.8541 2.46749C30.8877 4.46523 33.3846 5.41305 37.076 7.64262C49.3093 15.029 60.3973 27.0658 66.6919 39.939L68.8428 44.2867L78.5616 47.0212C86.8079 49.2835 89.0684 50.1763 93.204 52.6542C111.048 63.2541 125.671 82.7735 132.869 105.697C139.061 125.259 140.604 152.668 137.111 180.846C136.819 183.25 136.541 185.556 136.309 187.483C136.2 188.388 136.101 189.209 136.015 189.917C135.95 189.978 135.886 190.038 135.824 190.095C135.358 190.526 135.056 190.773 134.914 190.872C134.909 190.876 134.905 190.879 134.9 190.882M114.61 248.481C117.987 250.577 122.608 249.807 126.301 245.541C126.883 244.867 128.238 242.868 129.994 240.043C131.715 237.275 133.737 233.852 135.628 230.443L135.633 230.435C144.369 214.86 148.16 209.382 158.538 197.322L158.542 197.318C162.576 192.659 164.533 190.363 165.653 188.703C166.669 187.198 166.953 186.292 167.517 184.235C168.138 181.859 168.342 179.591 168.18 177.689C168.015 175.754 167.489 174.382 166.834 173.594M114.61 248.481L137.377 231.413C146.056 215.94 149.772 210.574 160.054 198.627C168.044 189.4 168.284 188.999 169.449 184.753C170.792 179.621 170.397 174.743 168.365 172.306M142.439 189.017C142.44 189.015 142.442 189.014 142.443 189.012L140.958 187.674L142.438 189.017C142.438 189.017 142.439 189.017 142.439 189.017ZM142.439 189.017C154.125 176.133 158.788 173.101 164.43 172.937L164.44 172.937C165.034 172.917 165.438 172.913 165.743 172.929C166.042 172.945 166.165 172.977 166.212 172.993C166.213 172.993 166.213 172.993 166.214 172.993C166.235 172.998 166.35 173.023 166.834 173.594M166.834 173.594C166.832 173.592 166.831 173.589 166.829 173.587L168.365 172.306M166.834 173.594C166.836 173.596 166.838 173.598 166.839 173.6L168.365 172.306M168.365 172.306C167.246 170.987 166.769 170.856 164.372 170.938C157.762 171.13 152.56 174.882 140.957 187.674C139.824 188.932 138.774 190.024 137.915 190.865C137.78 191.979 137.689 192.711 137.662 192.895C137.68 192.774 137.769 192.086 137.293 191.46C136.623 192.086 136.124 192.496 135.87 192.631C135.736 192.702 135.67 192.696 135.683 192.603C135.708 192.434 135.793 191.746 135.922 190.688C135.585 190.656 135.334 190.72 135.278 190.734L135.276 190.735C135.094 190.781 134.96 190.848 134.9 190.882M134.9 190.882C134.875 190.899 134.864 190.905 134.865 190.904C134.867 190.902 134.879 190.894 134.9 190.882ZM38.2316 35.2755C32.5984 30.0406 27.4042 26.7368 17.2641 21.8035L44.764 49.4211C46.5099 48.6929 48.0045 47.8959 48.0914 47.579C48.3323 46.7008 42.0246 38.7985 38.2316 35.2755ZM115.728 183.318C115.728 183.316 115.728 183.315 115.729 183.314L115.728 183.318ZM37.6816 104.758L37.1949 104.868L37.155 104.857C35.0221 105.256 32.9077 105.24 31.0652 104.835C29.1276 104.409 27.2343 103.489 26.123 101.88L26.1157 101.869C24.8646 100.032 24.6686 97.7433 25.0262 95.4911C25.3868 93.2204 26.3403 90.7579 27.6966 88.3021C30.4118 83.3859 34.9169 78.179 40.3771 74.1205C42.5053 72.5362 45.9382 70.6246 48.9728 69.1719C50.5008 68.4405 51.981 67.7997 53.1975 67.3618C53.8018 67.1443 54.383 66.9616 54.8947 66.8466C55.1503 66.7891 55.4249 66.7403 55.6985 66.7188C55.9452 66.6994 56.33 66.6897 56.742 66.8027C57.4425 66.9949 57.8281 67.4805 57.9543 67.6485C58.1259 67.877 58.2462 68.1132 58.3282 68.2949C58.4965 68.6678 58.6332 69.1048 58.7442 69.539C58.9691 70.4183 59.1537 71.5439 59.2469 72.7302C59.6194 76.328 59.2787 78.4896 57.7659 84.2438L57.7632 84.2542L57.7603 84.2644C56.9194 87.3299 56.3421 89.2793 55.6495 90.826C54.9227 92.449 54.0937 93.5768 52.8916 95.0504L52.8887 95.0539C51.0796 97.2615 48.4874 99.3994 45.8061 101.108C43.1344 102.81 40.2099 104.19 37.6816 104.758Z" fill="black" stroke="white" stroke-width="4"/>
</svg>
